<svg viewBox="0 0 800 450" xmlns="http://www.w3.org/2000/svg" font-family="Arial, sans-serif">
  <rect x="0" y="0" width="800" height="450" fill="#0A2342"/>
  <text x="400" y="34" text-anchor="middle" font-size="24" font-weight="bold" fill="#FFFFFF">A VT Report That Stands on Its Own</text>

  <!-- report page -->
  <rect x="30" y="54" width="460" height="382" rx="8" fill="#FFFFFF"/>
  <text x="46" y="82" font-size="17" font-weight="bold" fill="#0A2342">VISUAL TESTING REPORT</text>
  <text x="350" y="82" font-size="16" fill="#0A2342">No. VT-2041</text>
  <path d="M46 92 L474 92" stroke="#D9E0E8" stroke-width="2"/>

  <text x="46" y="116" font-size="16" font-weight="bold" fill="#0A2342">Date:</text>
  <text x="92" y="116" font-size="16" fill="#1B82E8">09 Jun 2026</text>
  <text x="240" y="116" font-size="16" font-weight="bold" fill="#0A2342">Examiner:</text>
  <text x="322" y="116" font-size="16" fill="#1B82E8">J. Ruiz — Level I</text>

  <text x="46" y="142" font-size="16" font-weight="bold" fill="#0A2342">Part:</text>
  <text x="92" y="142" font-size="16" fill="#1B82E8">pump skid weld W12 — S/N 4471</text>

  <text x="46" y="168" font-size="16" font-weight="bold" fill="#0A2342">Procedure:</text>
  <text x="140" y="168" font-size="16" fill="#1B82E8">VT-PROC-014 Rev C</text>

  <text x="46" y="194" font-size="16" font-weight="bold" fill="#0A2342">Criteria:</text>
  <text x="120" y="194" font-size="16" fill="#1B82E8">Spec 84-VT, Table 2</text>

  <text x="46" y="220" font-size="16" font-weight="bold" fill="#0A2342">Technique:</text>
  <text x="140" y="220" font-size="16" fill="#1B82E8">direct — 1,080 lux at surface</text>

  <text x="46" y="246" font-size="16" font-weight="bold" fill="#0A2342">Meter:</text>
  <text x="104" y="246" font-size="16" fill="#1B82E8">LM-07 · cal due 30 Nov 2026</text>

  <!-- results table -->
  <rect x="46" y="260" width="428" height="24" fill="#E8F1FB"/>
  <text x="52" y="277" font-size="16" font-weight="bold" fill="#0A2342">No.</text>
  <text x="90" y="277" font-size="16" font-weight="bold" fill="#0A2342">Type</text>
  <text x="180" y="277" font-size="16" font-weight="bold" fill="#0A2342">Size</text>
  <text x="250" y="277" font-size="16" font-weight="bold" fill="#0A2342">Location</text>
  <text x="432" y="277" font-size="16" font-weight="bold" fill="#0A2342">A/R</text>

  <text x="56" y="301" font-size="16" fill="#0A2342">1</text>
  <text x="90" y="301" font-size="16" fill="#0A2342">undercut</text>
  <text x="180" y="301" font-size="16" fill="#0A2342">0.6 mm</text>
  <text x="250" y="301" font-size="16" fill="#0A2342">220 mm from N end</text>
  <text x="436" y="301" font-size="16" font-weight="bold" fill="#1E9E6A">A</text>
  <path d="M46 308 L474 308" stroke="#D9E0E8" stroke-width="1"/>

  <text x="56" y="325" font-size="16" fill="#0A2342">2</text>
  <text x="90" y="325" font-size="16" fill="#0A2342">pore</text>
  <text x="180" y="325" font-size="16" fill="#0A2342">3.2 mm</text>
  <text x="250" y="325" font-size="16" fill="#0A2342">415 mm from N end</text>
  <text x="436" y="325" font-size="16" font-weight="bold" fill="#D14343">R</text>
  <path d="M46 332 L474 332" stroke="#D9E0E8" stroke-width="1"/>

  <!-- sketch box -->
  <rect x="46" y="344" width="300" height="56" fill="none" stroke="#5A6B7E" stroke-width="1.5" stroke-dasharray="5 4"/>
  <text x="200" y="362" font-size="16" fill="#5A6B7E">Sketch with datum</text>
  <text x="56" y="368" font-size="16" fill="#0A2342">N end</text>
  <path d="M64 372 L64 396" stroke="#0A2342" stroke-width="2.5"/>
  <path d="M64 384 L330 384" stroke="#5A6B7E" stroke-width="3"/>
  <path d="M279 378 L291 390 M291 378 L279 390" stroke="#D14343" stroke-width="2.5"/>

  <!-- signature -->
  <path d="M46 410 L474 410" stroke="#D9E0E8" stroke-width="2"/>
  <text x="46" y="430" font-size="16" font-weight="bold" fill="#0A2342">Signed:</text>
  <text x="112" y="430" font-size="16" fill="#1B82E8">J. Ruiz — Level I — 09 Jun 2026</text>

  <!-- callouts -->
  <circle cx="492" cy="150" r="3" fill="#F2A33C"/>
  <path d="M492 150 L506 100" stroke="#F2A33C" stroke-width="2" fill="none"/>
  <text x="510" y="92" font-size="17" font-weight="bold" fill="#F2A33C">TRACEABILITY</text>
  <text x="510" y="114" font-size="16" fill="#E8F1FB">one physical part, one</text>
  <text x="510" y="134" font-size="16" fill="#E8F1FB">procedure rev, one criteria set</text>

  <circle cx="492" cy="230" r="3" fill="#F2A33C"/>
  <path d="M492 230 L506 190" stroke="#F2A33C" stroke-width="2" fill="none"/>
  <text x="510" y="182" font-size="17" font-weight="bold" fill="#F2A33C">PROVE THE CONDITIONS</text>
  <text x="510" y="204" font-size="16" fill="#E8F1FB">lux measured at the surface,</text>
  <text x="510" y="224" font-size="16" fill="#E8F1FB">meter in calibration</text>

  <circle cx="492" cy="312" r="3" fill="#F2A33C"/>
  <path d="M492 312 L506 280" stroke="#F2A33C" stroke-width="2" fill="none"/>
  <text x="510" y="272" font-size="17" font-weight="bold" fill="#F2A33C">RELOCATABLE FINDINGS</text>
  <text x="510" y="294" font-size="16" fill="#E8F1FB">type, size, and location</text>
  <text x="510" y="314" font-size="16" fill="#E8F1FB">from a named datum</text>

  <circle cx="492" cy="424" r="3" fill="#F2A33C"/>
  <path d="M492 424 L506 370" stroke="#F2A33C" stroke-width="2" fill="none"/>
  <text x="510" y="362" font-size="17" font-weight="bold" fill="#F2A33C">ACCOUNTABILITY</text>
  <text x="510" y="384" font-size="16" fill="#E8F1FB">name, level, signature, date —</text>
  <text x="510" y="404" font-size="16" fill="#E8F1FB">legible and permanent</text>
</svg>
