<svg viewBox="0 0 800 450" xmlns="http://www.w3.org/2000/svg">
  <rect x="0" y="0" width="800" height="450" fill="#FFFFFF"/>
  <text x="400" y="34" text-anchor="middle" font-family="Arial, sans-serif" font-size="24" font-weight="bold" fill="#0A2342">Color and Gray-Shade Differentiation</text>

  <text x="205" y="86" text-anchor="middle" font-family="Arial, sans-serif" font-size="16" font-weight="bold" fill="#0A2342">Pseudoisochromatic plate</text>

  <!-- Plate boundary -->
  <circle cx="205" cy="238" r="122" fill="#F4F8F2" stroke="#0A2342" stroke-width="2.5"/>

  <!-- Background green/teal dots and amber "7" -->
  <circle cx="160" cy="170" r="10" fill="#F2A33C"/>
  <circle cx="184" cy="170" r="10" fill="#F2A33C"/>
  <circle cx="208" cy="170" r="10" fill="#E08A2A"/>
  <circle cx="232" cy="170" r="10" fill="#F2A33C"/>
  <circle cx="256" cy="170" r="10" fill="#F2A33C"/>

  <circle cx="148" cy="194" r="10" fill="#1E9E6A"/>
  <circle cx="172" cy="194" r="10" fill="#3CB985"/>
  <circle cx="196" cy="194" r="10" fill="#2E8B7A"/>
  <circle cx="220" cy="194" r="10" fill="#1E9E6A"/>
  <circle cx="244" cy="194" r="10" fill="#F2A33C"/>
  <circle cx="268" cy="194" r="10" fill="#3CB985"/>

  <circle cx="136" cy="218" r="10" fill="#3CB985"/>
  <circle cx="160" cy="218" r="10" fill="#1E9E6A"/>
  <circle cx="184" cy="218" r="10" fill="#2E8B7A"/>
  <circle cx="208" cy="218" r="10" fill="#3CB985"/>
  <circle cx="232" cy="218" r="10" fill="#E08A2A"/>
  <circle cx="256" cy="218" r="10" fill="#1E9E6A"/>
  <circle cx="280" cy="218" r="10" fill="#3CB985"/>

  <circle cx="124" cy="242" r="10" fill="#1E9E6A"/>
  <circle cx="148" cy="242" r="10" fill="#3CB985"/>
  <circle cx="172" cy="242" r="10" fill="#1E9E6A"/>
  <circle cx="196" cy="242" r="10" fill="#2E8B7A"/>
  <circle cx="220" cy="242" r="10" fill="#F2A33C"/>
  <circle cx="244" cy="242" r="10" fill="#3CB985"/>
  <circle cx="268" cy="242" r="10" fill="#1E9E6A"/>
  <circle cx="292" cy="242" r="10" fill="#2E8B7A"/>

  <circle cx="136" cy="266" r="10" fill="#3CB985"/>
  <circle cx="160" cy="266" r="10" fill="#1E9E6A"/>
  <circle cx="184" cy="266" r="10" fill="#2E8B7A"/>
  <circle cx="208" cy="266" r="10" fill="#F2A33C"/>
  <circle cx="232" cy="266" r="10" fill="#3CB985"/>
  <circle cx="256" cy="266" r="10" fill="#1E9E6A"/>
  <circle cx="280" cy="266" r="10" fill="#3CB985"/>

  <circle cx="148" cy="290" r="10" fill="#1E9E6A"/>
  <circle cx="172" cy="290" r="10" fill="#3CB985"/>
  <circle cx="196" cy="290" r="10" fill="#E08A2A"/>
  <circle cx="220" cy="290" r="10" fill="#2E8B7A"/>
  <circle cx="244" cy="290" r="10" fill="#1E9E6A"/>
  <circle cx="268" cy="290" r="10" fill="#3CB985"/>

  <circle cx="160" cy="314" r="10" fill="#3CB985"/>
  <circle cx="184" cy="314" r="10" fill="#F2A33C"/>
  <circle cx="208" cy="314" r="10" fill="#1E9E6A"/>
  <circle cx="232" cy="314" r="10" fill="#2E8B7A"/>
  <circle cx="256" cy="314" r="10" fill="#3CB985"/>

  <text x="205" y="392" text-anchor="middle" font-family="Arial, sans-serif" font-size="15" fill="#5A6B7E">Digit reads to normal color vision; confused if color-deficient</text>

  <!-- Gray-shade wedge -->
  <text x="585" y="86" text-anchor="middle" font-family="Arial, sans-serif" font-size="16" font-weight="bold" fill="#0A2342">Gray-shade (contrast) wedge</text>
  <rect x="430" y="110" width="40" height="70" fill="#FFFFFF" stroke="#0A2342" stroke-width="1.5"/>
  <rect x="470" y="110" width="40" height="70" fill="#E0E0E0" stroke="#0A2342" stroke-width="1.5"/>
  <rect x="510" y="110" width="40" height="70" fill="#C2C2C2" stroke="#0A2342" stroke-width="1.5"/>
  <rect x="550" y="110" width="40" height="70" fill="#A4A4A4" stroke="#0A2342" stroke-width="1.5"/>
  <rect x="590" y="110" width="40" height="70" fill="#868686" stroke="#0A2342" stroke-width="1.5"/>
  <rect x="630" y="110" width="40" height="70" fill="#686868" stroke="#0A2342" stroke-width="1.5"/>
  <rect x="670" y="110" width="40" height="70" fill="#4A4A4A" stroke="#0A2342" stroke-width="1.5"/>
  <rect x="710" y="110" width="40" height="70" fill="#202020" stroke="#0A2342" stroke-width="1.5"/>
  <text x="430" y="202" font-family="Arial, sans-serif" font-size="15" fill="#0A2342">white</text>
  <text x="750" y="202" text-anchor="end" font-family="Arial, sans-serif" font-size="15" fill="#0A2342">black</text>
  <text x="585" y="226" text-anchor="middle" font-family="Arial, sans-serif" font-size="14" fill="#5A6B7E">subtle steps must be distinguishable</text>

  <!-- Low-contrast indication demo -->
  <rect x="470" y="252" width="230" height="86" fill="#8C8C8C" stroke="#0A2342" stroke-width="2"/>
  <rect x="560" y="276" width="56" height="40" fill="#9E9E9E"/>
  <line x1="616" y1="296" x2="700" y2="296" stroke="#D14343" stroke-width="1.6"/>
  <text x="540" y="392" text-anchor="middle" font-family="Arial, sans-serif" font-size="15" fill="#5A6B7E">faint low-contrast indication</text>
</svg>
