<svg viewBox="0 0 800 450" xmlns="http://www.w3.org/2000/svg">
  <rect x="0" y="0" width="800" height="450" fill="#FFFFFF"/>
  <text x="400" y="34" text-anchor="middle" font-family="Arial, sans-serif" font-size="22" font-weight="bold" fill="#0A2342">Straight-Beam Standardization: Distance, Then Sensitivity</text>

  <!-- probe and block -->
  <rect x="105" y="75" width="60" height="30" fill="#0A2342"/>
  <rect x="65" y="105" width="140" height="120" fill="#E8F1FB" stroke="#0A2342" stroke-width="2"/>
  <line x1="120" y1="108" x2="120" y2="222" stroke="#1B82E8" stroke-width="2" stroke-dasharray="5 4"/>
  <polygon points="120,225 114,214 126,214" fill="#1B82E8"/>
  <line x1="135" y1="222" x2="135" y2="111" stroke="#1B82E8" stroke-width="2" stroke-dasharray="5 4" stroke-opacity="0.7"/>
  <polygon points="135,108 129,119 141,119" fill="#1B82E8" fill-opacity="0.7"/>
  <line x1="150" y1="108" x2="150" y2="222" stroke="#1B82E8" stroke-width="2" stroke-dasharray="5 4" stroke-opacity="0.4"/>
  <polygon points="150,225 144,214 156,214" fill="#1B82E8" fill-opacity="0.4"/>
  <line x1="218" y1="105" x2="218" y2="225" stroke="#0A2342" stroke-width="2"/>
  <polygon points="218,105 212,117 224,117" fill="#0A2342"/>
  <polygon points="218,225 212,213 224,213" fill="#0A2342"/>
  <text x="228" y="170" font-family="Arial, sans-serif" font-size="16" fill="#0A2342">25 mm</text>

  <text x="60" y="247" font-family="Arial, sans-serif" font-size="16" font-weight="bold" fill="#0A2342">Multiples at 25 / 50 / 75 / 100 mm &#8212; even spacing</text>

  <!-- range screen -->
  <rect x="60" y="258" width="270" height="157" fill="#0A2342"/>
  <line x1="120" y1="263" x2="120" y2="410" stroke="#5A6B7E" stroke-width="0.7"/>
  <line x1="170" y1="263" x2="170" y2="410" stroke="#5A6B7E" stroke-width="0.7"/>
  <line x1="220" y1="263" x2="220" y2="410" stroke="#5A6B7E" stroke-width="0.7"/>
  <line x1="270" y1="263" x2="270" y2="410" stroke="#5A6B7E" stroke-width="0.7"/>
  <polyline points="70,395 72,278 76,395 118,395 120,292 124,395 168,395 170,310 174,395 218,395 220,324 224,395 268,395 270,336 274,395 318,395" fill="none" stroke="#E8F1FB" stroke-width="2"/>
  <text x="120" y="434" text-anchor="middle" font-family="Arial, sans-serif" font-size="16" fill="#0A2342">25</text>
  <text x="170" y="434" text-anchor="middle" font-family="Arial, sans-serif" font-size="16" fill="#0A2342">50</text>
  <text x="220" y="434" text-anchor="middle" font-family="Arial, sans-serif" font-size="16" fill="#0A2342">75</text>
  <text x="272" y="434" text-anchor="middle" font-family="Arial, sans-serif" font-size="16" fill="#0A2342">100 mm</text>

  <!-- DAC screen -->
  <text x="420" y="86" font-family="Arial, sans-serif" font-size="17" font-weight="bold" fill="#0A2342">DAC from SDHs at T/4, T/2, 3T/4</text>
  <rect x="420" y="95" width="350" height="320" fill="#0A2342"/>
  <polyline points="440,395 487,395 490,167 494,395 587,395 590,242 594,395 687,395 690,302 694,395 750,395" fill="none" stroke="#E8F1FB" stroke-width="2"/>
  <polyline points="490,167 590,242 690,302" fill="none" stroke="#F2A33C" stroke-width="3" stroke-dasharray="8 6"/>
  <text x="497" y="155" font-family="Arial, sans-serif" font-size="16" fill="#FFFFFF">80% FSH &#8212; reference gain recorded</text>
  <text x="705" y="290" font-family="Arial, sans-serif" font-size="18" font-weight="bold" fill="#F2A33C">DAC</text>
  <text x="530" y="388" text-anchor="middle" font-family="Arial, sans-serif" font-size="16" fill="#D9E0E8">metal path &#8594;</text>
  <text x="490" y="434" text-anchor="middle" font-family="Arial, sans-serif" font-size="16" fill="#0A2342">T/4</text>
  <text x="590" y="434" text-anchor="middle" font-family="Arial, sans-serif" font-size="16" fill="#0A2342">T/2</text>
  <text x="690" y="434" text-anchor="middle" font-family="Arial, sans-serif" font-size="16" fill="#0A2342">3T/4</text>
</svg>
