<svg viewBox="0 0 800 500" xmlns="http://www.w3.org/2000/svg">
  <rect x="0" y="0" width="800" height="500" fill="#FFFFFF"/>
  <text x="400" y="32" text-anchor="middle" font-family="Arial, sans-serif" font-size="21" font-weight="bold" fill="#0B1F3A">How Each Mode Is Wired</text>

  <!-- panel backgrounds -->
  <rect x="14" y="50" width="248" height="410" rx="8" fill="#9BC4FF" fill-opacity="0.13"/>
  <rect x="276" y="50" width="248" height="410" rx="8" fill="#9BC4FF" fill-opacity="0.13"/>
  <rect x="538" y="50" width="248" height="410" rx="8" fill="#9BC4FF" fill-opacity="0.13"/>

  <!-- ============ PANEL 1: ABSOLUTE ============ -->
  <text x="138" y="78" text-anchor="middle" font-family="Arial, sans-serif" font-size="16" font-weight="bold" fill="#0B1F3A">ABSOLUTE</text>
  <circle cx="138" cy="98" r="13" fill="#FFFFFF" stroke="#0B1F3A" stroke-width="2"/>
  <text x="138" y="104" text-anchor="middle" font-family="Arial, sans-serif" font-size="18" fill="#0B1F3A">~</text>
  <text x="165" y="102" font-family="Arial, sans-serif" font-size="14" fill="#0B1F3A">AC</text>
  <line x1="138" y1="111" x2="138" y2="128" stroke="#0B1F3A" stroke-width="2"/>
  <line x1="138" y1="128" x2="70" y2="200" stroke="#0B1F3A" stroke-width="2"/>
  <line x1="138" y1="128" x2="206" y2="200" stroke="#0B1F3A" stroke-width="2"/>
  <line x1="70" y1="200" x2="138" y2="272" stroke="#0B1F3A" stroke-width="2"/>
  <line x1="206" y1="200" x2="138" y2="272" stroke="#0B1F3A" stroke-width="2"/>
  <circle cx="138" cy="128" r="3" fill="#0B1F3A"/>
  <circle cx="70" cy="200" r="3" fill="#0B1F3A"/>
  <circle cx="206" cy="200" r="3" fill="#0B1F3A"/>
  <circle cx="138" cy="272" r="3" fill="#0B1F3A"/>
  <line x1="138" y1="272" x2="138" y2="294" stroke="#0B1F3A" stroke-width="2"/>
  <line x1="124" y1="294" x2="152" y2="294" stroke="#0B1F3A" stroke-width="2"/>
  <line x1="129" y1="300" x2="147" y2="300" stroke="#0B1F3A" stroke-width="2"/>
  <line x1="134" y1="306" x2="142" y2="306" stroke="#0B1F3A" stroke-width="2"/>
  <g transform="rotate(133.4 104 164)">
    <rect x="88" y="155" width="32" height="18" fill="#FFFFFF" stroke="#0B1F3A" stroke-width="2"/>
  </g>
  <g transform="rotate(46.6 172 164)">
    <rect x="156" y="155" width="32" height="18" fill="#FFFFFF" stroke="#0B1F3A" stroke-width="2"/>
  </g>
  <g transform="rotate(46.6 104 236)">
    <rect x="88" y="227" width="32" height="18" fill="#FFFFFF" stroke="#0B1F3A" stroke-width="2"/>
  </g>
  <g transform="rotate(133.4 172 236)">
    <rect x="156" y="227" width="32" height="18" fill="#FFFFFF" stroke="#1E66F5" stroke-width="2"/>
    <line x1="164" y1="227" x2="164" y2="245" stroke="#1E66F5" stroke-width="1.5"/>
    <line x1="172" y1="227" x2="172" y2="245" stroke="#1E66F5" stroke-width="1.5"/>
    <line x1="180" y1="227" x2="180" y2="245" stroke="#1E66F5" stroke-width="1.5"/>
  </g>
  <text x="78" y="148" text-anchor="middle" font-family="Arial, sans-serif" font-size="14" fill="#0B1F3A">Z&#8321;</text>
  <text x="198" y="148" text-anchor="middle" font-family="Arial, sans-serif" font-size="14" fill="#0B1F3A">Z&#8322;</text>
  <text x="62" y="250" text-anchor="middle" font-family="Arial, sans-serif" font-size="14" fill="#0B1F3A">balance</text>
  <text x="216" y="252" text-anchor="middle" font-family="Arial, sans-serif" font-size="14" fill="#1E66F5">test coil</text>
  <line x1="70" y1="200" x2="125" y2="200" stroke="#0B1F3A" stroke-width="1.5"/>
  <line x1="151" y1="200" x2="206" y2="200" stroke="#0B1F3A" stroke-width="1.5"/>
  <circle cx="138" cy="200" r="13" fill="#FFFFFF" stroke="#0B1F3A" stroke-width="2"/>
  <text x="138" y="205" text-anchor="middle" font-family="Arial, sans-serif" font-size="14" font-weight="bold" fill="#0B1F3A">V</text>
  <text x="138" y="224" text-anchor="middle" font-family="Arial, sans-serif" font-size="14" fill="#0B1F3A">output</text>
  <line x1="178" y1="252" x2="144" y2="356" stroke="#9BC4FF" stroke-width="1.5" stroke-dasharray="4 4"/>
  <rect x="118" y="360" width="40" height="26" fill="#FFFFFF" stroke="#1E66F5" stroke-width="2"/>
  <line x1="128" y1="360" x2="128" y2="386" stroke="#1E66F5" stroke-width="1.5"/>
  <line x1="138" y1="360" x2="138" y2="386" stroke="#1E66F5" stroke-width="1.5"/>
  <line x1="148" y1="360" x2="148" y2="386" stroke="#1E66F5" stroke-width="1.5"/>
  <rect x="48" y="386" width="180" height="30" fill="#9BC4FF" fill-opacity="0.5" stroke="#0B1F3A" stroke-width="1.5"/>
  <ellipse cx="138" cy="401" rx="24" ry="6" fill="none" stroke="#1E66F5" stroke-width="1.5" stroke-dasharray="4 3"/>
  <ellipse cx="138" cy="401" rx="12" ry="3" fill="none" stroke="#1E66F5" stroke-width="1.5" stroke-dasharray="4 3"/>
  <text x="138" y="438" text-anchor="middle" font-family="Arial, sans-serif" font-size="14" fill="#0B1F3A">One coil senses the part &#8212;</text>
  <text x="138" y="456" text-anchor="middle" font-family="Arial, sans-serif" font-size="14" fill="#0B1F3A">output = change vs. fixed reference</text>

  <!-- ============ PANEL 2: DIFFERENTIAL ============ -->
  <text x="400" y="78" text-anchor="middle" font-family="Arial, sans-serif" font-size="16" font-weight="bold" fill="#0B1F3A">DIFFERENTIAL</text>
  <circle cx="400" cy="98" r="13" fill="#FFFFFF" stroke="#0B1F3A" stroke-width="2"/>
  <text x="400" y="104" text-anchor="middle" font-family="Arial, sans-serif" font-size="18" fill="#0B1F3A">~</text>
  <text x="427" y="102" font-family="Arial, sans-serif" font-size="14" fill="#0B1F3A">AC</text>
  <line x1="400" y1="111" x2="400" y2="128" stroke="#0B1F3A" stroke-width="2"/>
  <line x1="400" y1="128" x2="332" y2="200" stroke="#0B1F3A" stroke-width="2"/>
  <line x1="400" y1="128" x2="468" y2="200" stroke="#0B1F3A" stroke-width="2"/>
  <line x1="332" y1="200" x2="400" y2="272" stroke="#0B1F3A" stroke-width="2"/>
  <line x1="468" y1="200" x2="400" y2="272" stroke="#0B1F3A" stroke-width="2"/>
  <circle cx="400" cy="128" r="3" fill="#0B1F3A"/>
  <circle cx="332" cy="200" r="3" fill="#0B1F3A"/>
  <circle cx="468" cy="200" r="3" fill="#0B1F3A"/>
  <circle cx="400" cy="272" r="3" fill="#0B1F3A"/>
  <line x1="400" y1="272" x2="400" y2="294" stroke="#0B1F3A" stroke-width="2"/>
  <line x1="386" y1="294" x2="414" y2="294" stroke="#0B1F3A" stroke-width="2"/>
  <line x1="391" y1="300" x2="409" y2="300" stroke="#0B1F3A" stroke-width="2"/>
  <line x1="396" y1="306" x2="404" y2="306" stroke="#0B1F3A" stroke-width="2"/>
  <g transform="rotate(133.4 366 164)">
    <rect x="350" y="155" width="32" height="18" fill="#FFFFFF" stroke="#0B1F3A" stroke-width="2"/>
  </g>
  <g transform="rotate(46.6 434 164)">
    <rect x="418" y="155" width="32" height="18" fill="#FFFFFF" stroke="#0B1F3A" stroke-width="2"/>
  </g>
  <g transform="rotate(46.6 366 236)">
    <rect x="350" y="227" width="32" height="18" fill="#FFFFFF" stroke="#1E66F5" stroke-width="2"/>
    <line x1="358" y1="227" x2="358" y2="245" stroke="#1E66F5" stroke-width="1.5"/>
    <line x1="366" y1="227" x2="366" y2="245" stroke="#1E66F5" stroke-width="1.5"/>
    <line x1="374" y1="227" x2="374" y2="245" stroke="#1E66F5" stroke-width="1.5"/>
  </g>
  <g transform="rotate(133.4 434 236)">
    <rect x="418" y="227" width="32" height="18" fill="#FFFFFF" stroke="#1E66F5" stroke-width="2"/>
    <line x1="426" y1="227" x2="426" y2="245" stroke="#1E66F5" stroke-width="1.5"/>
    <line x1="434" y1="227" x2="434" y2="245" stroke="#1E66F5" stroke-width="1.5"/>
    <line x1="442" y1="227" x2="442" y2="245" stroke="#1E66F5" stroke-width="1.5"/>
  </g>
  <text x="340" y="148" text-anchor="middle" font-family="Arial, sans-serif" font-size="14" fill="#0B1F3A">Z&#8321;</text>
  <text x="460" y="148" text-anchor="middle" font-family="Arial, sans-serif" font-size="14" fill="#0B1F3A">Z&#8322;</text>
  <text x="324" y="252" text-anchor="middle" font-family="Arial, sans-serif" font-size="14" fill="#1E66F5">coil 1</text>
  <text x="478" y="252" text-anchor="middle" font-family="Arial, sans-serif" font-size="14" fill="#1E66F5">coil 2</text>
  <line x1="332" y1="200" x2="387" y2="200" stroke="#0B1F3A" stroke-width="1.5"/>
  <line x1="413" y1="200" x2="468" y2="200" stroke="#0B1F3A" stroke-width="1.5"/>
  <circle cx="400" cy="200" r="13" fill="#FFFFFF" stroke="#0B1F3A" stroke-width="2"/>
  <text x="400" y="205" text-anchor="middle" font-family="Arial, sans-serif" font-size="14" font-weight="bold" fill="#0B1F3A">V</text>
  <text x="400" y="224" text-anchor="middle" font-family="Arial, sans-serif" font-size="14" fill="#0B1F3A">output</text>
  <text x="400" y="324" text-anchor="middle" font-family="Arial, sans-serif" font-size="14" fill="#0B1F3A">wound in opposition</text>
  <line x1="370" y1="252" x2="370" y2="356" stroke="#9BC4FF" stroke-width="1.5" stroke-dasharray="4 4"/>
  <line x1="434" y1="252" x2="430" y2="356" stroke="#9BC4FF" stroke-width="1.5" stroke-dasharray="4 4"/>
  <text x="370" y="354" text-anchor="middle" font-family="Arial, sans-serif" font-size="14" font-weight="bold" fill="#0B1F3A">1</text>
  <text x="430" y="354" text-anchor="middle" font-family="Arial, sans-serif" font-size="14" font-weight="bold" fill="#0B1F3A">2</text>
  <rect x="354" y="360" width="32" height="24" fill="#FFFFFF" stroke="#1E66F5" stroke-width="2"/>
  <line x1="362" y1="360" x2="362" y2="384" stroke="#1E66F5" stroke-width="1.5"/>
  <line x1="370" y1="360" x2="370" y2="384" stroke="#1E66F5" stroke-width="1.5"/>
  <line x1="378" y1="360" x2="378" y2="384" stroke="#1E66F5" stroke-width="1.5"/>
  <rect x="414" y="360" width="32" height="24" fill="#FFFFFF" stroke="#1E66F5" stroke-width="2"/>
  <line x1="422" y1="360" x2="422" y2="384" stroke="#1E66F5" stroke-width="1.5"/>
  <line x1="430" y1="360" x2="430" y2="384" stroke="#1E66F5" stroke-width="1.5"/>
  <line x1="438" y1="360" x2="438" y2="384" stroke="#1E66F5" stroke-width="1.5"/>
  <rect x="310" y="386" width="180" height="30" fill="#9BC4FF" fill-opacity="0.5" stroke="#0B1F3A" stroke-width="1.5"/>
  <ellipse cx="370" cy="401" rx="16" ry="5" fill="none" stroke="#1E66F5" stroke-width="1.5" stroke-dasharray="4 3"/>
  <ellipse cx="430" cy="401" rx="16" ry="5" fill="none" stroke="#1E66F5" stroke-width="1.5" stroke-dasharray="4 3"/>
  <text x="400" y="438" text-anchor="middle" font-family="Arial, sans-serif" font-size="14" fill="#0B1F3A">Identical material under both &#8594; null.</text>
  <text x="400" y="456" text-anchor="middle" font-family="Arial, sans-serif" font-size="14" fill="#0B1F3A">Only differences register.</text>

  <!-- ============ PANEL 3: HYBRID ============ -->
  <text x="662" y="78" text-anchor="middle" font-family="Arial, sans-serif" font-size="16" font-weight="bold" fill="#0B1F3A">HYBRID (DRIVER&#8211;PICKUP)</text>
  <text x="734" y="128" text-anchor="middle" font-family="Arial, sans-serif" font-size="14" fill="#0B1F3A">to instrument</text>
  <polygon points="722,166 746,166 734,140" fill="#FFFFFF" stroke="#0B1F3A" stroke-width="2"/>
  <path d="M 696 259 L 734 259 L 734 166" fill="none" stroke="#0B1F3A" stroke-width="1.5"/>
  <circle cx="570" cy="225" r="13" fill="#FFFFFF" stroke="#0B1F3A" stroke-width="2"/>
  <text x="570" y="231" text-anchor="middle" font-family="Arial, sans-serif" font-size="18" fill="#0B1F3A">~</text>
  <text x="570" y="256" text-anchor="middle" font-family="Arial, sans-serif" font-size="14" fill="#0B1F3A">osc</text>
  <line x1="583" y1="225" x2="600" y2="225" stroke="#0B1F3A" stroke-width="1.5"/>
  <text x="662" y="200" text-anchor="middle" font-family="Arial, sans-serif" font-size="14" fill="#1E66F5">driver coil &#8212; excites</text>
  <rect x="600" y="210" width="124" height="30" fill="#FFFFFF" stroke="#1E66F5" stroke-width="2.5"/>
  <line x1="618" y1="210" x2="618" y2="240" stroke="#1E66F5" stroke-width="1.5"/>
  <line x1="642" y1="210" x2="642" y2="240" stroke="#1E66F5" stroke-width="1.5"/>
  <line x1="666" y1="210" x2="666" y2="240" stroke="#1E66F5" stroke-width="1.5"/>
  <line x1="690" y1="210" x2="690" y2="240" stroke="#1E66F5" stroke-width="1.5"/>
  <line x1="714" y1="210" x2="714" y2="240" stroke="#1E66F5" stroke-width="1.5"/>
  <rect x="628" y="250" width="28" height="18" fill="#FFFFFF" stroke="#0B1F3A" stroke-width="2"/>
  <line x1="635" y1="250" x2="635" y2="268" stroke="#0B1F3A" stroke-width="1.5"/>
  <line x1="642" y1="250" x2="642" y2="268" stroke="#0B1F3A" stroke-width="1.5"/>
  <line x1="649" y1="250" x2="649" y2="268" stroke="#0B1F3A" stroke-width="1.5"/>
  <rect x="668" y="250" width="28" height="18" fill="#FFFFFF" stroke="#0B1F3A" stroke-width="2"/>
  <line x1="675" y1="250" x2="675" y2="268" stroke="#0B1F3A" stroke-width="1.5"/>
  <line x1="682" y1="250" x2="682" y2="268" stroke="#0B1F3A" stroke-width="1.5"/>
  <line x1="689" y1="250" x2="689" y2="268" stroke="#0B1F3A" stroke-width="1.5"/>
  <text x="662" y="288" text-anchor="middle" font-family="Arial, sans-serif" font-size="14" fill="#0B1F3A">pickup pair &#8212; senses</text>
  <line x1="620" y1="242" x2="620" y2="296" stroke="#9BC4FF" stroke-width="2" stroke-dasharray="4 4"/>
  <line x1="704" y1="242" x2="704" y2="296" stroke="#9BC4FF" stroke-width="2" stroke-dasharray="4 4"/>
  <rect x="556" y="300" width="212" height="28" fill="#9BC4FF" fill-opacity="0.5" stroke="#0B1F3A" stroke-width="1.5"/>
  <ellipse cx="662" cy="314" rx="36" ry="6" fill="none" stroke="#1E66F5" stroke-width="1.5" stroke-dasharray="4 3"/>
  <text x="662" y="356" text-anchor="middle" font-family="Arial, sans-serif" font-size="14" font-weight="bold" fill="#0B1F3A">Through-transmission:</text>
  <rect x="634" y="366" width="56" height="12" fill="#FFFFFF" stroke="#1E66F5" stroke-width="2"/>
  <rect x="586" y="384" width="152" height="10" fill="#9BC4FF" fill-opacity="0.6" stroke="#0B1F3A" stroke-width="1.5"/>
  <rect x="634" y="400" width="56" height="12" fill="#FFFFFF" stroke="#0B1F3A" stroke-width="2"/>
  <text x="700" y="376" font-family="Arial, sans-serif" font-size="14" fill="#1E66F5">driver</text>
  <text x="700" y="411" font-family="Arial, sans-serif" font-size="14" fill="#0B1F3A">pickup</text>
  <line x1="610" y1="368" x2="610" y2="401" stroke="#1E66F5" stroke-width="2"/>
  <polygon points="610,410 604,401 616,401" fill="#1E66F5"/>
  <text x="662" y="438" text-anchor="middle" font-family="Arial, sans-serif" font-size="14" fill="#0B1F3A">Drive and sense are separate &#8212;</text>
  <text x="662" y="456" text-anchor="middle" font-family="Arial, sans-serif" font-size="14" fill="#0B1F3A">pickup induced voltage is read.</text>

  <text x="400" y="484" text-anchor="middle" font-family="Arial, sans-serif" font-size="14" fill="#0B1F3A">Any coil arrangement &#8212; surface, encircling, or bobbin &#8212; can be wired in any of these modes.</text>
</svg>
