<svg viewBox="0 0 800 500" xmlns="http://www.w3.org/2000/svg">
  <rect x="0" y="0" width="800" height="500" fill="#FFFFFF"/>
  <text x="400" y="28" text-anchor="middle" font-family="Arial, sans-serif" font-size="22" font-weight="bold" fill="#0B1F3A">One Scan, Four Filter States</text>

  <!-- panel 1: 1 &#183; RAW &#8212; filters open -->
  <rect x="30" y="56" width="590" height="92" rx="6" fill="#9BC4FF" fill-opacity="0.08" stroke="#0B1F3A" stroke-width="1.5"/>
  <line x1="38" y1="122" x2="612" y2="122" stroke="#9BC4FF" stroke-width="1.5" stroke-dasharray="5 4"/>
  <path d="M 38 124 L 39 126 L 40 124.6 L 41 118.7 L 42 122.6 L 43 119.5 L 44 118.8 L 45 123.7 L 46 125.7 L 47 125.5 L 48 117.7 L 49 120.6 L 50 121.1 L 51 119.3 L 52 123.4 L 53 124.8 L 54 126.1 L 55 117.8 L 56 118.3 L 57 122 L 58 120.4 L 59 123.3 L 60 123.5 L 61 125.9 L 62 118.8 L 63 116.3 L 64 122.1 L 65 121.6 L 66 123.7 L 67 122.3 L 68 124.8 L 69 120.2 L 70 115.1 L 71 121.5 L 72 122.7 L 73 124.3 L 74 121.5 L 75 122.8 L 76 121.5 L 77 114.9 L 78 120.5 L 79 123.3 L 80 125 L 81 121.4 L 82 120.4 L 83 122.2 L 84 115.7 L 85 119.5 L 86 123.3 L 87 125.4 L 88 121.9 L 89 118 L 90 121.9 L 91 117.2 L 92 119 L 93 123 L 94 125.2 L 95 122.9 L 96 116.2 L 97 120.7 L 98 118.8 L 99 119 L 100 122.6 L 101 124.3 L 102 123.8 L 103 115.4 L 104 118.7 L 105 120.2 L 106 119.6 L 107 122.3 L 108 122.9 L 109 124.3 L 110 115.6 L 111 116.6 L 112 121 L 113 120.6 L 114 122.4 L 115 121.3 L 116 123.8 L 117 116.8 L 118 114.9 L 119 121 L 120 121.5 L 121 122.9 L 122 119.8 L 123 122.4 L 124 118.2 L 125 114 L 126 120.4 L 127 122.1 L 128 123.6 L 129 119 L 130 120.2 L 131 119.5 L 132 114 L 133 119.5 L 134 122.3 L 135 124.1 L 136 118.9 L 137 117.6 L 138 120.2 L 139 115 L 140 118.8 L 141 121.9 L 142 124.2 L 143 119.6 L 144 115.2 L 145 119.8 L 146 116.5 L 147 118.6 L 148 121.4 L 149 123.6 L 150 120.6 L 151 113.6 L 152 118.6 L 153 118 L 154 118.8 L 155 120.8 L 156 122.2 L 157 121.5 L 158 113 L 159 116.8 L 160 119.2 L 161 119.5 L 162 120.6 L 163 120.4 L 164 121.9 L 165 113.4 L 166 115 L 167 119.7 L 168 120.3 L 169 120.9 L 170 118.4 L 171 121.3 L 172 114.7 L 173 113.6 L 174 119.6 L 175 120.9 L 176 121.5 L 177 116.8 L 178 119.7 L 179 116.3 L 180 113 L 181 119.1 L 182 121.1 L 183 122.2 L 184 116 L 185 117.3 L 186 117.6 L 187 113.3 L 188 118.4 L 189 120.8 L 190 122.7 L 191 116.1 L 192 114.7 L 193 118.1 L 194 114.4 L 195 118 L 196 120 L 197 122.4 L 198 116.9 L 199 112.5 L 200 117.8 L 201 115.8 L 202 118 L 203 119.2 L 204 121.4 L 205 118 L 206 111 L 207 116.6 L 208 117.1 L 209 118.4 L 210 118.6 L 211 119.6 L 212 119 L 213 110.7 L 214 115 L 215 118 L 216 119.1 L 217 118.5 L 218 117.4 L 219 119.2 L 220 111.4 L 221 113.5 L 222 118.3 L 223 119.7 L 224 118.9 L 225 115.2 L 226 118.5 L 227 112.8 L 228 112.4 L 229 118.1 L 230 119.9 L 231 119.6 L 232 113.6 L 233 116.8 L 234 114.4 L 235 112.2 L 236 117.6 L 237 119.6 L 238 120.4 L 239 112.9 L 240 114.4 L 241 115.6 L 242 112.7 L 243 117.1 L 244 118.7 L 245 120.6 L 246 113.1 L 247 111.9 L 248 116.1 L 249 113.8 L 250 116.9 L 251 117.6 L 252 120.1 L 253 114.1 L 254 109.9 L 255 115.7 L 256 115.1 L 257 117.1 L 258 116.6 L 259 118.7 L 260 115.3 L 261 108.7 L 262 114.7 L 263 116.1 L 264 117.7 L 265 116 L 266 116.6 L 267 116.3 L 268 108.7 L 269 113.3 L 270 116.7 L 271 118.3 L 272 116 L 273 114.1 L 274 116.5 L 275 109.6 L 276 112.1 L 277 116.7 L 278 118.6 L 279 116.5 L 280 111.8 L 281 115.6 L 282 111.1 L 283 111.5 L 284 116.3 L 285 118.4 L 286 117.3 L 287 110.2 L 288 113.9 L 289 112.7 L 290 111.5 L 291 115.8 L 292 117.5 L 293 118 L 294 109.7 L 295 111.6 L 296 113.8 L 297 112.2 L 298 115.5 L 299 116.2 L 300 118.1 L 301 110.1 L 302 109.3 L 303 114.2 L 304 113.2 L 305 115.5 L 306 114.7 L 307 117.3 L 308 111.2 L 309 107.5 L 310 113.7 L 311 114 L 312 115.7 L 313 113.2 L 314 115 L 315 111.7 L 316 105.5 L 317 111.1 L 318 112.5 L 319 113.3 L 320 108.7 L 321 107.7 L 322 106.5 L 323 98 L 324 100.7 L 325 101.6 L 326 100.9 L 327 94 L 328 88.5 L 329 88.5 L 330 79.8 L 331 79.7 L 332 80.9 L 333 80.8 L 334 75.7 L 335 69.1 L 336 72.9 L 337 69.7 L 338 71.3 L 339 76.3 L 340 80.2 L 341 80.9 L 342 75.8 L 343 83 L 344 86 L 345 88.9 L 346 94.8 L 347 98.9 L 348 102 L 349 95.6 L 350 100.2 L 351 105 L 352 106.1 L 353 109.4 L 354 110.1 L 355 113 L 356 105.5 L 357 105.7 L 358 111.4 L 359 111.8 L 360 113.4 L 361 111.2 L 362 114.1 L 363 108.4 L 364 105.5 L 365 111.9 L 366 113.1 L 367 114.4 L 368 110.2 L 369 112.3 L 370 109.9 L 371 105 L 372 111.1 L 373 113.4 L 374 115 L 375 109.7 L 376 109.8 L 377 110.9 L 378 105.5 L 379 110.2 L 380 113.1 L 381 115.2 L 382 109.9 L 383 107.2 L 384 111 L 385 106.7 L 386 109.7 L 387 112.5 L 388 114.9 L 389 110.8 L 390 105 L 391 110.1 L 392 108.2 L 393 109.6 L 394 111.8 L 395 113.7 L 396 111.8 L 397 103.8 L 398 108.5 L 399 109.5 L 400 110.1 L 401 111.4 L 402 112 L 403 112.4 L 404 103.7 L 405 106.6 L 406 110.3 L 407 110.8 L 408 111.3 L 409 109.9 L 410 112.2 L 411 104.6 L 412 104.9 L 413 110.4 L 414 111.4 L 415 111.7 L 416 108 L 417 111 L 418 106 L 419 103.8 L 420 110 L 421 111.7 L 422 112.4 L 423 106.7 L 424 109 L 425 107.4 L 426 103.7 L 427 109.3 L 428 111.5 L 429 113 L 430 106.2 L 431 106.4 L 432 108.3 L 433 104.4 L 434 108.7 L 435 110.8 L 436 113 L 437 106.6 L 438 103.8 L 439 108.4 L 440 105.6 L 441 108.4 L 442 109.9 L 443 112.3 L 444 107.6 L 445 101.8 L 446 107.6 L 447 106.9 L 448 108.6 L 449 109.1 L 450 110.8 L 451 108.7 L 452 100.9 L 453 106.1 L 454 108 L 455 109.1 L 456 108.6 L 457 108.6 L 458 109.3 L 459 101.1 L 460 104.5 L 461 108.5 L 462 109.7 L 463 108.7 L 464 106.2 L 465 109 L 466 102.1 L 467 103.1 L 468 108.4 L 469 110.1 L 470 109.3 L 471 104.2 L 472 107.7 L 473 103.7 L 474 102.4 L 475 107.9 L 476 109.9 L 477 110 L 478 103 L 479 105.6 L 480 105.1 L 481 102.5 L 482 107.3 L 483 109.2 L 484 110.5 L 485 102.7 L 486 103 L 487 105.9 L 488 103.3 L 489 107 L 490 108.1 L 491 110.3 L 492 103.3 L 493 100.7 L 494 105.9 L 495 104.5 L 496 107 L 497 106.9 L 498 109.3 L 499 104.4 L 500 99 L 501 105.2 L 502 105.6 L 503 107.3 L 504 105.9 L 505 107.4 L 506 105.5 L 507 98.4 L 508 103.9 L 509 106.3 L 510 107.9 L 511 105.5 L 512 104.9 L 513 106.1 L 514 98.8 L 515 102.5 L 516 106.5 L 517 108.3 L 518 105.8 L 519 102.4 L 520 105.8 L 521 100 L 522 101.6 L 523 106.3 L 524 108.3 L 525 106.5 L 526 100.4 L 527 104.4 L 528 101.6 L 529 101.2 L 530 105.7 L 531 107.6 L 532 107.3 L 533 99.3 L 534 102.3 L 535 102.9 L 536 101.5 L 537 105.2 L 538 106.4 L 539 107.7 L 540 99.2 L 541 99.9 L 542 103.7 L 543 102.4 L 544 105 L 545 104.9 L 546 107.3 L 547 100 L 548 97.8 L 549 103.6 L 550 103.4 L 551 105.3 L 552 103.5 L 553 106 L 554 101.3 L 555 96.5 L 556 102.9 L 557 104.2 L 558 105.8 L 559 102.5 L 560 103.8 L 561 102.4 L 562 96.2 L 563 101.8 L 564 104.5 L 565 106.3 L 566 102.2 L 567 101.2 L 568 103 L 569 96.8 L 570 100.8 L 571 104.4 L 572 106.5 L 573 102.6 L 574 98.6 L 575 102.6 L 576 98.2 L 577 100.1 L 578 103.8 L 579 106 L 580 103.4 L 581 96.7 L 582 101.3 L 583 99.7 L 584 100.1 L 585 103.2 L 586 104.9 L 587 104.2 L 588 95.7 L 589 99.3 L 590 100.9 L 591 100.6 L 592 102.8 L 593 103.2 L 594 104.5 L 595 95.9 L 596 97.1 L 597 101.5 L 598 101.4 L 599 102.8 L 600 101.4 L 601 104 L 602 96.9 L 603 95.3 L 604 101.4 L 605 102.1 L 606 103.2 L 607 99.7 L 608 102.4 L 609 98.3 L 610 94.4 L 611 100.7 L 612 102.5" fill="none" stroke="#1E66F5" stroke-width="1.6"/>
  <text x="38" y="76" font-family="Arial, sans-serif" font-size="14" font-weight="bold" fill="#0B1F3A">1 &#183; RAW &#8212; filters open</text>
  <text x="632" y="96" font-family="Arial, sans-serif" font-size="14" fill="#0B1F3A">contains drift,</text>
  <text x="632" y="114" font-family="Arial, sans-serif" font-size="14" fill="#0B1F3A">flaw, and noise</text>


  <!-- panel 2: 2 &#183; LOW-PASS only -->
  <rect x="30" y="160" width="590" height="92" rx="6" fill="#9BC4FF" fill-opacity="0.08" stroke="#0B1F3A" stroke-width="1.5"/>
  <line x1="38" y1="226" x2="612" y2="226" stroke="#9BC4FF" stroke-width="1.5" stroke-dasharray="5 4"/>
  <path d="M 38 226 L 39 226 L 40 226 L 41 226 L 42 226 L 43 225.9 L 44 225.9 L 45 225.9 L 46 225.9 L 47 225.9 L 48 225.9 L 49 225.8 L 50 225.8 L 51 225.8 L 52 225.8 L 53 225.8 L 54 225.7 L 55 225.7 L 56 225.7 L 57 225.7 L 58 225.7 L 59 225.6 L 60 225.6 L 61 225.6 L 62 225.6 L 63 225.6 L 64 225.5 L 65 225.5 L 66 225.5 L 67 225.5 L 68 225.5 L 69 225.4 L 70 225.4 L 71 225.4 L 72 225.4 L 73 225.3 L 74 225.3 L 75 225.3 L 76 225.3 L 77 225.2 L 78 225.2 L 79 225.2 L 80 225.2 L 81 225.1 L 82 225.1 L 83 225.1 L 84 225.1 L 85 225 L 86 225 L 87 225 L 88 225 L 89 224.9 L 90 224.9 L 91 224.9 L 92 224.9 L 93 224.8 L 94 224.8 L 95 224.8 L 96 224.7 L 97 224.7 L 98 224.7 L 99 224.7 L 100 224.6 L 101 224.6 L 102 224.6 L 103 224.6 L 104 224.5 L 105 224.5 L 106 224.5 L 107 224.4 L 108 224.4 L 109 224.4 L 110 224.4 L 111 224.3 L 112 224.3 L 113 224.3 L 114 224.2 L 115 224.2 L 116 224.2 L 117 224.2 L 118 224.1 L 119 224.1 L 120 224.1 L 121 224 L 122 224 L 123 224 L 124 223.9 L 125 223.9 L 126 223.9 L 127 223.9 L 128 223.8 L 129 223.8 L 130 223.8 L 131 223.7 L 132 223.7 L 133 223.7 L 134 223.6 L 135 223.6 L 136 223.6 L 137 223.6 L 138 223.5 L 139 223.5 L 140 223.5 L 141 223.4 L 142 223.4 L 143 223.4 L 144 223.3 L 145 223.3 L 146 223.3 L 147 223.2 L 148 223.2 L 149 223.2 L 150 223.1 L 151 223.1 L 152 223.1 L 153 223.1 L 154 223 L 155 223 L 156 223 L 157 222.9 L 158 222.9 L 159 222.9 L 160 222.8 L 161 222.8 L 162 222.8 L 163 222.7 L 164 222.7 L 165 222.7 L 166 222.6 L 167 222.6 L 168 222.6 L 169 222.5 L 170 222.5 L 171 222.5 L 172 222.4 L 173 222.4 L 174 222.4 L 175 222.3 L 176 222.3 L 177 222.3 L 178 222.2 L 179 222.2 L 180 222.2 L 181 222.1 L 182 222.1 L 183 222.1 L 184 222 L 185 222 L 186 222 L 187 221.9 L 188 221.9 L 189 221.9 L 190 221.8 L 191 221.8 L 192 221.8 L 193 221.7 L 194 221.7 L 195 221.6 L 196 221.6 L 197 221.6 L 198 221.5 L 199 221.5 L 200 221.5 L 201 221.4 L 202 221.4 L 203 221.4 L 204 221.3 L 205 221.3 L 206 221.3 L 207 221.2 L 208 221.2 L 209 221.2 L 210 221.1 L 211 221.1 L 212 221.1 L 213 221 L 214 221 L 215 220.9 L 216 220.9 L 217 220.9 L 218 220.8 L 219 220.8 L 220 220.8 L 221 220.7 L 222 220.7 L 223 220.7 L 224 220.6 L 225 220.6 L 226 220.5 L 227 220.5 L 228 220.5 L 229 220.4 L 230 220.4 L 231 220.4 L 232 220.3 L 233 220.3 L 234 220.3 L 235 220.2 L 236 220.2 L 237 220.1 L 238 220.1 L 239 220.1 L 240 220 L 241 220 L 242 220 L 243 219.9 L 244 219.9 L 245 219.9 L 246 219.8 L 247 219.8 L 248 219.7 L 249 219.7 L 250 219.7 L 251 219.6 L 252 219.6 L 253 219.6 L 254 219.5 L 255 219.5 L 256 219.4 L 257 219.4 L 258 219.4 L 259 219.3 L 260 219.3 L 261 219.3 L 262 219.2 L 263 219.2 L 264 219.1 L 265 219.1 L 266 219.1 L 267 219 L 268 219 L 269 218.9 L 270 218.9 L 271 218.9 L 272 218.8 L 273 218.8 L 274 218.8 L 275 218.7 L 276 218.7 L 277 218.6 L 278 218.6 L 279 218.6 L 280 218.5 L 281 218.5 L 282 218.4 L 283 218.4 L 284 218.4 L 285 218.3 L 286 218.3 L 287 218.3 L 288 218.2 L 289 218.2 L 290 218.1 L 291 218.1 L 292 218 L 293 218 L 294 218 L 295 217.9 L 296 217.8 L 297 217.8 L 298 217.7 L 299 217.6 L 300 217.5 L 301 217.4 L 302 217.3 L 303 217.2 L 304 217 L 305 216.8 L 306 216.6 L 307 216.3 L 308 215.9 L 309 215.5 L 310 215 L 311 214.5 L 312 213.8 L 313 213.1 L 314 212.2 L 315 211.2 L 316 210.1 L 317 208.9 L 318 207.5 L 319 206.1 L 320 204.5 L 321 202.8 L 322 201 L 323 199.1 L 324 197.2 L 325 195.2 L 326 193.3 L 327 191.3 L 328 189.4 L 329 187.7 L 330 186 L 331 184.5 L 332 183.2 L 333 182.1 L 334 181.2 L 335 180.7 L 336 180.3 L 337 180.3 L 338 180.5 L 339 181.1 L 340 181.8 L 341 182.9 L 342 184.1 L 343 185.5 L 344 187.1 L 345 188.8 L 346 190.6 L 347 192.5 L 348 194.4 L 349 196.3 L 350 198.1 L 351 199.9 L 352 201.6 L 353 203.2 L 354 204.7 L 355 206.1 L 356 207.4 L 357 208.5 L 358 209.5 L 359 210.4 L 360 211.2 L 361 211.8 L 362 212.4 L 363 212.9 L 364 213.3 L 365 213.6 L 366 213.9 L 367 214.1 L 368 214.2 L 369 214.4 L 370 214.5 L 371 214.5 L 372 214.6 L 373 214.6 L 374 214.6 L 375 214.6 L 376 214.6 L 377 214.6 L 378 214.5 L 379 214.5 L 380 214.5 L 381 214.4 L 382 214.4 L 383 214.3 L 384 214.3 L 385 214.3 L 386 214.2 L 387 214.2 L 388 214.1 L 389 214.1 L 390 214.1 L 391 214 L 392 214 L 393 213.9 L 394 213.9 L 395 213.8 L 396 213.8 L 397 213.8 L 398 213.7 L 399 213.7 L 400 213.6 L 401 213.6 L 402 213.6 L 403 213.5 L 404 213.5 L 405 213.4 L 406 213.4 L 407 213.3 L 408 213.3 L 409 213.3 L 410 213.2 L 411 213.2 L 412 213.1 L 413 213.1 L 414 213 L 415 213 L 416 212.9 L 417 212.9 L 418 212.9 L 419 212.8 L 420 212.8 L 421 212.7 L 422 212.7 L 423 212.6 L 424 212.6 L 425 212.6 L 426 212.5 L 427 212.5 L 428 212.4 L 429 212.4 L 430 212.3 L 431 212.3 L 432 212.3 L 433 212.2 L 434 212.2 L 435 212.1 L 436 212.1 L 437 212 L 438 212 L 439 211.9 L 440 211.9 L 441 211.9 L 442 211.8 L 443 211.8 L 444 211.7 L 445 211.7 L 446 211.6 L 447 211.6 L 448 211.6 L 449 211.5 L 450 211.5 L 451 211.4 L 452 211.4 L 453 211.3 L 454 211.3 L 455 211.2 L 456 211.2 L 457 211.2 L 458 211.1 L 459 211.1 L 460 211 L 461 211 L 462 210.9 L 463 210.9 L 464 210.8 L 465 210.8 L 466 210.8 L 467 210.7 L 468 210.7 L 469 210.6 L 470 210.6 L 471 210.5 L 472 210.5 L 473 210.4 L 474 210.4 L 475 210.4 L 476 210.3 L 477 210.3 L 478 210.2 L 479 210.2 L 480 210.1 L 481 210.1 L 482 210 L 483 210 L 484 210 L 485 209.9 L 486 209.9 L 487 209.8 L 488 209.8 L 489 209.7 L 490 209.7 L 491 209.6 L 492 209.6 L 493 209.5 L 494 209.5 L 495 209.5 L 496 209.4 L 497 209.4 L 498 209.3 L 499 209.3 L 500 209.2 L 501 209.2 L 502 209.1 L 503 209.1 L 504 209 L 505 209 L 506 209 L 507 208.9 L 508 208.9 L 509 208.8 L 510 208.8 L 511 208.7 L 512 208.7 L 513 208.6 L 514 208.6 L 515 208.5 L 516 208.5 L 517 208.5 L 518 208.4 L 519 208.4 L 520 208.3 L 521 208.3 L 522 208.2 L 523 208.2 L 524 208.1 L 525 208.1 L 526 208 L 527 208 L 528 207.9 L 529 207.9 L 530 207.9 L 531 207.8 L 532 207.8 L 533 207.7 L 534 207.7 L 535 207.6 L 536 207.6 L 537 207.5 L 538 207.5 L 539 207.4 L 540 207.4 L 541 207.3 L 542 207.3 L 543 207.3 L 544 207.2 L 545 207.2 L 546 207.1 L 547 207.1 L 548 207 L 549 207 L 550 206.9 L 551 206.9 L 552 206.8 L 553 206.8 L 554 206.7 L 555 206.7 L 556 206.6 L 557 206.6 L 558 206.6 L 559 206.5 L 560 206.5 L 561 206.4 L 562 206.4 L 563 206.3 L 564 206.3 L 565 206.2 L 566 206.2 L 567 206.1 L 568 206.1 L 569 206 L 570 206 L 571 205.9 L 572 205.9 L 573 205.9 L 574 205.8 L 575 205.8 L 576 205.7 L 577 205.7 L 578 205.6 L 579 205.6 L 580 205.5 L 581 205.5 L 582 205.4 L 583 205.4 L 584 205.3 L 585 205.3 L 586 205.2 L 587 205.2 L 588 205.1 L 589 205.1 L 590 205 L 591 205 L 592 205 L 593 204.9 L 594 204.9 L 595 204.8 L 596 204.8 L 597 204.7 L 598 204.7 L 599 204.6 L 600 204.6 L 601 204.5 L 602 204.5 L 603 204.4 L 604 204.4 L 605 204.3 L 606 204.3 L 607 204.2 L 608 204.2 L 609 204.1 L 610 204.1 L 611 204 L 612 204" fill="none" stroke="#1E66F5" stroke-width="2.4"/>
  <text x="38" y="180" font-family="Arial, sans-serif" font-size="14" font-weight="bold" fill="#0B1F3A">2 &#183; LOW-PASS only</text>
  <text x="632" y="200" font-family="Arial, sans-serif" font-size="14" fill="#0B1F3A">noise removed &#8212;</text>
  <text x="632" y="218" font-family="Arial, sans-serif" font-size="14" fill="#0B1F3A">drift remains</text>


  <!-- panel 3: 3 &#183; HIGH-PASS only -->
  <rect x="30" y="264" width="590" height="92" rx="6" fill="#9BC4FF" fill-opacity="0.08" stroke="#0B1F3A" stroke-width="1.5"/>
  <line x1="38" y1="330" x2="612" y2="330" stroke="#9BC4FF" stroke-width="1.5" stroke-dasharray="5 4"/>
  <path d="M 38 332 L 39 334 L 40 332.6 L 41 326.7 L 42 330.6 L 43 327.6 L 44 326.9 L 45 331.8 L 46 333.8 L 47 333.7 L 48 325.9 L 49 328.8 L 50 329.2 L 51 327.5 L 52 331.6 L 53 333 L 54 334.4 L 55 326.1 L 56 326.6 L 57 330.3 L 58 328.7 L 59 331.7 L 60 331.9 L 61 334.3 L 62 327.2 L 63 324.8 L 64 330.6 L 65 330.1 L 66 332.2 L 67 330.9 L 68 333.4 L 69 328.8 L 70 323.7 L 71 330.1 L 72 331.3 L 73 333 L 74 330.2 L 75 331.6 L 76 330.2 L 77 323.7 L 78 329.3 L 79 332.1 L 80 333.9 L 81 330.3 L 82 329.3 L 83 331.1 L 84 324.6 L 85 328.5 L 86 332.3 L 87 334.4 L 88 331 L 89 327.1 L 90 331 L 91 326.3 L 92 328.1 L 93 332.2 L 94 334.4 L 95 332.1 L 96 325.5 L 97 329.9 L 98 328.1 L 99 328.3 L 100 331.9 L 101 333.7 L 102 333.2 L 103 324.8 L 104 328.2 L 105 329.7 L 106 329.1 L 107 331.8 L 108 332.5 L 109 333.9 L 110 325.3 L 111 326.3 L 112 330.7 L 113 330.3 L 114 332.1 L 115 331 L 116 333.6 L 117 326.6 L 118 324.8 L 119 330.9 L 120 331.4 L 121 332.8 L 122 329.8 L 123 332.4 L 124 328.3 L 125 324.1 L 126 330.5 L 127 332.3 L 128 333.7 L 129 329.2 L 130 330.4 L 131 329.8 L 132 324.3 L 133 329.9 L 134 332.6 L 135 334.5 L 136 329.3 L 137 328.1 L 138 330.6 L 139 325.5 L 140 329.4 L 141 332.5 L 142 334.8 L 143 330.2 L 144 325.9 L 145 330.5 L 146 327.2 L 147 329.3 L 148 332.1 L 149 334.4 L 150 331.5 L 151 324.4 L 152 329.5 L 153 329 L 154 329.8 L 155 331.8 L 156 333.3 L 157 332.6 L 158 324.1 L 159 328 L 160 330.4 L 161 330.7 L 162 331.9 L 163 331.6 L 164 333.2 L 165 324.8 L 166 326.3 L 167 331.1 L 168 331.8 L 169 332.4 L 170 329.9 L 171 332.8 L 172 326.3 L 173 325.2 L 174 331.3 L 175 332.6 L 176 333.2 L 177 328.6 L 178 331.4 L 179 328.1 L 180 324.8 L 181 330.9 L 182 333 L 183 334.2 L 184 328 L 185 329.3 L 186 329.6 L 187 325.4 L 188 330.5 L 189 332.9 L 190 334.8 L 191 328.3 L 192 327 L 193 330.4 L 194 326.7 L 195 330.3 L 196 332.4 L 197 334.9 L 198 329.4 L 199 324.9 L 200 330.3 L 201 328.4 L 202 330.6 L 203 331.8 L 204 334.1 L 205 330.7 L 206 323.8 L 207 329.4 L 208 329.9 L 209 331.3 L 210 331.5 L 211 332.5 L 212 331.9 L 213 323.7 L 214 328 L 215 331.1 L 216 332.2 L 217 331.6 L 218 330.5 L 219 332.4 L 220 324.6 L 221 326.7 L 222 331.6 L 223 333 L 224 332.3 L 225 328.6 L 226 332 L 227 326.3 L 228 326 L 229 331.6 L 230 333.5 L 231 333.3 L 232 327.3 L 233 330.5 L 234 328.1 L 235 326 L 236 331.4 L 237 333.4 L 238 334.2 L 239 326.8 L 240 328.4 L 241 329.6 L 242 326.8 L 243 331.1 L 244 332.8 L 245 334.8 L 246 327.3 L 247 326.1 L 248 330.4 L 249 328.1 L 250 331.2 L 251 332 L 252 334.5 L 253 328.5 L 254 324.3 L 255 330.3 L 256 329.6 L 257 331.7 L 258 331.2 L 259 333.4 L 260 330 L 261 323.5 L 262 329.5 L 263 330.9 L 264 332.5 L 265 330.9 L 266 331.5 L 267 331.3 L 268 323.7 L 269 328.4 L 270 331.8 L 271 333.4 L 272 331.1 L 273 329.3 L 274 331.7 L 275 324.9 L 276 327.4 L 277 332.1 L 278 334 L 279 331.9 L 280 327.3 L 281 331.2 L 282 326.6 L 283 327 L 284 331.9 L 285 334 L 286 333 L 287 326 L 288 329.7 L 289 328.5 L 290 327.4 L 291 331.7 L 292 333.5 L 293 334 L 294 325.7 L 295 327.7 L 296 329.9 L 297 328.3 L 298 331.7 L 299 332.4 L 300 334.4 L 301 326.4 L 302 325.6 L 303 330.6 L 304 329.6 L 305 332 L 306 331.2 L 307 333.9 L 308 327.8 L 309 324.1 L 310 330.3 L 311 330.7 L 312 332.4 L 313 329.9 L 314 331.8 L 315 328.6 L 316 322.4 L 317 328.1 L 318 329.5 L 319 330.4 L 320 325.8 L 321 324.8 L 322 323.6 L 323 315.2 L 324 317.9 L 325 318.9 L 326 318.1 L 327 311.4 L 328 305.9 L 329 305.9 L 330 297.2 L 331 297.2 L 332 298.4 L 333 298.4 L 334 293.4 L 335 286.8 L 336 290.7 L 337 287.5 L 338 289.2 L 339 294.3 L 340 298.4 L 341 299.2 L 342 294.4 L 343 301.8 L 344 305.2 L 345 308.5 L 346 315.1 L 347 319.8 L 348 323.7 L 349 318.3 L 350 323.9 L 351 330.1 L 352 332.5 L 353 337.3 L 354 339.5 L 355 344 L 356 338.2 L 357 339.9 L 358 347 L 359 348.6 L 360 351.1 L 361 349.6 L 362 352.8 L 363 347.2 L 364 343.9 L 365 349.7 L 366 350.1 L 367 350.2 L 368 344.8 L 369 345.5 L 370 341.6 L 371 335.2 L 372 339.7 L 373 340.6 L 374 340.9 L 375 334.5 L 376 333.6 L 377 333.8 L 378 327.7 L 379 331.8 L 380 334.2 L 381 336 L 382 330.4 L 383 327.4 L 384 331.1 L 385 326.7 L 386 329.7 L 387 332.5 L 388 334.8 L 389 330.7 L 390 325 L 391 330.1 L 392 328.2 L 393 329.7 L 394 331.9 L 395 333.9 L 396 332 L 397 324 L 398 328.8 L 399 329.8 L 400 330.4 L 401 331.8 L 402 332.4 L 403 332.9 L 404 324.2 L 405 327.2 L 406 330.9 L 407 331.4 L 408 332 L 409 330.6 L 410 333 L 411 325.4 L 412 325.8 L 413 331.3 L 414 332.4 L 415 332.7 L 416 329 L 417 332.1 L 418 327.1 L 419 325 L 420 331.2 L 421 333 L 422 333.7 L 423 328 L 424 330.4 L 425 328.9 L 426 325.2 L 427 330.8 L 428 333.1 L 429 334.6 L 430 327.9 L 431 328.1 L 432 330.1 L 433 326.1 L 434 330.5 L 435 332.7 L 436 334.9 L 437 328.6 L 438 325.8 L 439 330.4 L 440 327.7 L 441 330.6 L 442 332.1 L 443 334.5 L 444 329.9 L 445 324.2 L 446 329.9 L 447 329.3 L 448 331.1 L 449 331.5 L 450 333.3 L 451 331.3 L 452 323.5 L 453 328.8 L 454 330.7 L 455 331.9 L 456 331.4 L 457 331.4 L 458 332.2 L 459 324 L 460 327.4 L 461 331.5 L 462 332.8 L 463 331.8 L 464 329.4 L 465 332.2 L 466 325.4 L 467 326.4 L 468 331.7 L 469 333.4 L 470 332.7 L 471 327.7 L 472 331.2 L 473 327.2 L 474 326 L 475 331.6 L 476 333.6 L 477 333.8 L 478 326.7 L 479 329.4 L 480 328.9 L 481 326.5 L 482 331.3 L 483 333.2 L 484 334.6 L 485 326.8 L 486 327.2 L 487 330.1 L 488 327.6 L 489 331.2 L 490 332.4 L 491 334.7 L 492 327.7 L 493 325.1 L 494 330.4 L 495 329 L 496 331.6 L 497 331.5 L 498 334 L 499 329.1 L 500 323.8 L 501 330 L 502 330.5 L 503 332.3 L 504 330.9 L 505 332.4 L 506 330.6 L 507 323.4 L 508 329 L 509 331.5 L 510 333.1 L 511 330.8 L 512 330.3 L 513 331.5 L 514 324.2 L 515 328 L 516 332 L 517 333.9 L 518 331.4 L 519 328.1 L 520 331.5 L 521 325.7 L 522 327.3 L 523 332.1 L 524 334.2 L 525 332.4 L 526 326.4 L 527 330.5 L 528 327.6 L 529 327.3 L 530 331.9 L 531 333.8 L 532 333.5 L 533 325.6 L 534 328.7 L 535 329.3 L 536 328 L 537 331.7 L 538 332.9 L 539 334.2 L 540 325.8 L 541 326.6 L 542 330.4 L 543 329.1 L 544 331.8 L 545 331.7 L 546 334.2 L 547 326.9 L 548 324.8 L 549 330.6 L 550 330.5 L 551 332.4 L 552 330.6 L 553 333.2 L 554 328.5 L 555 323.8 L 556 330.2 L 557 331.6 L 558 333.2 L 559 329.9 L 560 331.3 L 561 330 L 562 323.8 L 563 329.5 L 564 332.2 L 565 334.1 L 566 330 L 567 329 L 568 330.9 L 569 324.8 L 570 328.8 L 571 332.4 L 572 334.6 L 573 330.7 L 574 326.8 L 575 330.9 L 576 326.4 L 577 328.5 L 578 332.2 L 579 334.5 L 580 331.9 L 581 325.2 L 582 329.9 L 583 328.3 L 584 328.7 L 585 331.9 L 586 333.7 L 587 333 L 588 324.6 L 589 328.2 L 590 329.8 L 591 329.6 L 592 331.9 L 593 332.3 L 594 333.7 L 595 325.1 L 596 326.4 L 597 330.8 L 598 330.7 L 599 332.2 L 600 330.8 L 601 333.4 L 602 326.4 L 603 324.9 L 604 331 L 605 331.8 L 606 332.9 L 607 329.5 L 608 332.2 L 609 328.1 L 610 324.3 L 611 330.6 L 612 332.5" fill="none" stroke="#1E66F5" stroke-width="1.6"/>
  <text x="38" y="284" font-family="Arial, sans-serif" font-size="14" font-weight="bold" fill="#0B1F3A">3 &#183; HIGH-PASS only</text>
  <text x="632" y="304" font-family="Arial, sans-serif" font-size="14" fill="#0B1F3A">drift removed &#8212;</text>
  <text x="632" y="322" font-family="Arial, sans-serif" font-size="14" fill="#0B1F3A">noise remains</text>


  <!-- panel 4: 4 &#183; BAND-PASS &#8212; HP + LP -->
  <rect x="30" y="368" width="590" height="92" rx="6" fill="#9BC4FF" fill-opacity="0.08" stroke="#0B1F3A" stroke-width="1.5"/>
  <line x1="38" y1="434" x2="612" y2="434" stroke="#9BC4FF" stroke-width="1.5" stroke-dasharray="5 4"/>
  <path d="M 38 434 L 39 434 L 40 434 L 41 434 L 42 434 L 43 434 L 44 434 L 45 434 L 46 434 L 47 434 L 48 434 L 49 434 L 50 434 L 51 434 L 52 434 L 53 434 L 54 434 L 55 434 L 56 434 L 57 434 L 58 434 L 59 434 L 60 434 L 61 434 L 62 434 L 63 434 L 64 434 L 65 434 L 66 434 L 67 434 L 68 434 L 69 434 L 70 434 L 71 434 L 72 434 L 73 434 L 74 434 L 75 434 L 76 434 L 77 434 L 78 434 L 79 434 L 80 434 L 81 434 L 82 434 L 83 434 L 84 434 L 85 434 L 86 434 L 87 434 L 88 434 L 89 434 L 90 434 L 91 434 L 92 434 L 93 434 L 94 434 L 95 434 L 96 434 L 97 434 L 98 434 L 99 434 L 100 434 L 101 434 L 102 434 L 103 434 L 104 434 L 105 434 L 106 434 L 107 434 L 108 434 L 109 434 L 110 434 L 111 434 L 112 434 L 113 434 L 114 434 L 115 434 L 116 434 L 117 434 L 118 434 L 119 434 L 120 434 L 121 434 L 122 434 L 123 434 L 124 434 L 125 434 L 126 434 L 127 434 L 128 434 L 129 434 L 130 434 L 131 434 L 132 434 L 133 434 L 134 434 L 135 434 L 136 434 L 137 434 L 138 434 L 139 434 L 140 434 L 141 434 L 142 434 L 143 434 L 144 434 L 145 434 L 146 434 L 147 434 L 148 434 L 149 434 L 150 434 L 151 434 L 152 434 L 153 434 L 154 434 L 155 434 L 156 434 L 157 434 L 158 434 L 159 434 L 160 434 L 161 434 L 162 434 L 163 434 L 164 434 L 165 434 L 166 434 L 167 434 L 168 434 L 169 434 L 170 434 L 171 434 L 172 434 L 173 434 L 174 434 L 175 434 L 176 434 L 177 434 L 178 434 L 179 434 L 180 434 L 181 434 L 182 434 L 183 434 L 184 434 L 185 434 L 186 434 L 187 434 L 188 434 L 189 434 L 190 434 L 191 434 L 192 434 L 193 434 L 194 434 L 195 434 L 196 434 L 197 434 L 198 434 L 199 434 L 200 434 L 201 434 L 202 434 L 203 434 L 204 434 L 205 434 L 206 434 L 207 434 L 208 434 L 209 434 L 210 434 L 211 434 L 212 434 L 213 434 L 214 434 L 215 434 L 216 434 L 217 434 L 218 434 L 219 434 L 220 434 L 221 434 L 222 434 L 223 434 L 224 434 L 225 434 L 226 434 L 227 434 L 228 434 L 229 434 L 230 434 L 231 434 L 232 434 L 233 434 L 234 434 L 235 434 L 236 434 L 237 434 L 238 434 L 239 434 L 240 434 L 241 434 L 242 434 L 243 434 L 244 434 L 245 434 L 246 434 L 247 434 L 248 434 L 249 434 L 250 434 L 251 434 L 252 434 L 253 434 L 254 434 L 255 434 L 256 434 L 257 434 L 258 434 L 259 434 L 260 434 L 261 434 L 262 434 L 263 434 L 264 434 L 265 434 L 266 434 L 267 434 L 268 434 L 269 434 L 270 434 L 271 434 L 272 434 L 273 434 L 274 434 L 275 434 L 276 434 L 277 434 L 278 434 L 279 434 L 280 434 L 281 434 L 282 434 L 283 434 L 284 434 L 285 434 L 286 434 L 287 434 L 288 434 L 289 434 L 290 434 L 291 434 L 292 434 L 293 434 L 294 434 L 295 434 L 296 434 L 297 434 L 298 434 L 299 434 L 300 434 L 301 434 L 302 434 L 303 434 L 304 434 L 305 434 L 306 433.9 L 307 433.9 L 308 433.9 L 309 433.8 L 310 433.7 L 311 433.6 L 312 433.4 L 313 433.2 L 314 432.9 L 315 432.5 L 316 431.9 L 317 431.3 L 318 430.5 L 319 429.4 L 320 428.2 L 321 426.8 L 322 425.1 L 323 423.2 L 324 421.1 L 325 418.8 L 326 416.3 L 327 413.6 L 328 410.9 L 329 408.2 L 330 405.6 L 331 403.2 L 332 401 L 333 399.1 L 334 397.7 L 335 396.7 L 336 396.2 L 337 396.3 L 338 396.9 L 339 398 L 340 399.6 L 341 401.7 L 342 404.2 L 343 406.9 L 344 409.9 L 345 413.1 L 346 416.3 L 347 419.6 L 348 422.9 L 349 426 L 350 429.1 L 351 432.1 L 352 434.8 L 353 437.5 L 354 439.9 L 355 442.1 L 356 444.1 L 357 445.8 L 358 447.4 L 359 448.6 L 360 449.6 L 361 450.3 L 362 450.7 L 363 450.8 L 364 450.6 L 365 450.2 L 366 449.6 L 367 448.8 L 368 447.8 L 369 446.7 L 370 445.5 L 371 444.3 L 372 443.1 L 373 441.9 L 374 440.8 L 375 439.8 L 376 438.8 L 377 438 L 378 437.2 L 379 436.6 L 380 436 L 381 435.6 L 382 435.2 L 383 434.9 L 384 434.7 L 385 434.5 L 386 434.4 L 387 434.3 L 388 434.2 L 389 434.1 L 390 434.1 L 391 434.1 L 392 434 L 393 434 L 394 434 L 395 434 L 396 434 L 397 434 L 398 434 L 399 434 L 400 434 L 401 434 L 402 434 L 403 434 L 404 434 L 405 434 L 406 434 L 407 434 L 408 434 L 409 434 L 410 434 L 411 434 L 412 434 L 413 434 L 414 434 L 415 434 L 416 434 L 417 434 L 418 434 L 419 434 L 420 434 L 421 434 L 422 434 L 423 434 L 424 434 L 425 434 L 426 434 L 427 434 L 428 434 L 429 434 L 430 434 L 431 434 L 432 434 L 433 434 L 434 434 L 435 434 L 436 434 L 437 434 L 438 434 L 439 434 L 440 434 L 441 434 L 442 434 L 443 434 L 444 434 L 445 434 L 446 434 L 447 434 L 448 434 L 449 434 L 450 434 L 451 434 L 452 434 L 453 434 L 454 434 L 455 434 L 456 434 L 457 434 L 458 434 L 459 434 L 460 434 L 461 434 L 462 434 L 463 434 L 464 434 L 465 434 L 466 434 L 467 434 L 468 434 L 469 434 L 470 434 L 471 434 L 472 434 L 473 434 L 474 434 L 475 434 L 476 434 L 477 434 L 478 434 L 479 434 L 480 434 L 481 434 L 482 434 L 483 434 L 484 434 L 485 434 L 486 434 L 487 434 L 488 434 L 489 434 L 490 434 L 491 434 L 492 434 L 493 434 L 494 434 L 495 434 L 496 434 L 497 434 L 498 434 L 499 434 L 500 434 L 501 434 L 502 434 L 503 434 L 504 434 L 505 434 L 506 434 L 507 434 L 508 434 L 509 434 L 510 434 L 511 434 L 512 434 L 513 434 L 514 434 L 515 434 L 516 434 L 517 434 L 518 434 L 519 434 L 520 434 L 521 434 L 522 434 L 523 434 L 524 434 L 525 434 L 526 434 L 527 434 L 528 434 L 529 434 L 530 434 L 531 434 L 532 434 L 533 434 L 534 434 L 535 434 L 536 434 L 537 434 L 538 434 L 539 434 L 540 434 L 541 434 L 542 434 L 543 434 L 544 434 L 545 434 L 546 434 L 547 434 L 548 434 L 549 434 L 550 434 L 551 434 L 552 434 L 553 434 L 554 434 L 555 434 L 556 434 L 557 434 L 558 434 L 559 434 L 560 434 L 561 434 L 562 434 L 563 434 L 564 434 L 565 434 L 566 434 L 567 434 L 568 434 L 569 434 L 570 434 L 571 434 L 572 434 L 573 434 L 574 434 L 575 434 L 576 434 L 577 434 L 578 434 L 579 434 L 580 434 L 581 434 L 582 434 L 583 434 L 584 434 L 585 434 L 586 434 L 587 434 L 588 434 L 589 434 L 590 434 L 591 434 L 592 434 L 593 434 L 594 434 L 595 434 L 596 434 L 597 434 L 598 434 L 599 434 L 600 434 L 601 434 L 602 434 L 603 434 L 604 434 L 605 434 L 606 434 L 607 434 L 608 434 L 609 434 L 610 434 L 611 434 L 612 434" fill="none" stroke="#1E66F5" stroke-width="2.5"/>
  <text x="38" y="388" font-family="Arial, sans-serif" font-size="14" font-weight="bold" fill="#0B1F3A">4 &#183; BAND-PASS &#8212; HP + LP</text>
  <text x="632" y="408" font-family="Arial, sans-serif" font-size="14" fill="#0B1F3A">flaw alone &#8212; clean</text>
  <text x="632" y="426" font-family="Arial, sans-serif" font-size="14" fill="#0B1F3A">into the alarm gate</text>

  <text x="400" y="486" text-anchor="middle" font-family="Arial, sans-serif" font-size="14" fill="#0B1F3A">LP too low or HP too high eats the flaw lobe &#8212; set corners at production scan speed.</text>
</svg>
