<svg viewBox="0 0 800 450" xmlns="http://www.w3.org/2000/svg">
  <rect x="0" y="0" width="800" height="450" fill="#0A2342"/>
  <defs>
    <clipPath id="disc1"><circle cx="170" cy="240" r="95"/></clipPath>
    <clipPath id="disc2"><circle cx="400" cy="240" r="95"/></clipPath>
    <clipPath id="disc3"><circle cx="630" cy="240" r="95"/></clipPath>
  </defs>
  <text x="400" y="36" text-anchor="middle" font-family="Arial, sans-serif" font-size="23" font-weight="bold" fill="#E8F1FB">Graininess and Screen Mottle at High Magnification</text>

  <!-- disc 1: fine grain -->
  <circle cx="170" cy="240" r="95" fill="#1B3F6B" stroke="#5A6B7E" stroke-width="2"/>
  <g clip-path="url(#disc1)">
    <path d="M 110 212 q 30 14 55 8 q 25 -6 65 26" fill="none" stroke="#A9C7E6" stroke-width="1.6"/>
    <circle cx="120" cy="200" r="1.8" fill="#DCE9F6" opacity="0.45"/>
    <circle cx="150" cy="180" r="2" fill="#DCE9F6" opacity="0.4"/>
    <circle cx="185" cy="210" r="1.6" fill="#DCE9F6" opacity="0.5"/>
    <circle cx="210" cy="190" r="2.1" fill="#DCE9F6" opacity="0.4"/>
    <circle cx="140" cy="250" r="1.7" fill="#DCE9F6" opacity="0.45"/>
    <circle cx="170" cy="265" r="2" fill="#DCE9F6" opacity="0.4"/>
    <circle cx="200" cy="250" r="1.6" fill="#DCE9F6" opacity="0.5"/>
    <circle cx="225" cy="225" r="1.9" fill="#DCE9F6" opacity="0.42"/>
    <circle cx="115" cy="235" r="2" fill="#DCE9F6" opacity="0.4"/>
    <circle cx="135" cy="290" r="1.7" fill="#DCE9F6" opacity="0.46"/>
    <circle cx="165" cy="300" r="2" fill="#DCE9F6" opacity="0.4"/>
    <circle cx="195" cy="285" r="1.8" fill="#DCE9F6" opacity="0.44"/>
    <circle cx="220" cy="275" r="1.6" fill="#DCE9F6" opacity="0.5"/>
    <circle cx="150" cy="225" r="1.8" fill="#DCE9F6" opacity="0.42"/>
    <circle cx="182" cy="237" r="1.7" fill="#DCE9F6" opacity="0.45"/>
    <circle cx="105" cy="265" r="1.9" fill="#DCE9F6" opacity="0.4"/>
    <circle cx="230" cy="260" r="1.8" fill="#DCE9F6" opacity="0.42"/>
    <circle cx="205" cy="310" r="1.7" fill="#DCE9F6" opacity="0.45"/>
    <circle cx="125" cy="310" r="1.9" fill="#DCE9F6" opacity="0.4"/>
    <circle cx="160" cy="195" r="1.6" fill="#DCE9F6" opacity="0.48"/>
  </g>

  <!-- disc 2: coarse grain -->
  <circle cx="400" cy="240" r="95" fill="#1B3F6B" stroke="#5A6B7E" stroke-width="2"/>
  <g clip-path="url(#disc2)">
    <path d="M 340 212 q 30 14 55 8 q 25 -6 65 26" fill="none" stroke="#A9C7E6" stroke-width="1.6"/>
    <circle cx="330" cy="210" r="4.2" fill="#DCE9F6" opacity="0.6"/>
    <circle cx="345" cy="250" r="3.4" fill="#DCE9F6" opacity="0.7"/>
    <circle cx="360" cy="190" r="4.8" fill="#DCE9F6" opacity="0.55"/>
    <circle cx="370" cy="225" r="3.8" fill="#DCE9F6" opacity="0.65"/>
    <circle cx="385" cy="205" r="4.4" fill="#DCE9F6" opacity="0.6"/>
    <circle cx="395" cy="245" r="3.2" fill="#DCE9F6" opacity="0.75"/>
    <circle cx="410" cy="185" r="4" fill="#DCE9F6" opacity="0.6"/>
    <circle cx="415" cy="230" r="4.6" fill="#DCE9F6" opacity="0.55"/>
    <circle cx="430" cy="210" r="3.6" fill="#DCE9F6" opacity="0.7"/>
    <circle cx="445" cy="250" r="4.2" fill="#DCE9F6" opacity="0.6"/>
    <circle cx="460" cy="195" r="3.4" fill="#DCE9F6" opacity="0.72"/>
    <circle cx="465" cy="235" r="4.4" fill="#DCE9F6" opacity="0.58"/>
    <circle cx="340" cy="285" r="4" fill="#DCE9F6" opacity="0.62"/>
    <circle cx="365" cy="300" r="4.6" fill="#DCE9F6" opacity="0.55"/>
    <circle cx="390" cy="280" r="3.4" fill="#DCE9F6" opacity="0.72"/>
    <circle cx="410" cy="300" r="4.2" fill="#DCE9F6" opacity="0.6"/>
    <circle cx="435" cy="285" r="3.8" fill="#DCE9F6" opacity="0.65"/>
    <circle cx="455" cy="300" r="4.4" fill="#DCE9F6" opacity="0.56"/>
    <circle cx="330" cy="250" r="3.6" fill="#DCE9F6" opacity="0.68"/>
    <circle cx="470" cy="260" r="4" fill="#DCE9F6" opacity="0.6"/>
    <circle cx="350" cy="170" r="4.4" fill="#DCE9F6" opacity="0.55"/>
    <circle cx="420" cy="165" r="3.8" fill="#DCE9F6" opacity="0.64"/>
    <circle cx="385" cy="165" r="4.2" fill="#DCE9F6" opacity="0.58"/>
    <circle cx="450" cy="170" r="3.6" fill="#DCE9F6" opacity="0.66"/>
    <circle cx="320" cy="230" r="4.6" fill="#DCE9F6" opacity="0.54"/>
    <circle cx="480" cy="225" r="3.8" fill="#DCE9F6" opacity="0.62"/>
    <circle cx="400" cy="320" r="4.2" fill="#DCE9F6" opacity="0.58"/>
    <circle cx="370" cy="318" r="3.4" fill="#DCE9F6" opacity="0.7"/>
    <circle cx="430" cy="318" r="4" fill="#DCE9F6" opacity="0.6"/>
    <circle cx="345" cy="225" r="3.8" fill="#DCE9F6" opacity="0.64"/>
    <circle cx="455" cy="215" r="4.4" fill="#DCE9F6" opacity="0.56"/>
    <circle cx="395" cy="265" r="3.6" fill="#DCE9F6" opacity="0.68"/>
    <circle cx="360" cy="260" r="4.2" fill="#DCE9F6" opacity="0.58"/>
    <circle cx="425" cy="260" r="3.4" fill="#DCE9F6" opacity="0.72"/>
    <circle cx="440" cy="232" r="4" fill="#DCE9F6" opacity="0.6"/>
    <circle cx="310" cy="255" r="4.4" fill="#DCE9F6" opacity="0.55"/>
  </g>

  <!-- disc 3: quantum mottle -->
  <circle cx="630" cy="240" r="95" fill="#1B3F6B" stroke="#5A6B7E" stroke-width="2"/>
  <g clip-path="url(#disc3)">
    <path d="M 570 212 q 30 14 55 8 q 25 -6 65 26" fill="none" stroke="#A9C7E6" stroke-width="1.6"/>
    <ellipse cx="590" cy="210" rx="24" ry="16" fill="#DCE9F6" opacity="0.14"/>
    <ellipse cx="640" cy="195" rx="20" ry="14" fill="#DCE9F6" opacity="0.18"/>
    <ellipse cx="670" cy="230" rx="26" ry="18" fill="#DCE9F6" opacity="0.12"/>
    <ellipse cx="610" cy="260" rx="22" ry="15" fill="#DCE9F6" opacity="0.16"/>
    <ellipse cx="655" cy="275" rx="24" ry="16" fill="#DCE9F6" opacity="0.13"/>
    <ellipse cx="600" cy="300" rx="18" ry="13" fill="#DCE9F6" opacity="0.15"/>
    <ellipse cx="665" cy="308" rx="16" ry="12" fill="#DCE9F6" opacity="0.14"/>
    <ellipse cx="700" cy="250" rx="18" ry="14" fill="#DCE9F6" opacity="0.12"/>
    <ellipse cx="565" cy="250" rx="16" ry="12" fill="#DCE9F6" opacity="0.15"/>
    <ellipse cx="630" cy="235" rx="30" ry="20" fill="#DCE9F6" opacity="0.10"/>
    <ellipse cx="615" cy="225" rx="20" ry="14" fill="#081A33" opacity="0.3"/>
    <ellipse cx="660" cy="255" rx="18" ry="12" fill="#081A33" opacity="0.3"/>
    <ellipse cx="590" cy="275" rx="16" ry="11" fill="#081A33" opacity="0.3"/>
    <ellipse cx="645" cy="300" rx="15" ry="10" fill="#081A33" opacity="0.3"/>
    <ellipse cx="680" cy="205" rx="14" ry="10" fill="#081A33" opacity="0.3"/>
    <ellipse cx="575" cy="225" rx="13" ry="9" fill="#081A33" opacity="0.3"/>
  </g>

  <!-- labels -->
  <text x="170" y="372" text-anchor="middle" font-family="Arial, sans-serif" font-size="17" font-weight="bold" fill="#E8F1FB">Fine-grain, slow film</text>
  <text x="170" y="394" text-anchor="middle" font-family="Arial, sans-serif" font-size="16" fill="#D9E0E8">smooth - crack stands out</text>
  <text x="400" y="372" text-anchor="middle" font-family="Arial, sans-serif" font-size="17" font-weight="bold" fill="#E8F1FB">Coarse-grain, fast film</text>
  <text x="400" y="394" text-anchor="middle" font-family="Arial, sans-serif" font-size="16" fill="#D9E0E8">grainy - noisy background</text>
  <text x="630" y="372" text-anchor="middle" font-family="Arial, sans-serif" font-size="17" font-weight="bold" fill="#E8F1FB">Fluorescent screens</text>
  <text x="630" y="394" text-anchor="middle" font-family="Arial, sans-serif" font-size="16" fill="#D9E0E8">quantum mottle hides the crack</text>

  <text x="400" y="430" text-anchor="middle" font-family="Arial, sans-serif" font-size="16" fill="#D9E0E8">Same faint crack in each view - noise decides whether you can call it.</text>
</svg>
