<svg viewBox="0 0 800 450" xmlns="http://www.w3.org/2000/svg">
  <rect x="0" y="0" width="800" height="450" fill="#FFFFFF"/>
  <text x="400" y="34" text-anchor="middle" font-family="Arial, sans-serif" font-size="24" font-weight="bold" fill="#0A2342">Pass by Pass: When Each Flaw Enters</text>

  <!-- panel frames -->
  <rect x="40" y="56" width="175" height="300" fill="none" stroke="#D9E0E8" stroke-width="1.5"/>
  <rect x="228" y="56" width="175" height="300" fill="none" stroke="#D9E0E8" stroke-width="1.5"/>
  <rect x="416" y="56" width="175" height="300" fill="none" stroke="#D9E0E8" stroke-width="1.5"/>
  <rect x="604" y="56" width="175" height="300" fill="none" stroke="#D9E0E8" stroke-width="1.5"/>

  <text x="127" y="88" text-anchor="middle" font-family="Arial, sans-serif" font-size="17" font-weight="bold" fill="#0A2342">1 · Root pass</text>
  <text x="315" y="88" text-anchor="middle" font-family="Arial, sans-serif" font-size="17" font-weight="bold" fill="#0A2342">2 · Hot pass</text>
  <text x="503" y="88" text-anchor="middle" font-family="Arial, sans-serif" font-size="17" font-weight="bold" fill="#0A2342">3 · Fill passes</text>
  <text x="691" y="88" text-anchor="middle" font-family="Arial, sans-serif" font-size="17" font-weight="bold" fill="#0A2342">4 · Cap pass</text>

  <!-- panel 1: plates + root bead + IP + burn-through -->
  <polygon points="55,150 108,150 124,210 124,215 55,215" fill="#D9E0E8" stroke="#0A2342" stroke-width="1.8"/>
  <polygon points="199,150 146,150 130,210 130,215 199,215" fill="#D9E0E8" stroke="#0A2342" stroke-width="1.8"/>
  <path d="M118,213 Q127,200 136,213 Q127,221 118,213 Z" fill="#E8F1FB" stroke="#0A2342" stroke-width="1.5"/>
  <line x1="120" y1="217" x2="134" y2="217" stroke="#D14343" stroke-width="2.5"/>
  <path d="M125,222 Q127,231 129,222 Z" fill="#D14343"/>

  <!-- panel 2: + hot pass, wagon-track slag at root toes -->
  <polygon points="243,150 296,150 312,210 312,215 243,215" fill="#D9E0E8" stroke="#0A2342" stroke-width="1.8"/>
  <polygon points="387,150 334,150 318,210 318,215 387,215" fill="#D9E0E8" stroke="#0A2342" stroke-width="1.8"/>
  <path d="M306,213 Q315,200 324,213 Q315,221 306,213 Z" fill="#E8F1FB" stroke="#0A2342" stroke-width="1.5"/>
  <ellipse cx="315" cy="196" rx="16" ry="9" fill="#E8F1FB" stroke="#0A2342" stroke-width="1.5"/>
  <line x1="303" y1="207" x2="309" y2="199" stroke="#0A2342" stroke-width="2.5"/>
  <line x1="327" y1="199" x2="321" y2="207" stroke="#0A2342" stroke-width="2.5"/>

  <!-- panel 3: + fill layers, slag, LOF, porosity -->
  <polygon points="431,150 484,150 500,210 500,215 431,215" fill="#D9E0E8" stroke="#0A2342" stroke-width="1.8"/>
  <polygon points="575,150 522,150 506,210 506,215 575,215" fill="#D9E0E8" stroke="#0A2342" stroke-width="1.8"/>
  <path d="M494,213 Q503,200 512,213 Q503,221 494,213 Z" fill="#E8F1FB" stroke="#0A2342" stroke-width="1.5"/>
  <ellipse cx="503" cy="196" rx="16" ry="9" fill="#E8F1FB" stroke="#0A2342" stroke-width="1.5"/>
  <ellipse cx="503" cy="180" rx="20" ry="10" fill="#E8F1FB" stroke="#0A2342" stroke-width="1.5"/>
  <ellipse cx="503" cy="166" rx="24" ry="10" fill="#E8F1FB" stroke="#0A2342" stroke-width="1.5"/>
  <path d="M486,186 L494,182 L497,189 L489,193 Z" fill="#0A2342"/>
  <line x1="516" y1="168" x2="509" y2="194" stroke="#D14343" stroke-width="2.5"/>
  <circle cx="501" cy="172" r="2" fill="#0A2342"/>
  <circle cx="506" cy="168" r="2" fill="#0A2342"/>
  <circle cx="498" cy="177" r="1.8" fill="#0A2342"/>

  <!-- panel 4: + cap, toe undercut, crater crack -->
  <polygon points="619,150 672,150 688,210 688,215 619,215" fill="#D9E0E8" stroke="#0A2342" stroke-width="1.8"/>
  <polygon points="763,150 710,150 694,210 694,215 763,215" fill="#D9E0E8" stroke="#0A2342" stroke-width="1.8"/>
  <path d="M682,213 Q691,200 700,213 Q691,221 682,213 Z" fill="#E8F1FB" stroke="#0A2342" stroke-width="1.5"/>
  <ellipse cx="691" cy="196" rx="16" ry="9" fill="#E8F1FB" stroke="#0A2342" stroke-width="1.5"/>
  <ellipse cx="691" cy="180" rx="20" ry="10" fill="#E8F1FB" stroke="#0A2342" stroke-width="1.5"/>
  <ellipse cx="691" cy="166" rx="24" ry="10" fill="#E8F1FB" stroke="#0A2342" stroke-width="1.5"/>
  <path d="M668,150 Q691,136 714,150 Z" fill="#E8F1FB" stroke="#0A2342" stroke-width="1.5"/>
  <path d="M662,150 Q668,157 674,150" fill="none" stroke="#D14343" stroke-width="2.5"/>
  <line x1="685" y1="143" x2="697" y2="143" stroke="#D14343" stroke-width="1.5"/>
  <line x1="688" y1="138" x2="694" y2="148" stroke="#D14343" stroke-width="1.5"/>
  <line x1="694" y1="138" x2="688" y2="148" stroke="#D14343" stroke-width="1.5"/>

  <!-- captions -->
  <text x="127" y="258" text-anchor="middle" font-family="Arial, sans-serif" font-size="16" fill="#0A2342">Incomplete</text>
  <text x="127" y="280" text-anchor="middle" font-family="Arial, sans-serif" font-size="16" fill="#0A2342">penetration,</text>
  <text x="127" y="302" text-anchor="middle" font-family="Arial, sans-serif" font-size="16" fill="#0A2342">burn-through,</text>
  <text x="127" y="324" text-anchor="middle" font-family="Arial, sans-serif" font-size="16" fill="#0A2342">root undercut</text>

  <text x="315" y="258" text-anchor="middle" font-family="Arial, sans-serif" font-size="16" fill="#0A2342">Wagon-track slag</text>
  <text x="315" y="280" text-anchor="middle" font-family="Arial, sans-serif" font-size="16" fill="#0A2342">if the root-pass</text>
  <text x="315" y="302" text-anchor="middle" font-family="Arial, sans-serif" font-size="16" fill="#0A2342">toes are not</text>
  <text x="315" y="324" text-anchor="middle" font-family="Arial, sans-serif" font-size="16" fill="#0A2342">ground clean</text>

  <text x="503" y="258" text-anchor="middle" font-family="Arial, sans-serif" font-size="16" fill="#0A2342">Interpass slag,</text>
  <text x="503" y="280" text-anchor="middle" font-family="Arial, sans-serif" font-size="16" fill="#0A2342">sidewall lack of</text>
  <text x="503" y="302" text-anchor="middle" font-family="Arial, sans-serif" font-size="16" fill="#0A2342">fusion, porosity</text>
  <text x="503" y="324" text-anchor="middle" font-family="Arial, sans-serif" font-size="16" fill="#0A2342">at tie-ins</text>

  <text x="691" y="258" text-anchor="middle" font-family="Arial, sans-serif" font-size="16" fill="#0A2342">Toe undercut,</text>
  <text x="691" y="280" text-anchor="middle" font-family="Arial, sans-serif" font-size="16" fill="#0A2342">underfill, excess</text>
  <text x="691" y="302" text-anchor="middle" font-family="Arial, sans-serif" font-size="16" fill="#0A2342">reinforcement,</text>
  <text x="691" y="324" text-anchor="middle" font-family="Arial, sans-serif" font-size="16" fill="#0A2342">crater cracks</text>

  <text x="400" y="396" text-anchor="middle" font-family="Arial, sans-serif" font-size="16" fill="#5A6B7E">Red = planar or surface flaws · Navy = trapped material · each pass adds its own failure modes</text>
</svg>
