<svg viewBox="0 0 800 450" xmlns="http://www.w3.org/2000/svg">
  <rect x="0" y="0" width="800" height="450" fill="#FFFFFF"/>
  <text x="400" y="36" text-anchor="middle" font-family="Arial, sans-serif" font-size="24" font-weight="bold" fill="#0A2342">Long-Term Storage of Processed Radiographs</text>

  <!-- cabinet -->
  <rect x="50" y="70" width="290" height="300" fill="#E8F1FB" stroke="#0A2342" stroke-width="3"/>
  <line x1="50" y1="170" x2="340" y2="170" stroke="#0A2342" stroke-width="2"/>
  <line x1="50" y1="270" x2="340" y2="270" stroke="#0A2342" stroke-width="2"/>

  <!-- envelopes on edge, top shelf -->
  <rect x="68" y="86" width="15" height="84" fill="#D9E0E8" stroke="#5A6B7E" stroke-width="1"/>
  <rect x="88" y="86" width="15" height="84" fill="#D9E0E8" stroke="#5A6B7E" stroke-width="1"/>
  <rect x="108" y="86" width="15" height="84" fill="#D9E0E8" stroke="#5A6B7E" stroke-width="1"/>
  <rect x="128" y="86" width="15" height="84" fill="#D9E0E8" stroke="#5A6B7E" stroke-width="1"/>
  <rect x="148" y="86" width="15" height="84" fill="#D9E0E8" stroke="#5A6B7E" stroke-width="1"/>
  <rect x="168" y="86" width="15" height="84" fill="#F2A33C" stroke="#0A2342" stroke-width="1.5"/>
  <rect x="188" y="86" width="15" height="84" fill="#D9E0E8" stroke="#5A6B7E" stroke-width="1"/>
  <rect x="208" y="86" width="15" height="84" fill="#D9E0E8" stroke="#5A6B7E" stroke-width="1"/>
  <rect x="228" y="86" width="15" height="84" fill="#D9E0E8" stroke="#5A6B7E" stroke-width="1"/>
  <rect x="248" y="86" width="15" height="84" fill="#D9E0E8" stroke="#5A6B7E" stroke-width="1"/>
  <rect x="268" y="86" width="15" height="84" fill="#D9E0E8" stroke="#5A6B7E" stroke-width="1"/>
  <rect x="288" y="86" width="15" height="84" fill="#D9E0E8" stroke="#5A6B7E" stroke-width="1"/>
  <rect x="308" y="86" width="15" height="84" fill="#D9E0E8" stroke="#5A6B7E" stroke-width="1"/>

  <!-- envelopes, middle shelf -->
  <rect x="68" y="186" width="15" height="84" fill="#D9E0E8" stroke="#5A6B7E" stroke-width="1"/>
  <rect x="88" y="186" width="15" height="84" fill="#D9E0E8" stroke="#5A6B7E" stroke-width="1"/>
  <rect x="108" y="186" width="15" height="84" fill="#D9E0E8" stroke="#5A6B7E" stroke-width="1"/>
  <rect x="128" y="186" width="15" height="84" fill="#D9E0E8" stroke="#5A6B7E" stroke-width="1"/>
  <rect x="148" y="186" width="15" height="84" fill="#D9E0E8" stroke="#5A6B7E" stroke-width="1"/>
  <rect x="168" y="186" width="15" height="84" fill="#D9E0E8" stroke="#5A6B7E" stroke-width="1"/>
  <rect x="188" y="186" width="15" height="84" fill="#D9E0E8" stroke="#5A6B7E" stroke-width="1"/>
  <rect x="208" y="186" width="15" height="84" fill="#D9E0E8" stroke="#5A6B7E" stroke-width="1"/>
  <rect x="228" y="186" width="15" height="84" fill="#D9E0E8" stroke="#5A6B7E" stroke-width="1"/>
  <rect x="248" y="186" width="15" height="84" fill="#D9E0E8" stroke="#5A6B7E" stroke-width="1"/>
  <rect x="268" y="186" width="15" height="84" fill="#D9E0E8" stroke="#5A6B7E" stroke-width="1"/>
  <rect x="288" y="186" width="15" height="84" fill="#D9E0E8" stroke="#5A6B7E" stroke-width="1"/>
  <rect x="308" y="186" width="15" height="84" fill="#D9E0E8" stroke="#5A6B7E" stroke-width="1"/>

  <!-- envelopes, bottom shelf -->
  <rect x="68" y="286" width="15" height="84" fill="#D9E0E8" stroke="#5A6B7E" stroke-width="1"/>
  <rect x="88" y="286" width="15" height="84" fill="#D9E0E8" stroke="#5A6B7E" stroke-width="1"/>
  <rect x="108" y="286" width="15" height="84" fill="#D9E0E8" stroke="#5A6B7E" stroke-width="1"/>
  <rect x="128" y="286" width="15" height="84" fill="#D9E0E8" stroke="#5A6B7E" stroke-width="1"/>
  <rect x="148" y="286" width="15" height="84" fill="#D9E0E8" stroke="#5A6B7E" stroke-width="1"/>
  <rect x="168" y="286" width="15" height="84" fill="#D9E0E8" stroke="#5A6B7E" stroke-width="1"/>
  <rect x="188" y="286" width="15" height="84" fill="#D9E0E8" stroke="#5A6B7E" stroke-width="1"/>
  <rect x="208" y="286" width="15" height="84" fill="#D9E0E8" stroke="#5A6B7E" stroke-width="1"/>
  <rect x="228" y="286" width="15" height="84" fill="#D9E0E8" stroke="#5A6B7E" stroke-width="1"/>
  <rect x="248" y="286" width="15" height="84" fill="#D9E0E8" stroke="#5A6B7E" stroke-width="1"/>
  <rect x="268" y="286" width="15" height="84" fill="#D9E0E8" stroke="#5A6B7E" stroke-width="1"/>
  <rect x="288" y="286" width="15" height="84" fill="#D9E0E8" stroke="#5A6B7E" stroke-width="1"/>
  <rect x="308" y="286" width="15" height="84" fill="#D9E0E8" stroke="#5A6B7E" stroke-width="1"/>

  <text x="195" y="392" text-anchor="middle" font-family="Arial, sans-serif" font-size="16" fill="#0A2342">fire-resistant cabinet · films on edge</text>

  <!-- pulled envelope detail -->
  <line x1="183" y1="92" x2="412" y2="92" stroke="#5A6B7E" stroke-width="1.5"/>
  <rect x="415" y="70" width="215" height="140" fill="#D9E0E8" stroke="#0A2342" stroke-width="2"/>
  <line x1="415" y1="98" x2="630" y2="98" stroke="#5A6B7E" stroke-width="1.5"/>
  <text x="522" y="124" text-anchor="middle" font-family="Arial, sans-serif" font-size="17" font-weight="bold" fill="#0A2342">JOB 4417 · WELD W-12</text>
  <text x="522" y="148" text-anchor="middle" font-family="Arial, sans-serif" font-size="16" fill="#0A2342">VIEW 0–1 · SHOT 2026-05-14</text>
  <text x="522" y="172" text-anchor="middle" font-family="Arial, sans-serif" font-size="16" fill="#0A2342">RETAIN UNTIL 2031 · INDEX C-7</text>
  <text x="522" y="196" text-anchor="middle" font-family="Arial, sans-serif" font-size="16" fill="#5A6B7E">edge-glued archival envelope</text>

  <!-- conditions column -->
  <rect x="655" y="70" width="120" height="300" rx="6" fill="#E8F1FB" stroke="#1B82E8" stroke-width="2"/>
  <text x="715" y="96" text-anchor="middle" font-family="Arial, sans-serif" font-size="16" font-weight="bold" fill="#0A2342">Room targets</text>
  <text x="715" y="128" text-anchor="middle" font-family="Arial, sans-serif" font-size="17" font-weight="bold" fill="#1B82E8">60–75 °F</text>
  <text x="715" y="150" text-anchor="middle" font-family="Arial, sans-serif" font-size="16" fill="#5A6B7E">stable, no swings</text>
  <text x="715" y="182" text-anchor="middle" font-family="Arial, sans-serif" font-size="17" font-weight="bold" fill="#1B82E8">30–50 % RH</text>
  <text x="715" y="204" text-anchor="middle" font-family="Arial, sans-serif" font-size="16" fill="#5A6B7E">logged daily</text>
  <text x="715" y="236" text-anchor="middle" font-family="Arial, sans-serif" font-size="17" font-weight="bold" fill="#D14343">no fumes</text>
  <text x="715" y="258" text-anchor="middle" font-family="Arial, sans-serif" font-size="16" fill="#5A6B7E">sulfides, ammonia,</text>
  <text x="715" y="278" text-anchor="middle" font-family="Arial, sans-serif" font-size="16" fill="#5A6B7E">solvent vapors</text>
  <text x="715" y="310" text-anchor="middle" font-family="Arial, sans-serif" font-size="17" font-weight="bold" fill="#D14343">no radiation</text>
  <text x="715" y="332" text-anchor="middle" font-family="Arial, sans-serif" font-size="16" fill="#5A6B7E">far from bays and</text>
  <text x="715" y="352" text-anchor="middle" font-family="Arial, sans-serif" font-size="16" fill="#5A6B7E">source storage</text>

  <!-- flat stack warning -->
  <rect x="430" y="252" width="90" height="14" fill="#D9E0E8" stroke="#5A6B7E" stroke-width="1"/>
  <rect x="436" y="270" width="90" height="14" fill="#D9E0E8" stroke="#5A6B7E" stroke-width="1"/>
  <rect x="430" y="288" width="90" height="14" fill="#D9E0E8" stroke="#5A6B7E" stroke-width="1"/>
  <line x1="420" y1="244" x2="540" y2="312" stroke="#D14343" stroke-width="5"/>
  <line x1="540" y1="244" x2="420" y2="312" stroke="#D14343" stroke-width="5"/>
  <text x="480" y="338" text-anchor="middle" font-family="Arial, sans-serif" font-size="16" font-weight="bold" fill="#D14343">never flat stacks</text>
  <text x="480" y="360" text-anchor="middle" font-family="Arial, sans-serif" font-size="16" fill="#5A6B7E">pressure prints through pile</text>

  <text x="400" y="432" text-anchor="middle" font-family="Arial, sans-serif" font-size="17" font-weight="bold" fill="#1E9E6A">On edge · archival envelopes · interleaving paper · master index · separated by contract and retention date</text>
</svg>
