<svg viewBox="0 0 600 340" width="100%" height="100%" xmlns="http://www.w3.org/2000/svg" font-family="JetBrains Mono, monospace">
  <defs>
    <filter id="asdglowC" filterUnits="userSpaceOnUse" x="-58" y="-58" width="622" height="456">
      <feGaussianBlur in="SourceGraphic" stdDeviation="2" result="b"/>
      <feMerge><feMergeNode in="b"/><feMergeNode in="SourceGraphic"/></feMerge>
    </filter>
    <filter id="asdglowW" x="-80%" y="-80%" width="260%" height="260%">
      <feGaussianBlur in="SourceGraphic" stdDeviation="1.7" result="b"/>
      <feMerge><feMergeNode in="b"/><feMergeNode in="SourceGraphic"/></feMerge>
    </filter>
    <linearGradient id="asdsteel" x1="0" y1="10" x2="0" y2="330" gradientUnits="userSpaceOnUse">
      <stop offset="0" stop-color="#2a5584"/><stop offset=".38" stop-color="#14304f"/><stop offset="1" stop-color="#0c2340"/>
    </linearGradient>
    <radialGradient id="asdscr" cx=".5" cy=".42" r=".9">
      <stop offset="0" stop-color="#0c2747"/><stop offset=".75" stop-color="#071528"/><stop offset="1" stop-color="#050f1f"/>
    </radialGradient>
    <radialGradient id="asdknob" cx=".38" cy=".32" r="1">
      <stop offset="0" stop-color="#3a6a9c"/><stop offset=".7" stop-color="#16334f"/><stop offset="1" stop-color="#0c2340"/>
    </radialGradient>
    <linearGradient id="asdscanFade" x1="0" y1="0" x2="1" y2="0">
      <stop offset="0" stop-color="#5fe0ff" stop-opacity="0"/>
      <stop offset="1" stop-color="#5fe0ff" stop-opacity=".3"/>
    </linearGradient>
  </defs>

  <!-- ===== INSTRUMENT BEZEL ===== -->
  <rect x="10" y="10" width="580" height="320" rx="16" fill="url(#asdsteel)" stroke="#8fb6e0" stroke-width="1.5"/>
  <rect x="14" y="14" width="572" height="312" rx="12" fill="none" stroke="#8fb6e0" stroke-width="1" opacity=".18"/>

  <!-- readout chips -->
  <g font-size="11">
    <rect x="44" y="14" width="94" height="20" rx="4" fill="#0e2848" stroke="#8fb6e0" stroke-width="1" opacity=".9"/>
    <text x="91" y="28" text-anchor="middle" fill="#9fe6ff" opacity=".85">RANGE 100 MM</text>
    <rect x="235" y="14" width="94" height="20" rx="4" fill="#0e2848" stroke="#8fb6e0" stroke-width="1" opacity=".9"/>
    <text x="282" y="28" text-anchor="middle" fill="#9fe6ff" opacity=".85">VEL 5920 M/S</text>
    <rect x="426" y="14" width="94" height="20" rx="4" fill="#0e2848" stroke="#8fb6e0" stroke-width="1" opacity=".9"/>
    <text x="473" y="28" text-anchor="middle" fill="#9fe6ff" opacity=".85">GAIN 42.0 dB</text>
  </g>
  <circle cx="553" cy="24" r="3" fill="#5fe0ff" filter="url(#asdglowW)" opacity=".9"/>

  <!-- knobs, right column -->
  <g stroke="#8fb6e0">
    <circle cx="555" cy="120" r="13" fill="url(#asdknob)" stroke-width="1.5"/>
    <line x1="555" y1="120" x2="563.5" y2="110.5" stroke="#9fe6ff" stroke-width="2" stroke-linecap="round"/>
    <circle cx="555" cy="190" r="13" fill="url(#asdknob)" stroke-width="1.5"/>
    <line x1="555" y1="190" x2="546" y2="180" stroke="#9fe6ff" stroke-width="2" stroke-linecap="round"/>
  </g>
  <g fill="#8fb6e0" opacity=".5">
    <circle cx="538" cy="106" r="1.2"/><circle cx="544" cy="98" r="1.2"/><circle cx="555" cy="95" r="1.2"/><circle cx="566" cy="98" r="1.2"/><circle cx="572" cy="106" r="1.2"/>
    <circle cx="538" cy="176" r="1.2"/><circle cx="544" cy="168" r="1.2"/><circle cx="555" cy="165" r="1.2"/><circle cx="566" cy="168" r="1.2"/><circle cx="572" cy="176" r="1.2"/>
  </g>

  <!-- bottom strip hardware (center kept clear for note chip) -->
  <g stroke="#8fb6e0" stroke-width="1" opacity=".35">
    <line x1="48" y1="296" x2="48" y2="312"/><line x1="56" y1="296" x2="56" y2="312"/><line x1="64" y1="296" x2="64" y2="312"/>
    <line x1="72" y1="296" x2="72" y2="312"/><line x1="80" y1="296" x2="80" y2="312"/><line x1="88" y1="296" x2="88" y2="312"/>
  </g>
  <g fill="#0e2848" stroke="#8fb6e0" stroke-width="1" opacity=".55">
    <rect x="466" y="296" width="14" height="10" rx="2"/>
    <rect x="486" y="296" width="14" height="10" rx="2"/>
    <rect x="506" y="296" width="14" height="10" rx="2"/>
  </g>

  <!-- ===== CRT SCREEN ===== -->
  <rect x="44" y="40" width="476" height="222" rx="8" fill="url(#asdscr)" stroke="#8fb6e0" stroke-width="1.2" opacity=".95"/>
  <rect x="44" y="40" width="476" height="222" rx="8" fill="none" stroke="#020912" stroke-width="3" opacity=".5"/>
  <path d="M58 46 L250 46 L150 132 L58 168 Z" fill="#9fd0ff" opacity=".045"/>

  <!-- dim graticule 10x5 + baseline comb + ruler numbers (always on: static panel must read) -->
  <path d="M66.0 56.0 V226.0 M110.0 56.0 V226.0 M154.0 56.0 V226.0 M198.0 56.0 V226.0 M242.0 56.0 V226.0 M286.0 56.0 V226.0 M330.0 56.0 V226.0 M374.0 56.0 V226.0 M418.0 56.0 V226.0 M462.0 56.0 V226.0 M506.0 56.0 V226.0 M66.0 56.0 H506.0 M66.0 90.0 H506.0 M66.0 124.0 H506.0 M66.0 158.0 H506.0 M66.0 192.0 H506.0" fill="none" stroke="#5fe0ff" stroke-width="1" opacity=".16"/>
  <path d="M286.0 56.0 V226.0" fill="none" stroke="#5fe0ff" stroke-width="1" opacity=".2"/>
  <path d="M66.0 226.0 V232.0 M110.0 226.0 V232.0 M154.0 226.0 V232.0 M198.0 226.0 V232.0 M242.0 226.0 V232.0 M286.0 226.0 V232.0 M330.0 226.0 V232.0 M374.0 226.0 V232.0 M418.0 226.0 V232.0 M462.0 226.0 V232.0 M506.0 226.0 V232.0 M88.0 226.0 V229.5 M132.0 226.0 V229.5 M176.0 226.0 V229.5 M220.0 226.0 V229.5 M264.0 226.0 V229.5 M308.0 226.0 V229.5 M352.0 226.0 V229.5 M396.0 226.0 V229.5 M440.0 226.0 V229.5 M484.0 226.0 V229.5" fill="none" stroke="#5fe0ff" stroke-width="1" opacity=".4"/>
  <text x="66.0" y="246" text-anchor="middle" font-size="11" fill="#9fe6ff" opacity=".55">0</text><text x="154.0" y="246" text-anchor="middle" font-size="11" fill="#9fe6ff" opacity=".55">20</text><text x="242.0" y="246" text-anchor="middle" font-size="11" fill="#9fe6ff" opacity=".55">40</text><text x="330.0" y="246" text-anchor="middle" font-size="11" fill="#9fe6ff" opacity=".55">60</text><text x="418.0" y="246" text-anchor="middle" font-size="11" fill="#9fe6ff" opacity=".55">80</text><text x="506.0" y="246" text-anchor="middle" font-size="11" fill="#9fe6ff" opacity=".55">100</text>

  <!-- amplitude (volts) axis hint -->
  <g opacity=".5">
    <line x1="54" y1="196" x2="54" y2="86" stroke="#5fe0ff" stroke-width="1"/>
    <path d="M54 78 L50.6 87 L57.4 87 Z" fill="#5fe0ff"/>
    <text x="54" y="70" text-anchor="middle" font-size="11" fill="#9fe6ff">V</text>
  </g>

  <!-- dim live trace (IP + flaw 50mm + minor 65mm + BW 90mm + grass) -->
  <path d="M66 224 L67.5 72 L69 64.5 L70.5 112 L72 206 L74 120 L76 212 L78.5 164 L81 219 L84 200 L86.5 222.5 L89 214 L92 223.5 L98.5 225.1 L104.2 224.4 L109.9 222.3 L115.6 225.2 L123.6 225.2 L130.9 223.7 L137.6 221.6 L144.0 222.5 L151.9 225.1 L159.4 224.7 L165.0 225.3 L172.6 224.6 L179.8 224.6 L187.7 224.1 L195.0 224.5 L202.6 224.9 L208.5 224.6 L214.5 221.9 L222.2 224.4 L228.7 224.1 L235.9 224.6 L244.3 224.5 L249.9 224.1 L258.4 223.9 L265.1 222.3 L271.1 221.8 L277.0 225.0 L279 223.5 L283 154 L286 138 L288.5 172 L290.5 198 L292.5 182 L295 222.5 L303.1 225.3 L310.3 223.8 L318.4 224.9 L324.9 223.8 L330.9 225.1 L337.1 224.5 L343.4 225.4 L347 223.5 L350 196 L352 182 L354 202 L356.5 222.5 L363.1 224.4 L370.7 224.5 L378.2 225.3 L386.0 223.8 L392.7 222.0 L398.4 225.3 L404.4 223.0 L410.4 225.2 L415.9 223.8 L421.9 224.9 L428.5 225.2 L436.9 224.6 L442.7 225.2 L449.0 223.9 L454.6 223.7 L454 223.5 L458 128 L461.5 94 L464.5 148 L467.5 206 L470.5 168 L473.5 216 L477 223 L482.9 222.2 L491.4 223.8 L497.7 224.7 L505.5 224.4 L506 224.5" fill="none" stroke="#5fe0ff" stroke-width="1.5" stroke-linejoin="round" opacity=".36"/>

  <!-- ===== REVEAL: bright graticule power-up (draw) ===== -->
  <path id="asdGrid" d="M66.0 56.0 V226.0 M110.0 56.0 V226.0 M154.0 56.0 V226.0 M198.0 56.0 V226.0 M242.0 56.0 V226.0 M286.0 56.0 V226.0 M330.0 56.0 V226.0 M374.0 56.0 V226.0 M418.0 56.0 V226.0 M462.0 56.0 V226.0 M506.0 56.0 V226.0 M66.0 56.0 H506.0 M66.0 90.0 H506.0 M66.0 124.0 H506.0 M66.0 158.0 H506.0 M66.0 192.0 H506.0" fill="none" stroke="#5fe0ff" stroke-width="1" opacity=".35"
        pathLength="100" stroke-dasharray="100" stroke-dashoffset="100"/>

  <!-- ===== REVEAL: CRT sweep redraws the full trace (draw) ===== -->
  <path id="asdTrace" d="M66 224 L67.5 72 L69 64.5 L70.5 112 L72 206 L74 120 L76 212 L78.5 164 L81 219 L84 200 L86.5 222.5 L89 214 L92 223.5 L98.5 225.1 L104.2 224.4 L109.9 222.3 L115.6 225.2 L123.6 225.2 L130.9 223.7 L137.6 221.6 L144.0 222.5 L151.9 225.1 L159.4 224.7 L165.0 225.3 L172.6 224.6 L179.8 224.6 L187.7 224.1 L195.0 224.5 L202.6 224.9 L208.5 224.6 L214.5 221.9 L222.2 224.4 L228.7 224.1 L235.9 224.6 L244.3 224.5 L249.9 224.1 L258.4 223.9 L265.1 222.3 L271.1 221.8 L277.0 225.0 L279 223.5 L283 154 L286 138 L288.5 172 L290.5 198 L292.5 182 L295 222.5 L303.1 225.3 L310.3 223.8 L318.4 224.9 L324.9 223.8 L330.9 225.1 L337.1 224.5 L343.4 225.4 L347 223.5 L350 196 L352 182 L354 202 L356.5 222.5 L363.1 224.4 L370.7 224.5 L378.2 225.3 L386.0 223.8 L392.7 222.0 L398.4 225.3 L404.4 223.0 L410.4 225.2 L415.9 223.8 L421.9 224.9 L428.5 225.2 L436.9 224.6 L442.7 225.2 L449.0 223.9 L454.6 223.7 L454 223.5 L458 128 L461.5 94 L464.5 148 L467.5 206 L470.5 168 L473.5 216 L477 223 L482.9 222.2 L491.4 223.8 L497.7 224.7 L505.5 224.4 L506 224.5" fill="none" stroke="#7fd8ff" stroke-width="1.8" stroke-linejoin="round" opacity=".95"
        filter="url(#asdglowC)" pathLength="100" stroke-dasharray="100" stroke-dashoffset="100"/>

  <!-- ===== REVEAL: initial pulse ===== -->
  <g id="asdPulse" opacity="0">
    <path d="M66 224 L67.5 72 L69 64.5 L70.5 112 L72 206 L74 120 L76 212 L78.5 164 L81 219 L84 200 L86.5 222.5 L89 214 L92 223.5" fill="none" stroke="#5fe0ff" stroke-width="2.4" stroke-linejoin="round" stroke-linecap="round" filter="url(#asdglowC)"/>
    <text x="86" y="66" text-anchor="middle" font-size="11" fill="#9fe6ff" opacity=".9">IP</text>
  </g>

  <!-- ===== REVEAL: flaw echo at 50 mm ===== -->
  <g id="asdEcho" opacity="0">
    <path d="M279 223.5 L283 154 L286 138 L288.5 172 L290.5 198 L292.5 182 L295 222.5" fill="none" stroke="#ffc24b" stroke-width="2.4" stroke-linejoin="round" stroke-linecap="round" filter="url(#asdglowW)"/>
    <text x="286" y="126" text-anchor="middle" font-size="12" fill="#ffc24b" opacity=".95">FLAW ECHO</text>
  </g>
  <circle id="asdPing" cx="286" cy="138" r="6" fill="none" stroke="#ffc24b" stroke-width="2" opacity="0" filter="url(#asdglowW)"/>

  <!-- ===== REVEAL: back-wall echo at 90 mm ===== -->
  <g id="asdBackwall" opacity="0">
    <path d="M454 223.5 L458 128 L461.5 94 L464.5 148 L467.5 206 L470.5 168 L473.5 216 L477 223" fill="none" stroke="#5fe0ff" stroke-width="2.4" stroke-linejoin="round" stroke-linecap="round" filter="url(#asdglowC)"/>
    <text x="462" y="82" text-anchor="middle" font-size="12" fill="#9fe6ff" opacity=".95">BW</text>
  </g>

  <!-- ===== REVEAL: ruler lights up — time IS distance ===== -->
  <g id="asdRuler" opacity="0">
    <path d="M66.0 226.0 V232.0 M110.0 226.0 V232.0 M154.0 226.0 V232.0 M198.0 226.0 V232.0 M242.0 226.0 V232.0 M286.0 226.0 V232.0 M330.0 226.0 V232.0 M374.0 226.0 V232.0 M418.0 226.0 V232.0 M462.0 226.0 V232.0 M506.0 226.0 V232.0 M88.0 226.0 V229.5 M132.0 226.0 V229.5 M176.0 226.0 V229.5 M220.0 226.0 V229.5 M264.0 226.0 V229.5 M308.0 226.0 V229.5 M352.0 226.0 V229.5 M396.0 226.0 V229.5 M440.0 226.0 V229.5 M484.0 226.0 V229.5" fill="none" stroke="#5fe0ff" stroke-width="1.2" opacity=".85"/>
    <text x="66.0" y="246" text-anchor="middle" font-size="11" fill="#9fe6ff" opacity=".95">0</text><text x="154.0" y="246" text-anchor="middle" font-size="11" fill="#9fe6ff" opacity=".95">20</text><text x="242.0" y="246" text-anchor="middle" font-size="11" fill="#9fe6ff" opacity=".95">40</text><text x="330.0" y="246" text-anchor="middle" font-size="11" fill="#9fe6ff" opacity=".95">60</text><text x="418.0" y="246" text-anchor="middle" font-size="11" fill="#9fe6ff" opacity=".95">80</text><text x="506.0" y="246" text-anchor="middle" font-size="11" fill="#9fe6ff" opacity=".95">100</text>
    <line x1="66" y1="253" x2="496" y2="253" stroke="#5fe0ff" stroke-width="1.2" opacity=".7"/>
    <path d="M506 253 L496 249.6 L496 256.4 Z" fill="#5fe0ff" opacity=".8"/>
    <line x1="286" y1="147" x2="286" y2="222" stroke="#ffc24b" stroke-width="1.2" stroke-dasharray="3 3" opacity=".65"/>
    <path d="M286 227.5 L282 234 L290 234 Z" fill="#ffc24b" opacity=".9"/>
    <text x="286" y="246" text-anchor="middle" font-size="11" fill="#ffc24b">50</text>
  </g>

  <!-- ===== scan group ===== -->
  <g id="asdscanG" transform="translate(60,0)">
    <rect x="-30" y="0" width="30" height="340" fill="url(#asdscanFade)"/>
    <line x1="0" y1="0" x2="0" y2="340" stroke="#5fe0ff" stroke-width="2" filter="url(#asdglowC)" opacity=".9"/>
  </g>
</svg>
