<svg viewBox="0 0 600 340" width="100%" height="100%" xmlns="http://www.w3.org/2000/svg" font-family="JetBrains Mono, monospace">
  <defs>
    <filter id="ddaGlow" filterUnits="userSpaceOnUse" x="-20" y="-20" width="640" height="380">
      <feGaussianBlur in="SourceGraphic" stdDeviation="2.1" result="b"/>
      <feMerge><feMergeNode in="b"/><feMergeNode in="SourceGraphic"/></feMerge>
    </filter>
  </defs>

  <!-- ===== STATIC BASE: twin glass panels + faint grids + titles ===== -->
  <rect x="28" y="38" width="288" height="254" rx="12" fill="#14304f" opacity=".32"/>
  <rect x="28" y="38" width="288" height="254" rx="12" fill="none" stroke="#8fb6e0" stroke-width="1" opacity=".28"/>
  <rect x="330" y="38" width="244" height="254" rx="12" fill="#14304f" opacity=".32"/>
  <rect x="330" y="38" width="244" height="254" rx="12" fill="none" stroke="#8fb6e0" stroke-width="1" opacity=".28"/>
  <g stroke="#7fd8ff" stroke-width="1" opacity=".07">
    <line x1="76" y1="44" x2="76" y2="286"/><line x1="124" y1="44" x2="124" y2="286"/>
    <line x1="172" y1="44" x2="172" y2="286"/><line x1="220" y1="44" x2="220" y2="286"/>
    <line x1="268" y1="44" x2="268" y2="286"/>
    <line x1="34" y1="86" x2="310" y2="86"/><line x1="34" y1="134" x2="310" y2="134"/>
    <line x1="34" y1="228" x2="310" y2="228"/><line x1="34" y1="276" x2="310" y2="276"/>
    <line x1="378" y1="44" x2="378" y2="286"/><line x1="426" y1="44" x2="426" y2="286"/>
    <line x1="478" y1="44" x2="478" y2="286"/><line x1="526" y1="44" x2="526" y2="286"/>
    <line x1="336" y1="86" x2="568" y2="86"/><line x1="336" y1="134" x2="568" y2="134"/>
    <line x1="336" y1="228" x2="568" y2="228"/><line x1="336" y1="276" x2="568" y2="276"/>
  </g>
  <text x="40" y="58" font-size="11" fill="#9fe6ff" opacity=".8">APPLIED FIELD vs TIME</text>
  <text x="342" y="58" font-size="11" fill="#9fe6ff" opacity=".8">B–H PLANE</text>

  <!-- ===== AXES (draw) ===== -->
  <path id="ddaAxes" d="M58 286 L58 72 M53.5 79.5 L58 71 L62.5 79.5 M53.5 278.5 L58 287 L62.5 278.5 M58 180 L306 180 M299 175.8 L307 180 L299 184.2 M364 178 L558 178 M371 173.8 L363 178 L371 182.2 M551 173.8 L559 178 L551 182.2 M452 284 L452 66 M447.5 73.5 L452 65 L456.5 73.5 M447.5 276.5 L452 285 L456.5 276.5" fill="none" stroke="#8fb6e0" stroke-width="1.5" stroke-linecap="round" stroke-linejoin="round" opacity=".9" pathLength="100" stroke-dasharray="100" stroke-dashoffset="100"/>
  <g id="ddaAxesLbl" font-size="11" fill="#9fe6ff" opacity="0">
    <text x="34" y="80">+H</text>
    <text x="34" y="288">−H</text>
    <text x="298" y="196">t</text>
    <text x="459" y="78">B</text>
    <text x="544" y="170">H</text>
  </g>

  <!-- ===== DECAYING ALTERNATING WAVEFORM (draw, hero) ===== -->
  <path id="ddaWave" d="M62 92L64.4 96.1L66.8 103.6L69.2 114L71.6 126.8L74 141.2L76.4 156.6L78.8 172.3L81.2 187.5L83.6 201.7L86 214.2L88.4 224.6L90.8 232.6L93.2 237.9L95.6 240.5L98 240.3L100.4 237.5L102.8 232.4L105.2 225.2L107.6 216.5L110 206.6L112.4 196L114.8 185.3L117.2 174.8L119.6 165.1L122 156.6L124.4 149.4L126.8 143.9L129.2 140.3L131.6 138.6L134 138.7L136.4 140.6L138.8 144.1L141.2 149L143.6 155L146 161.8L148.4 169L150.8 176.4L153.2 183.5L155.6 190.2L158 196.1L160.4 201L162.8 204.7L165.2 207.2L167.6 208.4L170 208.3L172.4 207L174.8 204.6L177.2 201.2L179.6 197.1L182 192.5L184.4 187.5L186.8 182.5L189.2 177.6L191.6 173L194 169L196.4 165.6L198.8 163.1L201.2 161.4L203.6 160.5L206 160.6L208.4 161.5L210.8 163.1L213.2 165.4L215.6 168.3L218 171.4L220.4 174.8L222.8 178.3L225.2 181.7L227.6 184.8L230 187.5L232.4 189.8L234.8 191.6L237.2 192.8L239.6 193.3L242 193.3L244.4 192.7L246.8 191.5L249.2 190L251.6 188L254 185.9L256.4 183.5L258.8 181.2L261.2 178.9L263.6 176.7L266 174.8L268.4 173.3L270.8 172.1L273.2 171.2L275.6 170.9L278 170.9L280.4 171.3L282.8 172.1L285.2 173.2L287.6 174.5L290 176L292.4 177.6L294.8 179.2L297.2 180.8L299.6 182.2L302 183.5" fill="none" stroke="#5fe0ff" stroke-width="2.2" stroke-linecap="round" stroke-linejoin="round" filter="url(#ddaGlow)" pathLength="100" stroke-dasharray="100" stroke-dashoffset="100"/>

  <!-- ===== DECAY ENVELOPE (fade, dashed) ===== -->
  <g id="ddaEnvelope" opacity="0">
    <path d="M62 88L70 95.4L78 102.2L86 108.5L94 114.3L102 119.6L110 124.4L118 128.9L126 133L134 136.8L142 140.3L150 143.5L158 146.4L166 149.1L174 151.6L182 153.9L190 156L198 157.9L206 159.7L214 161.4L222 162.9L230 164.2L238 165.5L246 166.7L254 167.7L262 168.7L270 169.6L278 170.5L286 171.2L294 171.9L302 172.6" fill="none" stroke="#ffc24b" stroke-width="1.5" stroke-dasharray="5 4" opacity=".9"/>
    <path d="M62 272L70 264.6L78 257.8L86 251.5L94 245.7L102 240.4L110 235.6L118 231.1L126 227L134 223.2L142 219.7L150 216.5L158 213.6L166 210.9L174 208.4L182 206.1L190 204L198 202.1L206 200.3L214 198.6L222 197.1L230 195.8L238 194.5L246 193.3L254 192.3L262 191.3L270 190.4L278 189.5L286 188.8L294 188.1L302 187.4" fill="none" stroke="#ffc24b" stroke-width="1.5" stroke-dasharray="5 4" opacity=".9"/>
    <text x="208" y="136" font-size="11" fill="#ffc24b" text-anchor="middle">AMPLITUDE → 0</text>
  </g>

  <!-- ===== START MARKER (fade + ping) ===== -->
  <g id="ddaStart" opacity="0">
    <path d="M58 92 L302 92" stroke="#ff9b4b" stroke-width="1" stroke-dasharray="3 4" opacity=".4" fill="none"/>
    <circle cx="62" cy="92" r="6" fill="none" stroke="#ff9b4b" stroke-width="2" filter="url(#ddaGlow)"/>
    <path d="M66 86 L104 78" stroke="#ff9b4b" stroke-width="1" opacity=".6" fill="none"/>
    <text x="108" y="81" font-size="11" fill="#ff9b4b">START ≥ ORIGINAL FIELD</text>
  </g>
  <circle id="ddaStartPing" cx="62" cy="92" r="6" fill="none" stroke="#ff9b4b" stroke-width="2" opacity="0" filter="url(#ddaGlow)"/>

  <!-- ===== HYSTERESIS LOOPS SPIRALING TO ORIGIN (draw) ===== -->
  <path id="ddaLoops" d="M540 99.9L539.7 98.7L538.9 97.8L537.5 97.1L535.5 96.6L533.1 96.2L530.1 96.1L526.6 96L522.6 96.1L518.2 96.3L513.3 96.7L508.1 97.3L502.5 98L496.5 99L490.3 100.3L483.9 101.9L477.2 104L470.4 106.7L463.5 110L456.5 114.1L449.4 119.1L442.4 125.2L435.4 132.5L428.6 140.9L421.9 150.5L415.4 161.1L409.1 172.2L403.1 183.6L397.4 194.7L392.1 205.3L387.1 214.9L382.6 223.4L378.5 230.6L374.8 236.8L371.7 241.8L369.1 245.9L367 249.3L365.4 251.9L364.5 254L364 255.7L364.2 257L364.8 258L366.1 258.7L367.9 259.3L370.2 259.7L373.1 259.9L376.4 260L380.3 259.9L384.6 259.8L389.3 259.4L394.5 258.9L400 258.2L405.8 257.3L412 256.1L418.3 254.5L425 252.6L431.7 250.1L438.6 247L445.6 243.1L452.7 238.3L459.7 232.5L466.7 225.6L473.6 217.5L480.3 208.2L486.9 197.9L493.2 186.8L499.3 175.5L505.1 164.2L510.5 153.5L515.6 143.6L520.2 134.8L524.5 127.2L528.2 120.8L531.5 115.4L534.3 111.1L536.5 107.6L538.2 104.7L539.3 102.5L539.9 100.7ZM510.1 126.5L509.9 125.7L509.3 125.1L508.4 124.6L507.1 124.3L505.5 124L503.5 123.9L501.2 123.9L498.6 123.9L495.7 124.1L492.5 124.3L489 124.7L485.3 125.2L481.4 125.9L477.3 126.7L473 127.8L468.7 129.2L464.2 130.9L459.6 133.1L454.9 135.8L450.3 139.1L445.7 143.2L441.1 148L436.6 153.5L432.1 159.9L427.8 166.8L423.7 174.2L419.7 181.7L416 189L412.4 196L409.2 202.3L406.2 207.9L403.5 212.7L401.1 216.8L399 220.1L397.3 222.8L395.9 225L394.9 226.8L394.2 228.2L393.9 229.3L394 230.1L394.5 230.8L395.3 231.3L396.5 231.7L398 231.9L399.9 232.1L402.1 232.1L404.7 232.1L407.5 232L410.6 231.7L414 231.4L417.7 230.9L421.5 230.3L425.6 229.5L429.8 228.5L434.2 227.2L438.6 225.6L443.2 223.5L447.8 221L452.4 217.8L457.1 214L461.7 209.4L466.2 204L470.7 197.9L475 191.1L479.2 183.8L483.2 176.3L487 168.9L490.6 161.8L494 155.3L497 149.5L499.8 144.5L502.3 140.2L504.5 136.7L506.3 133.8L507.8 131.5L508.9 129.7L509.6 128.2L510 127ZM489.8 144.4L489.6 143.7L488.8 143.2L487.4 142.9L485.6 142.8L483.2 142.8L480.4 142.9L477.3 143.1L473.7 143.6L469.8 144.3L465.7 145.3L461.4 146.7L456.9 148.8L452.4 151.5L447.9 155.3L443.4 160.2L439.1 166.2L434.9 173.1L431 180.4L427.4 187.5L424.1 193.9L421.2 199.1L418.8 203.3L416.9 206.4L415.4 208.6L414.5 210.3L414.2 211.4L414.3 212.2L415.1 212.7L416.3 213L418.1 213.2L420.3 213.3L423 213.2L426.1 212.9L429.6 212.5L433.4 211.9L437.5 210.9L441.8 209.6L446.3 207.7L450.8 205L455.3 201.5L459.8 196.8L464.2 191L468.4 184.2L472.3 176.9L476 169.7L479.3 163.2L482.3 157.7L484.8 153.4L486.8 150.1L488.3 147.7L489.3 146L489.8 144.8ZM475.8 156.9L475.6 156.5L475.1 156.2L474.2 156L473.1 155.9L471.6 155.9L469.9 155.9L467.9 156.1L465.6 156.4L463.2 156.8L460.6 157.5L457.9 158.4L455.1 159.6L452.3 161.4L449.4 163.7L446.6 166.8L443.9 170.6L441.3 174.9L438.8 179.5L436.5 184L434.5 188L432.7 191.3L431.2 193.9L429.9 195.8L429 197.2L428.5 198.3L428.2 199L428.4 199.5L428.8 199.8L429.6 200L430.7 200.1L432.1 200.1L433.8 200.1L435.8 199.9L438 199.7L440.4 199.3L442.9 198.7L445.6 197.8L448.4 196.6L451.2 195L454.1 192.7L456.9 189.8L459.6 186.1L462.3 181.9L464.8 177.3L467.1 172.8L469.2 168.7L471 165.3L472.6 162.5L473.9 160.5L474.8 159L475.4 157.9L475.7 157.1ZM465.2 166.3L465 165.9L464.4 165.8L463.3 165.7L461.9 165.7L460.2 165.9L458.2 166.2L456 166.8L453.7 167.8L451.4 169.4L449 171.8L446.7 175.1L444.7 178.8L442.8 182.5L441.3 185.4L440.1 187.4L439.2 188.7L438.8 189.5L438.9 189.9L439.3 190.2L440.2 190.3L441.4 190.3L443 190.2L444.9 189.9L447 189.5L449.2 188.7L451.6 187.4L453.9 185.4L456.2 182.5L458.4 178.9L460.4 175.1L462.1 171.8L463.4 169.4L464.4 167.8L465 166.8Z" fill="none" stroke="#7fd8ff" stroke-width="1.7" stroke-linecap="round" stroke-linejoin="round" filter="url(#ddaGlow)" pathLength="100" stroke-dasharray="100" stroke-dashoffset="100"/>
  <g id="ddaLoopsDot" opacity="0">
    <circle cx="452" cy="178" r="3.4" fill="#5fe0ff" filter="url(#ddaGlow)"/>
    <circle cx="452" cy="178" r="8" fill="none" stroke="#5fe0ff" stroke-width="1" opacity=".5"/>
    <path d="M457 183 L482 216" stroke="#9fe6ff" stroke-width="1" opacity=".5" fill="none"/>
    <text x="486" y="224" font-size="10.5" fill="#9fe6ff" opacity=".85">B ≈ 0</text>
  </g>
</svg>
