<svg viewBox="0 0 600 340" width="100%" height="100%" xmlns="http://www.w3.org/2000/svg" font-family="JetBrains Mono, monospace">
  <defs>
    <filter id="gvfGlow" filterUnits="userSpaceOnUse" x="-20" y="-20" width="640" height="380">
      <feGaussianBlur in="SourceGraphic" stdDeviation="1.6" result="b"/>
      <feMerge><feMergeNode in="b"/><feMergeNode in="SourceGraphic"/></feMerge>
    </filter>
    <linearGradient id="gvfProbeG" x1="0" y1="34" x2="0" y2="60" gradientUnits="userSpaceOnUse">
      <stop offset="0" stop-color="#2a5584"/><stop offset=".5" stop-color="#16334f"/><stop offset="1" stop-color="#0c2340"/>
    </linearGradient>
    <linearGradient id="gvfScrG" x1="0" y1="206" x2="0" y2="302" gradientUnits="userSpaceOnUse">
      <stop offset="0" stop-color="#0a1e3c" stop-opacity=".6"/><stop offset="1" stop-color="#050f1f" stop-opacity=".62"/>
    </linearGradient>
    <marker id="gvfArrA" orient="auto" markerUnits="userSpaceOnUse" markerWidth="8" markerHeight="7" refX="6" refY="3">
      <path d="M0 0 L7 3 L0 6 Z" fill="#ffc24b"/>
    </marker>
    <marker id="gvfArrC" orient="auto" markerUnits="userSpaceOnUse" markerWidth="8" markerHeight="7" refX="6" refY="3">
      <path d="M0 0 L7 3 L0 6 Z" fill="#5fe0ff"/>
    </marker>
  </defs>

  <!-- ===================== STATIC SCENE ===================== -->
  <!-- divider + same-wall tag -->
  <line x1="300" y1="34" x2="300" y2="334" stroke="#8fb6e0" stroke-width="1.5" stroke-dasharray="5 5" opacity=".28"/>
  <rect x="224" y="11" width="152" height="17" rx="8.5" fill="rgba(10,30,60,.55)" stroke="#8fb6e0" stroke-width="1" stroke-opacity=".5"/>
  <text x="300" y="23" text-anchor="middle" font-size="9.5" letter-spacing=".5" fill="#9fe6ff" opacity=".9">SAME COARSE-GRAINED WALL</text>

  <!-- casting wall, left (grains shared via use) -->
  <g id="gvfGrainsL">
    <rect x="36" y="66" width="228" height="94" fill="#0e2848"/>
    <g stroke="#8fb6e0" stroke-width="1" stroke-opacity=".4" stroke-linejoin="round">
      <path d="M36 66 L52.5 66 L66.9 66 L60.5 77.7 L58.7 83.8 L43.9 87.9 L36 91.9 L36 77.2 Z" fill="#14304f"/>
      <path d="M66.9 66 L77.5 66 L85.4 66 L79.8 81.7 L82.5 92.9 L70.3 92.8 L58.7 83.8 L60.5 77.7 Z" fill="#14304f"/>
      <path d="M85.4 66 L95.5 66 L110 66 L113 75.2 L107.3 84.7 L95.7 84.5 L82.5 92.9 L79.8 81.7 Z" fill="#173a5e"/>
      <path d="M110 66 L124.2 66 L141.7 66 L142.9 83.4 L137.1 94.8 L123.8 92.1 L107.3 84.7 L113 75.2 Z" fill="#102c4c"/>
      <path d="M141.7 66 L157 66 L167.3 66 L167 81.4 L160.1 92.4 L148.1 89.4 L137.1 94.8 L142.9 83.4 Z" fill="#173a5e"/>
      <path d="M167.3 66 L178.2 66 L181.1 66 L186.3 76.6 L184.7 85 L174.6 90.5 L160.1 92.4 L167 81.4 Z" fill="#0c2440"/>
      <path d="M181.1 66 L195.9 66 L216 66 L209.8 72.8 L209.2 85.7 L194.6 87.5 L184.7 85 L186.3 76.6 Z" fill="#0c2440"/>
      <path d="M216 66 L225 66 L235.4 66 L240.2 76.7 L242.3 94.4 L227.1 89 L209.2 85.7 L209.8 72.8 Z" fill="#1a3d63"/>
      <path d="M235.4 66 L247.9 66 L264 66 L264 75.3 L264 89.8 L252.7 93.1 L242.3 94.4 L240.2 76.7 Z" fill="#0c2440"/>
      <path d="M36 91.9 L43.9 87.9 L58.7 83.8 L56.9 94.6 L56.2 112.5 L46.7 114.2 L36 115.8 L36 104.4 Z" fill="#14304f"/>
      <path d="M58.7 83.8 L70.3 92.8 L82.5 92.9 L87.8 103.5 L92 111.1 L75 107.5 L56.2 112.5 L56.9 94.6 Z" fill="#14304f"/>
      <path d="M82.5 92.9 L95.7 84.5 L107.3 84.7 L105.6 96.1 L112.4 115.5 L105.8 111.9 L92 111.1 L87.8 103.5 Z" fill="#102c4c"/>
      <path d="M107.3 84.7 L123.8 92.1 L137.1 94.8 L132.7 101.8 L136.9 109.9 L127.9 112.5 L112.4 115.5 L105.6 96.1 Z" fill="#14304f"/>
      <path d="M137.1 94.8 L148.1 89.4 L160.1 92.4 L157.9 103.5 L161.7 112.3 L145.4 114.5 L136.9 109.9 L132.7 101.8 Z" fill="#173a5e"/>
      <path d="M160.1 92.4 L174.6 90.5 L184.7 85 L191.2 100.2 L190.8 107.7 L176.3 105.8 L161.7 112.3 L157.9 103.5 Z" fill="#14304f"/>
      <path d="M184.7 85 L194.6 87.5 L209.2 85.7 L208 102.7 L207.3 118.3 L195.9 114.6 L190.8 107.7 L191.2 100.2 Z" fill="#173a5e"/>
      <path d="M209.2 85.7 L227.1 89 L242.3 94.4 L240 101.4 L240.2 111.2 L225.4 113.9 L207.3 118.3 L208 102.7 Z" fill="#173a5e"/>
      <path d="M242.3 94.4 L252.7 93.1 L264 89.8 L264 99.9 L264 112.2 L255 107.5 L240.2 111.2 L240 101.4 Z" fill="#173a5e"/>
      <path d="M36 115.8 L46.7 114.2 L56.2 112.5 L58.2 127.9 L57.4 141 L42.8 139 L36 138.2 L36 130.7 Z" fill="#102c4c"/>
      <path d="M56.2 112.5 L75 107.5 L92 111.1 L85 122.4 L82.5 134.2 L72.6 135.8 L57.4 141 L58.2 127.9 Z" fill="#14304f"/>
      <path d="M92 111.1 L105.8 111.9 L112.4 115.5 L115.8 127.5 L114.3 133.7 L102.1 133.8 L82.5 134.2 L85 122.4 Z" fill="#14304f"/>
      <path d="M112.4 115.5 L127.9 112.5 L136.9 109.9 L140 120.8 L136.7 134.6 L122.9 130.9 L114.3 133.7 L115.8 127.5 Z" fill="#173a5e"/>
      <path d="M136.9 109.9 L145.4 114.5 L161.7 112.3 L160.2 128.2 L158.3 141.9 L148.8 135.9 L136.7 134.6 L140 120.8 Z" fill="#14304f"/>
      <path d="M161.7 112.3 L176.3 105.8 L190.8 107.7 L191.1 125.3 L189.5 137.6 L171.4 136.5 L158.3 141.9 L160.2 128.2 Z" fill="#173a5e"/>
      <path d="M190.8 107.7 L195.9 114.6 L207.3 118.3 L211.8 124.2 L209.5 135.6 L195.7 132.4 L189.5 137.6 L191.1 125.3 Z" fill="#1a3d63"/>
      <path d="M207.3 118.3 L225.4 113.9 L240.2 111.2 L237 124.3 L232.6 134.1 L222 136.9 L209.5 135.6 L211.8 124.2 Z" fill="#1a3d63"/>
      <path d="M240.2 111.2 L255 107.5 L264 112.2 L264 122 L264 134.2 L247.8 137.5 L232.6 134.1 L237 124.3 Z" fill="#102c4c"/>
      <path d="M36 138.2 L42.8 139 L57.4 141 L54.6 154.1 L55.8 160 L46 160 L36 160 L36 152.8 Z" fill="#0c2440"/>
      <path d="M57.4 141 L72.6 135.8 L82.5 134.2 L81.2 146.3 L83.1 160 L72.9 160 L55.8 160 L54.6 154.1 Z" fill="#14304f"/>
      <path d="M82.5 134.2 L102.1 133.8 L114.3 133.7 L111.3 150.6 L115.8 160 L97.6 160 L83.1 160 L81.2 146.3 Z" fill="#102c4c"/>
      <path d="M114.3 133.7 L122.9 130.9 L136.7 134.6 L137 149.1 L134.6 160 L126.9 160 L115.8 160 L111.3 150.6 Z" fill="#14304f"/>
      <path d="M136.7 134.6 L148.8 135.9 L158.3 141.9 L155.8 152.5 L155.7 160 L147.2 160 L134.6 160 L137 149.1 Z" fill="#0c2440"/>
      <path d="M158.3 141.9 L171.4 136.5 L189.5 137.6 L187.8 148.1 L191 160 L175.2 160 L155.7 160 L155.8 152.5 Z" fill="#1a3d63"/>
      <path d="M189.5 137.6 L195.7 132.4 L209.5 135.6 L213.5 150 L215.5 160 L205.9 160 L191 160 L187.8 148.1 Z" fill="#102c4c"/>
      <path d="M209.5 135.6 L222 136.9 L232.6 134.1 L233.4 148.5 L238.5 160 L224.1 160 L215.5 160 L213.5 150 Z" fill="#1a3d63"/>
      <path d="M232.6 134.1 L247.8 137.5 L264 134.2 L264 149.3 L264 160 L254.7 160 L238.5 160 L233.4 148.5 Z" fill="#102c4c"/>
    </g>
    <!-- shrinkage flaw (same wall, same flaw) -->
    <path d="M179 110 l5 -3.5 l6 2 l3 4.5 l-5 3.5 l-7 -1.5 Z" fill="#060e1c" stroke="#ff6b6b" stroke-width="1.3" opacity=".9"/>
    <circle cx="174.5" cy="116.5" r="1.4" fill="#060e1c" stroke="#ff6b6b" stroke-width="1" opacity=".75"/>
    <circle cx="194.5" cy="106" r="1.2" fill="#060e1c" stroke="#ff6b6b" stroke-width="1" opacity=".75"/>
    <!-- wall outline: back wall heavy -->
    <rect x="36" y="66" width="228" height="94" fill="none" stroke="#8fb6e0" stroke-width="1.2" opacity=".5"/>
    <line x1="36" y1="160" x2="264" y2="160" stroke="#8fb6e0" stroke-width="2"/>
    <!-- probe on top -->
    <path d="M166 34 C166 22 186 16 210 12" fill="none" stroke="#8fb6e0" stroke-width="1.6" opacity=".7"/>
    <rect x="124" y="34" width="52" height="22" rx="3" fill="url(#gvfProbeG)" stroke="#8fb6e0" stroke-width="1.5"/>
    <line x1="134" y1="38" x2="134" y2="52" stroke="#8fb6e0" stroke-width="1" opacity=".35"/>
    <line x1="142" y1="38" x2="142" y2="52" stroke="#8fb6e0" stroke-width="1" opacity=".35"/>
    <rect x="128" y="56" width="44" height="5" fill="#1E66F5" opacity=".9" stroke="#7fd8ff" stroke-width=".8"/>
    <rect x="124" y="61" width="52" height="4" fill="#0e2848" stroke="#8fb6e0" stroke-width="1"/>
    <line x1="124" y1="65.4" x2="176" y2="65.4" stroke="#5fe0ff" stroke-width="1.2" opacity=".55"/>
  </g>
  <use href="#gvfGrainsL" x="300"/>
  <text x="38" y="172" font-size="8.5" fill="#9fe6ff" opacity=".55">BACK WALL</text>
  <text x="564" y="172" text-anchor="end" font-size="8.5" fill="#9fe6ff" opacity=".55">BACK WALL</text>

  <!-- A-scan strips (instrument idle until each side fires) -->
  <g>
    <rect x="30" y="206" width="240" height="96" rx="8" fill="url(#gvfScrG)" stroke="#8fb6e0" stroke-width="1.5"/>
    <rect x="330" y="206" width="240" height="96" rx="8" fill="url(#gvfScrG)" stroke="#8fb6e0" stroke-width="1.5"/>
    <g stroke="#2b86ff" stroke-opacity=".16">
      <line x1="62" y1="214" x2="62" y2="288"/><line x1="84" y1="214" x2="84" y2="288"/><line x1="106" y1="214" x2="106" y2="288"/><line x1="128" y1="214" x2="128" y2="288"/><line x1="150" y1="214" x2="150" y2="288"/><line x1="172" y1="214" x2="172" y2="288"/><line x1="194" y1="214" x2="194" y2="288"/><line x1="216" y1="214" x2="216" y2="288"/><line x1="238" y1="214" x2="238" y2="288"/>
      <line x1="40" y1="232.5" x2="260" y2="232.5"/><line x1="40" y1="251" x2="260" y2="251"/><line x1="40" y1="269.5" x2="260" y2="269.5"/>
      <line x1="362" y1="214" x2="362" y2="288"/><line x1="384" y1="214" x2="384" y2="288"/><line x1="406" y1="214" x2="406" y2="288"/><line x1="428" y1="214" x2="428" y2="288"/><line x1="450" y1="214" x2="450" y2="288"/><line x1="472" y1="214" x2="472" y2="288"/><line x1="494" y1="214" x2="494" y2="288"/><line x1="516" y1="214" x2="516" y2="288"/><line x1="538" y1="214" x2="538" y2="288"/>
      <line x1="340" y1="232.5" x2="560" y2="232.5"/><line x1="340" y1="251" x2="560" y2="251"/><line x1="340" y1="269.5" x2="560" y2="269.5"/>
    </g>
    <rect x="40" y="214" width="220" height="74" fill="none" stroke="#2b86ff" stroke-opacity=".35"/>
    <rect x="340" y="214" width="220" height="74" fill="none" stroke="#2b86ff" stroke-opacity=".35"/>
    <text x="256" y="298.5" text-anchor="end" font-size="8.5" fill="#9fe6ff" opacity=".5">A-SCAN</text>
    <text x="556" y="298.5" text-anchor="end" font-size="8.5" fill="#9fe6ff" opacity=".5">A-SCAN</text>
  </g>

  <!-- ===================== gvfHi : 5 MHz side ===================== -->
  <g id="gvfHi" opacity="0">
    <text x="36" y="27" font-size="15" font-weight="700" letter-spacing="1" fill="#eaf6ff">5 MHZ</text>
    <text x="36" y="42" font-size="9.5" fill="#9fe6ff" opacity=".8">&#955; &#8776; 1.2 MM</text>
    <!-- short-wavelength ripples, killed early -->
    <g fill="none" stroke="#5fe0ff" stroke-width="1.5">
      <path d="M144.3 70 A7 7 0 0 0 155.7 70" opacity=".9"/>
      <path d="M139.4 73.5 A13 13 0 0 0 160.6 73.5" opacity=".7"/>
      <path d="M134.4 76.9 A19 19 0 0 0 165.6 76.9" opacity=".5"/>
      <path d="M129.5 80.4 A25 25 0 0 0 170.5 80.4" opacity=".32"/>
    </g>
    <!-- scatter off individual grains -->
    <g fill="none" stroke="#ffc24b" stroke-width="1.6" stroke-linecap="round">
      <polyline points="150,88 124,104 142,122" marker-end="url(#gvfArrA)" opacity=".9"/>
      <polyline points="156,90 184,102 168,124" marker-end="url(#gvfArrA)" opacity=".9"/>
      <polyline points="138,86 112,74" marker-end="url(#gvfArrA)" opacity=".75"/>
      <polyline points="163,87 196,77" marker-end="url(#gvfArrA)" opacity=".75"/>
      <polyline points="146,92 148,114 126,132" marker-end="url(#gvfArrA)" opacity=".7"/>
      <polyline points="160,93 176,116 198,126" marker-end="url(#gvfArrA)" opacity=".7"/>
    </g>
    <g fill="none" stroke="#ffc24b" stroke-width="1.1" opacity=".55">
      <path d="M118 100 A6 6 0 0 0 130 100"/>
      <path d="M178 98 A6 6 0 0 1 188 105"/>
      <path d="M142 118 A6 6 0 0 0 154 118"/>
    </g>
    <rect x="90" y="138" width="120" height="14" rx="4" fill="#08152b" opacity=".8"/>
    <text x="150" y="148.5" text-anchor="middle" font-size="9" fill="#ffc24b">BEAM LOST IN SCATTER</text>
    <!-- A-scan: initial pulse + tall grass, back echo buried -->
    <path d="M44 288 L46 219 L48 288 L50 252 L52 288" fill="none" stroke="#7fd8ff" stroke-width="1.6" opacity=".95"/>
    <polyline points="40,288 57,287.8 58.6,265.1 60.1,287.7 61.7,264.9 63.2,287 64.8,251.8 66.3,287.4 67.9,249.1 69.4,287.8 70.9,279 72.5,287.4 74,245.5 75.6,285.3 77.1,271.2 78.7,287 80.2,268.1 81.8,287.1 83.3,249.7 84.9,285.7 86.4,275.9 88,285.1 89.5,267 91.1,286.7 92.6,275.4 94.2,285.5 95.7,279 97.3,286.9 98.8,275.6 100.4,287.4 101.9,274.9 103.5,287.4 105,278.9 106.6,284.7 108.1,277.9 109.7,284.2 111.2,276.2 112.8,284.1 114.3,270.6 115.9,286.5 117.4,250.8 119,286.6 120.5,276.3 122.1,286.4 123.6,277.8 125.2,285.8 126.7,248.6 128.3,284.1 129.8,274.5 131.4,284.7 132.9,268.7 134.5,285.3 136,270.7 137.6,285.4 139.1,271.8 140.7,285.2 142.2,245 143.8,287.9 145.3,276.6 146.9,287.9 148.4,278.9 150,284 151.5,273.1 153.1,285.8 154.6,278 156.2,287.6 157.7,235.2 159.3,286.5 160.8,237.3 162.4,284.9 163.9,265.2 165.5,286.4 167,240.2 168.6,285.3 170.1,241.3 171.7,284.1 173.2,252.3 174.8,287.3 176.3,262.2 177.9,284.9 179.4,238.4 181,287.8 182.5,253.8 184.1,285 185.6,256.1 187.2,285.8 188.7,256.9 190.3,287 191.8,264.6 193.4,288 194.9,270 196.5,287.9 198,277.8 199.6,287.5 201.1,276.2 202.7,284.6 204.2,258.6 205.8,287.9 207.3,274.5 208.9,285 210.4,276.3 212,284.4 213.5,245.2 215.1,286.7 216.6,263.8 218.2,287.9 219.7,240.4 221.3,286 222.8,265.3 224.4,284.3 225.9,276.2 227.5,285 229,270.8 230.6,284.4 232.1,270 233.7,285.8 235.2,249.8 236.8,285.1 238.3,275.6 239.9,286.1 241.4,259.1 243,285.4 244.5,269.8 246.1,287.2 247.6,272.1 249.2,285.5 250.7,264.5 252.3,285.4 253.8,275.4 255.4,286.3 256.9,263.6 258,288" fill="none" stroke="#ffc24b" stroke-width="1.2" opacity=".9"/>
    <rect x="58" y="231" width="50" height="14" rx="4" fill="#08152b" opacity=".85"/>
    <text x="83" y="241.5" text-anchor="middle" font-size="10" fill="#ffc24b">GRASS</text>
    <line x1="238" y1="230" x2="238" y2="286" stroke="#ff6b6b" stroke-width="1.2" stroke-dasharray="3 3" opacity=".7"/>
    <path d="M234 220 L242 228 M242 220 L234 228" stroke="#ff6b6b" stroke-width="1.6" fill="none" opacity=".9"/>
    <text x="228" y="227" text-anchor="end" font-size="9" fill="#ff6b6b">NO BACK ECHO</text>
    <text x="150" y="322" text-anchor="middle" font-size="11" letter-spacing=".5" fill="#ff6b6b" opacity=".95">GRASS BURIES THE SIGNAL</text>
  </g>

  <!-- ===================== gvfF4 : scatter law callout ===================== -->
  <g id="gvfF4" opacity="0">
    <line x1="200" y1="182" x2="217" y2="182" stroke="#5fe0ff" stroke-width="1.2" opacity=".45"/>
    <line x1="383" y1="182" x2="400" y2="182" stroke="#5fe0ff" stroke-width="1.2" opacity=".45"/>
    <rect x="217" y="162" width="166" height="40" rx="8" fill="#08152b" opacity=".92" stroke="#5fe0ff" stroke-width="1.5" stroke-opacity=".55"/>
    <text x="300" y="180" text-anchor="middle" font-size="14.5" font-weight="700" fill="#eaf6ff">SCATTER &#8733; f<tspan dy="-5" font-size="9.5">4</tspan></text>
    <text x="300" y="195" text-anchor="middle" font-size="9.5" fill="#ffc24b">2&#215; f &#8594; ~16&#215; NOISE</text>
  </g>

  <!-- ===================== gvfLo : 1 MHz side ===================== -->
  <g id="gvfLo" opacity="0">
    <text x="564" y="27" text-anchor="end" font-size="15" font-weight="700" letter-spacing="1" fill="#eaf6ff">1 MHZ</text>
    <text x="564" y="42" text-anchor="end" font-size="9.5" fill="#9fe6ff" opacity=".8">&#955; &#8776; 5.9 MM</text>
    <!-- long-wavelength fronts striding to the back wall -->
    <g fill="none" stroke="#5fe0ff" stroke-width="1.6">
      <path d="M441.4 78.3 A15 15 0 0 0 458.6 78.3" opacity=".8"/>
      <path d="M424.2 102.9 A45 45 0 0 0 475.8 102.9" opacity=".62"/>
      <path d="M407 127.4 A75 75 0 0 0 493 127.4" opacity=".48"/>
      <path d="M397.2 141.4 A92 92 0 0 0 502.8 141.4" opacity=".36"/>
    </g>
    <line x1="478" y1="152" x2="478" y2="84" stroke="#5fe0ff" stroke-width="1.3" opacity=".5" marker-end="url(#gvfArrC)"/>
    <!-- flaw echoes back to the screen -->
    <line x1="485" y1="120" x2="443" y2="231" stroke="#ffc24b" stroke-width="1" stroke-dasharray="3 3" opacity=".45"/>
    <!-- A-scan: clean trace -->
    <path d="M344 288 L346 219 L348 288 L350 252 L352 288" fill="none" stroke="#7fd8ff" stroke-width="1.6" opacity=".95"/>
    <polyline points="340,288 359,287 361.2,284.1 363.4,286.8 365.6,280.5 367.8,287.6 370,284.3 372.2,287.1 374.4,285.3 376.6,286.5 378.8,280.6 381,286.8 383.2,283.9 385.4,287.8 387.6,282.8 389.8,287.1 392,280.6 394.2,287.1 396.4,281.9 398.6,287.7 400.8,281 403,286.7 405.2,285.4 407.4,286.7 409.6,280.8 411.8,287.1 414,281.7 416.2,287.1 418.4,283.6 420.6,287.3 422.8,282.8 425,287.4 427.2,281.4 429.4,287.9 431.6,282.5 433.8,287.4 436,284.4 438.2,287.4 440.4,283.7 442.6,287.9 444.8,280.7 447,287.4 449.2,283.3 451.4,287.1 453.6,282 455.8,287.8 458,283.1 460.2,287.3 462.4,282.4 464.6,287.4 466.8,284.8 469,286.8 471.2,283 473.4,287.9 475.6,283.7 477.8,287 480,284.5 482.2,287.5 484.4,285 486.6,287.7 488.8,284.1 491,287.4 493.2,283.1 495.4,286.6 497.6,284.7 499.8,288 502,284.3 504.2,287.5 506.4,282.8 508.6,286.9 510.8,285 513,287.6 515.2,281.7 517.4,286.6 519.6,284.8 521.8,286.7 524,282.7 526.2,288 528.4,283.1 530.6,287.5 532.8,283.2 535,286.6 537.2,283.7 539.4,287.7 541.6,283.4 543.8,287.2 546,281.9 548.2,287.4 550.4,284.1 556,288" fill="none" stroke="#ffc24b" stroke-width="1.1" opacity=".55"/>
    <path d="M437 288 L443 247 L449 288" fill="none" stroke="#ffc24b" stroke-width="2" filter="url(#gvfGlow)"/>
    <path d="M531 288 L538 220 L545 288" fill="none" stroke="#5fe0ff" stroke-width="2.2" filter="url(#gvfGlow)"/>
    <text x="443" y="241" text-anchor="middle" font-size="9" fill="#ffc24b">FLAW ECHO</text>
    <text x="528" y="227" text-anchor="end" font-size="9" fill="#5fe0ff">BACK ECHO</text>
    <text x="450" y="322" text-anchor="middle" font-size="11" letter-spacing=".5" fill="#5fe0ff" opacity=".95">S/N RESTORED &#8212; FLAW VISIBLE</text>
  </g>
  <circle id="gvfPing" cx="443" cy="247" r="6" fill="none" stroke="#ffc24b" stroke-width="2" opacity="0" filter="url(#gvfGlow)"/>

  <!-- ===================== gvfStride : one wavelength over many grains ===================== -->
  <g id="gvfStrideLbl" opacity="0">
    <rect x="344" y="70" width="80" height="44" rx="4" fill="rgba(10,30,60,.55)" stroke="#9fe6ff" stroke-width="1" stroke-dasharray="4 3" stroke-opacity=".6"/>
    <line x1="348" y1="106" x2="348" y2="111" stroke="#eaf6ff" stroke-width="1.2" opacity=".8"/>
    <line x1="420" y1="106" x2="420" y2="111" stroke="#eaf6ff" stroke-width="1.2" opacity=".8"/>
    <rect x="350" y="117" width="68" height="13" rx="4" fill="#08152b" opacity=".85"/>
    <text x="384" y="127" text-anchor="middle" font-size="9.5" fill="#eaf6ff">&#955; &#8776; 5.9 MM</text>
  </g>
  <path id="gvfStride" d="M348 106 Q384 74 420 106" fill="none" stroke="#eaf6ff" stroke-width="2.4" stroke-linecap="round" filter="url(#gvfGlow)" pathLength="100" stroke-dasharray="100" stroke-dashoffset="100"/>
</svg>
