<svg viewBox="0 0 600 340" width="100%" height="100%" xmlns="http://www.w3.org/2000/svg" font-family="JetBrains Mono, monospace">
  <defs>
    <filter id="hlGlow" filterUnits="userSpaceOnUse" x="-20" y="-20" width="640" height="380">
      <feGaussianBlur in="SourceGraphic" stdDeviation="2.1" result="b"/>
      <feMerge><feMergeNode in="b"/><feMergeNode in="SourceGraphic"/></feMerge>
    </filter>
    <filter id="hlGlowBig" filterUnits="userSpaceOnUse" x="-30" y="-30" width="660" height="400">
      <feGaussianBlur in="SourceGraphic" stdDeviation="4.5" result="b"/>
      <feMerge><feMergeNode in="b"/><feMergeNode in="SourceGraphic"/></feMerge>
    </filter>
  </defs>

  <!-- ===== STATIC BASE: glass panel + faint grid + axis labels ===== -->
  <rect x="24" y="20" width="552" height="278" rx="14" fill="#0a1e3c" opacity=".55"/>
  <rect x="24" y="20" width="552" height="278" rx="14" fill="none" stroke="#8fb6e0" stroke-width="1" opacity=".25"/>
  <g stroke="#7fd8ff" stroke-width="1" opacity=".06">
    <line x1="84" y1="26" x2="84" y2="292"/><line x1="156" y1="26" x2="156" y2="292"/>
    <line x1="228" y1="26" x2="228" y2="292"/><line x1="372" y1="26" x2="372" y2="292"/>
    <line x1="444" y1="26" x2="444" y2="292"/><line x1="516" y1="26" x2="516" y2="292"/>
    <line x1="30" y1="64" x2="570" y2="64"/><line x1="30" y1="112" x2="570" y2="112"/>
    <line x1="30" y1="208" x2="570" y2="208"/><line x1="30" y1="256" x2="570" y2="256"/>
  </g>
  <g id="hlAxesLbl" font-size="11" fill="#9fe6ff" opacity="0">
    <text x="286" y="47" text-anchor="end">FLUX DENSITY B</text>
    <text x="558" y="184" text-anchor="end">MAGNETIZING FORCE H</text>
    <text x="289" y="176" font-size="9" opacity=".7">0</text>
  </g>

  <!-- ===== hlAxes: centered B-H axes (draw) ===== -->
  <path id="hlAxes" d="M84 160 L516 160 M509 155.8 L517 160 L509 164.2 M91 155.8 L83 160 L91 164.2 M300 280 L300 40 M295.5 47.5 L300 39 L304.5 47.5 M295.5 272.5 L300 281 L304.5 272.5" fill="none" stroke="#8fb6e0" stroke-width="1.5" stroke-linecap="round" stroke-linejoin="round" opacity=".9" pathLength="100" stroke-dasharray="100" stroke-dashoffset="100"/>

  <!-- ===== hlHard: halo glow under the wide loop + HARD STEEL tag (fade) ===== -->
  <g id="hlHard" opacity="0">
    <path d="M470 68L462.6 68L455.2 68.1L447.8 68.1L440.4 68.2L433 68.2L425.7 68.3L418.3 68.4L410.9 68.5L403.5 68.6L396.1 68.8L388.7 69L381.3 69.3L373.9 69.7L366.5 70.1L359.1 70.6L351.7 71.2L344.3 71.9L337 72.9L329.6 74L322.2 75.4L314.8 77.1L307.4 79.1L300 81.6L292.6 84.6L285.2 88.1L277.8 92.3L270.4 97.2L263 102.9L255.7 109.5L248.3 116.9L240.9 125.2L233.5 134.3L226.1 144.1L218.7 154.4L211.3 165L203.9 175.8L196.5 186.4L189.1 196.7L181.7 206.4L174.3 215.4L167 223.6L159.6 231L152.2 237.4L144.8 243.1L137.4 247.9L130 252L130 252L137.4 252L144.8 251.9L152.2 251.9L159.6 251.8L167 251.8L174.3 251.7L181.7 251.6L189.1 251.5L196.5 251.4L203.9 251.2L211.3 251L218.7 250.7L226.1 250.3L233.5 249.9L240.9 249.4L248.3 248.8L255.7 248.1L263 247.1L270.4 246L277.8 244.6L285.2 242.9L292.6 240.9L300 238.4L307.4 235.4L314.8 231.9L322.2 227.7L329.6 222.8L337 217.1L344.3 210.5L351.7 203.1L359.1 194.8L366.5 185.7L373.9 175.9L381.3 165.6L388.7 155L396.1 144.2L403.5 133.6L410.9 123.3L418.3 113.6L425.7 104.6L433 96.4L440.4 89L447.8 82.6L455.2 76.9L462.6 72.1L470 68Z" fill="none" stroke="#1E66F5" stroke-width="9" stroke-linejoin="round" opacity=".55" filter="url(#hlGlowBig)"/>
    <path d="M470 68L462.6 68L455.2 68.1L447.8 68.1L440.4 68.2L433 68.2L425.7 68.3L418.3 68.4L410.9 68.5L403.5 68.6L396.1 68.8L388.7 69L381.3 69.3L373.9 69.7L366.5 70.1L359.1 70.6L351.7 71.2L344.3 71.9L337 72.9L329.6 74L322.2 75.4L314.8 77.1L307.4 79.1L300 81.6L292.6 84.6L285.2 88.1L277.8 92.3L270.4 97.2L263 102.9L255.7 109.5L248.3 116.9L240.9 125.2L233.5 134.3L226.1 144.1L218.7 154.4L211.3 165L203.9 175.8L196.5 186.4L189.1 196.7L181.7 206.4L174.3 215.4L167 223.6L159.6 231L152.2 237.4L144.8 243.1L137.4 247.9L130 252L130 252L137.4 252L144.8 251.9L152.2 251.9L159.6 251.8L167 251.8L174.3 251.7L181.7 251.6L189.1 251.5L196.5 251.4L203.9 251.2L211.3 251L218.7 250.7L226.1 250.3L233.5 249.9L240.9 249.4L248.3 248.8L255.7 248.1L263 247.1L270.4 246L277.8 244.6L285.2 242.9L292.6 240.9L300 238.4L307.4 235.4L314.8 231.9L322.2 227.7L329.6 222.8L337 217.1L344.3 210.5L351.7 203.1L359.1 194.8L366.5 185.7L373.9 175.9L381.3 165.6L388.7 155L396.1 144.2L403.5 133.6L410.9 123.3L418.3 113.6L425.7 104.6L433 96.4L440.4 89L447.8 82.6L455.2 76.9L462.6 72.1L470 68Z" fill="none" stroke="#5fe0ff" stroke-width="4" stroke-linejoin="round" opacity=".5" filter="url(#hlGlowBig)"/>
    <text x="448" y="44" font-size="11" fill="#5fe0ff" text-anchor="middle">HARD STEEL &#183; HOLDS FIELD &#183; RESIDUAL</text>
    <line x1="466" y1="50" x2="469" y2="64" stroke="#5fe0ff" stroke-width="1" opacity=".6"/>
  </g>

  <!-- ===== hlLoop: wide hysteresis loop, hard steel (draw, hero) ===== -->
  <path id="hlLoop" d="M470 68L462.6 68L455.2 68.1L447.8 68.1L440.4 68.2L433 68.2L425.7 68.3L418.3 68.4L410.9 68.5L403.5 68.6L396.1 68.8L388.7 69L381.3 69.3L373.9 69.7L366.5 70.1L359.1 70.6L351.7 71.2L344.3 71.9L337 72.9L329.6 74L322.2 75.4L314.8 77.1L307.4 79.1L300 81.6L292.6 84.6L285.2 88.1L277.8 92.3L270.4 97.2L263 102.9L255.7 109.5L248.3 116.9L240.9 125.2L233.5 134.3L226.1 144.1L218.7 154.4L211.3 165L203.9 175.8L196.5 186.4L189.1 196.7L181.7 206.4L174.3 215.4L167 223.6L159.6 231L152.2 237.4L144.8 243.1L137.4 247.9L130 252L130 252L137.4 252L144.8 251.9L152.2 251.9L159.6 251.8L167 251.8L174.3 251.7L181.7 251.6L189.1 251.5L196.5 251.4L203.9 251.2L211.3 251L218.7 250.7L226.1 250.3L233.5 249.9L240.9 249.4L248.3 248.8L255.7 248.1L263 247.1L270.4 246L277.8 244.6L285.2 242.9L292.6 240.9L300 238.4L307.4 235.4L314.8 231.9L322.2 227.7L329.6 222.8L337 217.1L344.3 210.5L351.7 203.1L359.1 194.8L366.5 185.7L373.9 175.9L381.3 165.6L388.7 155L396.1 144.2L403.5 133.6L410.9 123.3L418.3 113.6L425.7 104.6L433 96.4L440.4 89L447.8 82.6L455.2 76.9L462.6 72.1L470 68Z" fill="none" stroke="#5fe0ff" stroke-width="2.4" stroke-linecap="round" stroke-linejoin="round" filter="url(#hlGlow)" pathLength="100" stroke-dasharray="100" stroke-dashoffset="100"/>

  <!-- ===== hlRetentivity: highlight travels along the loop to the +B crossing (draw) ===== -->
  <path id="hlRetentivity" d="M470 68L464.3 68L458.7 68L453 68.1L447.3 68.1L441.7 68.1L436 68.2L430.3 68.2L424.7 68.3L419 68.4L413.3 68.5L407.7 68.6L402 68.7L396.3 68.8L390.7 69L385 69.2L379.3 69.4L373.7 69.7L368 70L362.3 70.3L356.7 70.8L351 71.3L345.3 71.8L339.7 72.5L334 73.3L328.3 74.2L322.7 75.3L317 76.6L311.3 78L305.7 79.7L300 81.6" fill="none" stroke="#eaf6ff" stroke-width="3" stroke-linecap="round" stroke-linejoin="round" opacity=".95" filter="url(#hlGlow)" pathLength="100" stroke-dasharray="100" stroke-dashoffset="100"/>

  <!-- ===== hlRetLabel: marker dot + RETENTIVITY label (fade) ===== -->
  <g id="hlRetLabel" opacity="0">
    <circle cx="300" cy="81.6" r="8.5" fill="none" stroke="#eaf6ff" stroke-width="1.8" opacity=".9"/>
    <circle cx="300" cy="81.6" r="4.5" fill="#5fe0ff" stroke="#0a1e3c" stroke-width="1" filter="url(#hlGlow)"/>
    <path d="M291 77.6 L262 70" stroke="#9fe6ff" stroke-width="1" opacity=".6" fill="none"/>
    <text x="256" y="74" font-size="12" fill="#eaf6ff" text-anchor="end">RETENTIVITY</text>
    <text x="256" y="88" font-size="9.5" fill="#9fe6ff" text-anchor="end" opacity=".75">B LEFT AT H = 0</text>
  </g>
  <circle id="hlRetPing" cx="300" cy="81.6" r="6" fill="none" stroke="#eaf6ff" stroke-width="2" opacity="0" filter="url(#hlGlow)"/>

  <!-- ===== hlSoft: narrow nested loop, soft steel (draw) ===== -->
  <path id="hlSoft" d="M448 82L441.6 82L435.1 82.1L428.7 82.1L422.3 82.2L415.8 82.2L409.4 82.3L403 82.5L396.5 82.7L390.1 82.9L383.7 83.3L377.2 83.8L370.8 84.4L364.3 85.3L357.9 86.4L351.5 88L345 90L338.6 92.7L332.2 96.3L325.7 100.8L319.3 106.5L312.9 113.5L306.4 121.9L300 131.7L293.6 142.6L287.1 154.3L280.7 166.3L274.3 177.9L267.8 188.8L261.4 198.6L255 206.9L248.5 213.9L242.1 219.6L235.7 224.1L229.2 227.6L222.8 230.3L216.3 232.3L209.9 233.8L203.5 235L197 235.8L190.6 236.5L184.2 237L177.7 237.3L171.3 237.6L164.9 237.8L158.4 237.9L152 238L152 238L158.4 238L164.9 237.9L171.3 237.9L177.7 237.8L184.2 237.8L190.6 237.7L197 237.5L203.5 237.3L209.9 237.1L216.3 236.7L222.8 236.2L229.2 235.6L235.7 234.7L242.1 233.6L248.5 232L255 230L261.4 227.3L267.8 223.7L274.3 219.2L280.7 213.5L287.1 206.5L293.6 198.1L300 188.3L306.4 177.4L312.9 165.7L319.3 153.7L325.7 142.1L332.2 131.2L338.6 121.4L345 113.1L351.5 106.1L357.9 100.4L364.3 95.9L370.8 92.4L377.2 89.7L383.7 87.7L390.1 86.2L396.5 85L403 84.2L409.4 83.5L415.8 83L422.3 82.7L428.7 82.4L435.1 82.2L441.6 82.1L448 82Z" fill="none" stroke="#ffc24b" stroke-width="2" stroke-linecap="round" stroke-linejoin="round" filter="url(#hlGlow)" pathLength="100" stroke-dasharray="100" stroke-dashoffset="100"/>
  <g id="hlSoftTag" opacity="0">
    <text x="452" y="228" font-size="11" fill="#ffc24b" text-anchor="middle">SOFT STEEL &#183; FORGETS &#183; CONTINUOUS</text>
    <path d="M404 217 L321 164" stroke="#ffc24b" stroke-width="1" opacity=".55" fill="none"/>
  </g>
</svg>
