<svg viewBox="0 0 600 340" width="100%" height="100%" xmlns="http://www.w3.org/2000/svg" font-family="JetBrains Mono, monospace">
  <defs>
    <filter id="smglowC" filterUnits="userSpaceOnUse" x="-58" y="-58" width="116" height="456">
      <feGaussianBlur in="SourceGraphic" stdDeviation="2.2" result="b"/>
      <feMerge><feMergeNode in="b"/><feMergeNode in="SourceGraphic"/></feMerge>
    </filter>
    <filter id="smglowR" filterUnits="userSpaceOnUse" x="63" y="1" width="502" height="274">
      <feGaussianBlur in="SourceGraphic" stdDeviation="1.8" result="b"/>
      <feMerge><feMergeNode in="b"/><feMergeNode in="SourceGraphic"/></feMerge>
    </filter>
    <linearGradient id="smwallGrad" x1="490" y1="0" x2="560" y2="0" gradientUnits="userSpaceOnUse">
      <stop offset="0" stop-color="#2c5a88"/><stop offset=".4" stop-color="#1b3e66"/><stop offset="1" stop-color="#0c2340"/>
    </linearGradient>
    <linearGradient id="smtubeGrad" x1="0" y1="192" x2="0" y2="208" gradientUnits="userSpaceOnUse">
      <stop offset="0" stop-color="#30608f"/><stop offset=".45" stop-color="#1b3e66"/><stop offset="1" stop-color="#0c2340"/>
    </linearGradient>
    <linearGradient id="smtipGrad" x1="0" y1="189" x2="0" y2="211" gradientUnits="userSpaceOnUse">
      <stop offset="0" stop-color="#3a6c9e"/><stop offset=".45" stop-color="#1f4670"/><stop offset="1" stop-color="#0e2848"/>
    </linearGradient>
    <radialGradient id="smscrGrad" cx=".5" cy=".48" r=".75">
      <stop offset="0" stop-color="#0c2547"/><stop offset=".7" stop-color="#081a35"/><stop offset="1" stop-color="#051023"/>
    </radialGradient>
    <linearGradient id="smscanFade" x1="0" y1="0" x2="1" y2="0">
      <stop offset="0" stop-color="#5fe0ff" stop-opacity="0"/>
      <stop offset="1" stop-color="#5fe0ff" stop-opacity=".3"/>
    </linearGradient>
    <pattern id="smbraid" width="11" height="16" patternUnits="userSpaceOnUse">
      <path d="M0 16 L11 0 M-3 6 L5 -5 M6 21 L14 10" stroke="#8fb6e0" stroke-width="1" opacity=".22" fill="none"/>
      <path d="M0 0 L11 16 M6 -5 L14 6 M-3 10 L5 21" stroke="#8fb6e0" stroke-width="1" opacity=".14" fill="none"/>
    </pattern>
  </defs>

  <!-- ===== PIPE INNER WALL (curved, right side) ===== -->
  <path d="M512 55 Q482 195 512 332 L558 332 Q535 195 558 55 Z" fill="url(#smwallGrad)"/>
  <g fill="none" stroke="#8fb6e0" opacity=".18" stroke-width="1">
    <path d="M524 57 Q497 195 524 330"/>
    <path d="M538 56 Q516 195 538 331"/>
    <path d="M549 56 Q531 195 549 331"/>
  </g>
  <path d="M512 55 Q482 195 512 332" fill="none" stroke="#8fb6e0" stroke-width="2"/>
  <path d="M558 55 Q535 195 558 332" fill="none" stroke="#8fb6e0" stroke-width="1.5" opacity=".5"/>
  <path d="M512 55 H558 M512 332 H558" fill="none" stroke="#8fb6e0" stroke-width="1.5" opacity=".5"/>

  <!-- corrosion pit cut into inner wall surface -->
  <path d="M497 192 Q507.5 193 508 200 Q507.5 207 497.2 208 Q494.6 200.2 497 192 Z" fill="#08152b"/>
  <path d="M497 192 Q507.5 193 508 200 Q507.5 207 497.2 208" fill="none" stroke="#ffc24b" stroke-width="1.6" stroke-linecap="round" filter="url(#smglowR)" opacity=".95"/>
  <path d="M500.5 195.5 Q504.5 196.5 504.6 200 Q504.5 203.6 500.7 204.6" fill="none" stroke="#b97f1f" stroke-width="1.1" opacity=".8"/>
  <g fill="#ff9b4b" opacity=".55">
    <circle cx="496.4" cy="186.5" r="1.1"/><circle cx="497" cy="213.5" r="1.2"/><circle cx="498.6" cy="182" r=".8"/><circle cx="499" cy="218" r=".8"/>
  </g>
  <text x="560" y="34" text-anchor="end" font-size="11" fill="#ffc24b" opacity=".9">CORROSION PIT</text>
  <path d="M517 38 L500.5 188" fill="none" stroke="#ffc24b" stroke-width="1" opacity=".4"/>
  <text transform="rotate(90 528 252)" x="528" y="252" text-anchor="middle" font-size="11" fill="#9fe6ff" opacity=".55">PIPE INNER WALL</text>

  <!-- ===== INSERTION TUBE (braided sheath, enters from left) ===== -->
  <rect x="0" y="192" width="182" height="16" fill="url(#smtubeGrad)"/>
  <rect x="0" y="192" width="182" height="16" fill="url(#smbraid)"/>
  <path d="M0 192 H182 M0 208 H182" stroke="#8fb6e0" stroke-width="1.5" fill="none"/>
  <ellipse cx="182" cy="200" rx="3" ry="8" fill="#0c2340" stroke="#8fb6e0" stroke-width="1" opacity=".85"/>
  <text x="14" y="226" font-size="11" fill="#9fe6ff" opacity=".75">INSERTION TUBE</text>

  <!-- optical axis centerline -->
  <path d="M188 200 H492" stroke="#5fe0ff" stroke-width="1" stroke-dasharray="10 4 2 4" opacity=".3" fill="none"/>

  <!-- ===== FAR STANDOFF: tip + wide footprint cone + small-pit inset ===== -->
  <g id="smFar" opacity="0">
    <path d="M218 200 L501.8 115 Q492 200 503.5 285 Z" fill="#2b86ff" opacity=".12"/>
    <path d="M218 200 L501.8 115 M218 200 L503.5 285" stroke="#2b86ff" stroke-width="1.2" opacity=".6" fill="none"/>
    <path d="M501.8 115 Q492 200 503.5 285" stroke="#2b86ff" stroke-width="2.4" opacity=".5" fill="none"/>
    <rect x="182" y="189" width="35" height="22" rx="2.5" fill="url(#smtipGrad)" stroke="#8fb6e0" stroke-width="1.5"/>
    <rect x="211.5" y="190.5" width="4.5" height="19" fill="#0a1f3a" opacity=".9"/>
    <circle cx="214" cy="200" r="3.2" fill="#061425" stroke="#5fe0ff" stroke-width="1.3" filter="url(#smglowR)"/>
    <circle cx="214" cy="193" r="1.3" fill="#7fd8ff" opacity=".9"/>
    <circle cx="214" cy="207" r="1.3" fill="#7fd8ff" opacity=".9"/>
    <path d="M199 186 L125 129" stroke="#8fb6e0" stroke-width="1" stroke-dasharray="3 3" opacity=".55" fill="none"/>
    <text x="125" y="30" text-anchor="middle" font-size="11" fill="#9fe6ff" opacity=".85">FAR STANDOFF</text>
    <rect x="60" y="36" width="130" height="90" rx="7" fill="#0e2848" stroke="#8fb6e0" stroke-width="1.5"/>
    <rect x="66" y="42" width="118" height="78" rx="3" fill="url(#smscrGrad)" stroke="#1E66F5" stroke-width="1" opacity=".98"/>
    <g stroke="#5fe0ff" stroke-width="1" opacity=".3" fill="none">
      <path d="M125 70 V76 M125 86 V92 M114 81 H120 M130 81 H136"/>
      <path d="M70 46 h8 M70 46 v8 M180 46 h-8 M180 46 v8 M70 116 h8 M70 116 v-8 M180 116 h-8 M180 116 v-8"/>
    </g>
    <g fill="none" stroke="#8fb6e0" opacity=".14">
      <path d="M76 100 q22 -7 38 2"/><path d="M138 58 q16 6 32 1"/><path d="M80 62 q12 8 8 18"/>
    </g>
    <path d="M120 78.9 Q121.5 74.7 125.7 75.4 Q130 76.1 129.9 81 Q129.8 86 125 86.3 Q120.5 86 120 81.7 Z" fill="#ffc24b" stroke="#b97f1f" stroke-width=".9" filter="url(#smglowR)"/>
    <circle cx="125" cy="81" r="1.7" fill="#7a4d10"/>
  </g>

  <!-- ===== NEAR STANDOFF: advanced tip + tight footprint + pit-fills-frame inset ===== -->
  <g id="smNear" opacity="0">
    <rect x="217" y="192" width="190" height="16" fill="#14304f" opacity=".5"/>
    <rect x="217" y="192" width="190" height="16" fill="none" stroke="#8fb6e0" stroke-width="1.2" stroke-dasharray="5 4" opacity=".6"/>
    <path d="M232 200 H382" stroke="#7fd8ff" stroke-width="2" fill="none" filter="url(#smglowR)"/>
    <path d="M393 200 L382 195 V205 Z" fill="#7fd8ff" filter="url(#smglowR)"/>
    <path d="M442 200 L497.2 182.5 M442 200 L497.5 217.5" stroke="#5fe0ff" stroke-width="1.2" opacity=".7" fill="none"/>
    <path d="M442 200 L497.2 182.5 Q496.6 200 497.5 217.5 Z" fill="#5fe0ff" opacity=".16"/>
    <path d="M497.2 182.5 Q496.6 200 497.5 217.5" stroke="#5fe0ff" stroke-width="2.2" opacity=".8" fill="none" filter="url(#smglowR)"/>
    <rect x="407" y="189" width="35" height="22" rx="2.5" fill="url(#smtipGrad)" stroke="#8fb6e0" stroke-width="1.5"/>
    <rect x="436.5" y="190.5" width="4.5" height="19" fill="#0a1f3a" opacity=".9"/>
    <circle cx="439" cy="200" r="3.2" fill="#061425" stroke="#5fe0ff" stroke-width="1.3" filter="url(#smglowR)"/>
    <circle cx="439" cy="193" r="1.3" fill="#7fd8ff" opacity=".9"/>
    <circle cx="439" cy="207" r="1.3" fill="#7fd8ff" opacity=".9"/>
    <path d="M424 186 L368 129" stroke="#8fb6e0" stroke-width="1" stroke-dasharray="3 3" opacity=".55" fill="none"/>
    <text x="365" y="30" text-anchor="middle" font-size="11" fill="#9fe6ff" opacity=".85">NEAR STANDOFF</text>
    <rect x="300" y="36" width="130" height="90" rx="7" fill="#0e2848" stroke="#8fb6e0" stroke-width="1.5"/>
    <rect x="306" y="42" width="118" height="78" rx="3" fill="url(#smscrGrad)" stroke="#1E66F5" stroke-width="1" opacity=".98"/>
    <g stroke="#5fe0ff" stroke-width="1" opacity=".3" fill="none">
      <path d="M310 46 h8 M310 46 v8 M420 46 h-8 M420 46 v8 M310 116 h8 M310 116 v-8 M420 116 h-8 M420 116 v-8"/>
    </g>
    <path d="M348.5 74 Q353 56.5 366.5 58.5 Q382.5 61 381.5 81 Q380.5 99.5 365 100.5 Q350.5 99.5 348.5 84 Z" fill="#b97f1f" opacity=".85"/>
    <path d="M348.5 74 Q353 56.5 366.5 58.5 Q382.5 61 381.5 81 Q380.5 99.5 365 100.5 Q350.5 99.5 348.5 84 Z" fill="none" stroke="#ffc24b" stroke-width="2" filter="url(#smglowR)"/>
    <path d="M356.5 76 Q359.5 66.5 367 68 Q375.5 69.8 374.7 81 Q373.8 91.8 364.8 92.4 Q357 91.6 356.5 83 Z" fill="#7a4d10"/>
    <g fill="#ffc24b" opacity=".5">
      <circle cx="354" cy="65" r="1.4"/><circle cx="377" cy="93" r="1.5"/><circle cx="372" cy="63.5" r="1.1"/><circle cx="355.5" cy="94" r="1.2"/>
    </g>
    <path d="M365 70 V76 M365 86 V92 M354 81 H360 M370 81 H376" stroke="#5fe0ff" stroke-width="1" opacity=".35" fill="none"/>
  </g>

  <!-- ===== NO-SCALE: ? mm tags + tip-to-target dimension ===== -->
  <g id="smNoScale" opacity="0">
    <g>
      <rect x="120" y="98" width="62" height="19" rx="4" fill="#08152b" opacity=".92" stroke="#ff6b6b" stroke-width="1.2"/>
      <rect x="125" y="103.5" width="15" height="8" rx="1" fill="none" stroke="#9fe6ff" stroke-width="1" opacity=".8"/>
      <path d="M129 103.5 v3 M133 103.5 v3 M137 103.5 v3" stroke="#9fe6ff" stroke-width="1" opacity=".8" fill="none"/>
      <path d="M122.5 115.5 L142.5 100.5" stroke="#ff6b6b" stroke-width="1.6" stroke-linecap="round"/>
      <text x="146" y="112.5" font-size="11" fill="#ff6b6b">? mm</text>
    </g>
    <g>
      <rect x="360" y="98" width="62" height="19" rx="4" fill="#08152b" opacity=".92" stroke="#ff6b6b" stroke-width="1.2"/>
      <rect x="365" y="103.5" width="15" height="8" rx="1" fill="none" stroke="#9fe6ff" stroke-width="1" opacity=".8"/>
      <path d="M369 103.5 v3 M373 103.5 v3 M377 103.5 v3" stroke="#9fe6ff" stroke-width="1" opacity=".8" fill="none"/>
      <path d="M362.5 115.5 L382.5 100.5" stroke="#ff6b6b" stroke-width="1.6" stroke-linecap="round"/>
      <text x="386" y="112.5" font-size="11" fill="#ff6b6b">? mm</text>
    </g>
    <g stroke="#5fe0ff" fill="none">
      <path d="M218 214 V276 M442 214 V276 M498 232 V276" stroke-width="1" opacity=".55"/>
      <path d="M218 270 H498" stroke-width="1.2"/>
      <path d="M439 274 L445 266" stroke-width="1.5"/>
    </g>
    <path d="M218 270 L227 266.8 L227 273.2 Z" fill="#5fe0ff"/>
    <path d="M498 270 L489 266.8 L489 273.2 Z" fill="#5fe0ff"/>
    <text x="470" y="262" text-anchor="middle" font-size="12" fill="#9fe6ff">d = ?</text>
    <text x="345" y="290" text-anchor="middle" font-size="11" fill="#9fe6ff" opacity=".8">TIP-TO-TARGET DISTANCE</text>
  </g>

  <!-- detection ping on the pit -->
  <circle id="smping" cx="497" cy="200" r="6" fill="none" stroke="#ffc24b" stroke-width="2" opacity="0" filter="url(#smglowR)"/>

  <!-- ===== scan group ===== -->
  <g id="smscanG" transform="translate(60,0)">
    <rect x="-30" y="0" width="30" height="340" fill="url(#smscanFade)"/>
    <line x1="0" y1="0" x2="0" y2="340" stroke="#5fe0ff" stroke-width="2" filter="url(#smglowC)" opacity=".9"/>
  </g>
</svg>
