<svg viewBox="0 0 800 450" xmlns="http://www.w3.org/2000/svg">
  <rect x="0" y="0" width="800" height="450" fill="#FFFFFF"/>
  <text x="400" y="36" text-anchor="middle" font-family="Arial, sans-serif" font-size="24" font-weight="bold" fill="#0A2342">Discontinuity Origin Map</text>

  <!-- timeline -->
  <line x1="50" y1="72" x2="730" y2="72" stroke="#5A6B7E" stroke-width="3"/>
  <polygon points="730,64 748,72 730,80" fill="#5A6B7E"/>
  <line x1="145" y1="72" x2="145" y2="88" stroke="#5A6B7E" stroke-width="2"/>
  <line x1="325" y1="72" x2="325" y2="88" stroke="#5A6B7E" stroke-width="2"/>
  <line x1="505" y1="72" x2="505" y2="88" stroke="#5A6B7E" stroke-width="2"/>
  <line x1="685" y1="72" x2="685" y2="88" stroke="#5A6B7E" stroke-width="2"/>

  <!-- stage headers -->
  <rect x="65" y="88" width="160" height="58" rx="5" fill="#0A2342"/>
  <text x="145" y="111" text-anchor="middle" font-family="Arial, sans-serif" font-size="17" font-weight="bold" fill="#FFFFFF">1 · INHERENT</text>
  <text x="145" y="134" text-anchor="middle" font-family="Arial, sans-serif" font-size="16" fill="#E8F1FB">melt and ingot</text>

  <rect x="245" y="88" width="160" height="58" rx="5" fill="#1B82E8"/>
  <text x="325" y="111" text-anchor="middle" font-family="Arial, sans-serif" font-size="17" font-weight="bold" fill="#FFFFFF">2 · PRIMARY</text>
  <text x="325" y="134" text-anchor="middle" font-family="Arial, sans-serif" font-size="16" fill="#E8F1FB">rolling · forging</text>

  <rect x="425" y="88" width="160" height="58" rx="5" fill="#5A6B7E"/>
  <text x="505" y="111" text-anchor="middle" font-family="Arial, sans-serif" font-size="17" font-weight="bold" fill="#FFFFFF">3 · SECONDARY</text>
  <text x="505" y="134" text-anchor="middle" font-family="Arial, sans-serif" font-size="16" fill="#E8F1FB">finishing work</text>

  <rect x="605" y="88" width="160" height="58" rx="5" fill="#D14343"/>
  <text x="685" y="111" text-anchor="middle" font-family="Arial, sans-serif" font-size="17" font-weight="bold" fill="#FFFFFF">4 · IN-SERVICE</text>
  <text x="685" y="134" text-anchor="middle" font-family="Arial, sans-serif" font-size="16" fill="#E8F1FB">service loads</text>

  <!-- column 1 items -->
  <rect x="75" y="166" width="8" height="8" fill="#F2A33C"/>
  <text x="91" y="175" text-anchor="start" font-family="Arial, sans-serif" font-size="16" fill="#0A2342">Inclusions</text>
  <rect x="75" y="190" width="8" height="8" fill="#F2A33C"/>
  <text x="91" y="199" text-anchor="start" font-family="Arial, sans-serif" font-size="16" fill="#0A2342">Blowholes</text>
  <rect x="75" y="214" width="8" height="8" fill="#F2A33C"/>
  <text x="91" y="223" text-anchor="start" font-family="Arial, sans-serif" font-size="16" fill="#0A2342">Porosity</text>
  <rect x="75" y="238" width="8" height="8" fill="#F2A33C"/>
  <text x="91" y="247" text-anchor="start" font-family="Arial, sans-serif" font-size="16" fill="#0A2342">Pipe</text>
  <rect x="75" y="262" width="8" height="8" fill="#F2A33C"/>
  <text x="91" y="271" text-anchor="start" font-family="Arial, sans-serif" font-size="16" fill="#0A2342">Voids</text>
  <rect x="75" y="286" width="8" height="8" fill="#F2A33C"/>
  <text x="91" y="295" text-anchor="start" font-family="Arial, sans-serif" font-size="16" fill="#0A2342">Segregation</text>

  <!-- column 2 items -->
  <rect x="255" y="166" width="8" height="8" fill="#F2A33C"/>
  <text x="271" y="175" text-anchor="start" font-family="Arial, sans-serif" font-size="16" fill="#0A2342">Laminations</text>
  <rect x="255" y="190" width="8" height="8" fill="#F2A33C"/>
  <text x="271" y="199" text-anchor="start" font-family="Arial, sans-serif" font-size="16" fill="#0A2342">Laps</text>
  <rect x="255" y="214" width="8" height="8" fill="#F2A33C"/>
  <text x="271" y="223" text-anchor="start" font-family="Arial, sans-serif" font-size="16" fill="#0A2342">Seams</text>
  <rect x="255" y="238" width="8" height="8" fill="#F2A33C"/>
  <text x="271" y="247" text-anchor="start" font-family="Arial, sans-serif" font-size="16" fill="#0A2342">Forging bursts</text>
  <rect x="255" y="262" width="8" height="8" fill="#F2A33C"/>
  <text x="271" y="271" text-anchor="start" font-family="Arial, sans-serif" font-size="16" fill="#0A2342">Hydrogen flakes</text>
  <rect x="255" y="286" width="8" height="8" fill="#F2A33C"/>
  <text x="271" y="295" text-anchor="start" font-family="Arial, sans-serif" font-size="16" fill="#0A2342">Hot tears · cold shuts</text>

  <!-- column 3 items -->
  <rect x="435" y="166" width="8" height="8" fill="#F2A33C"/>
  <text x="451" y="175" text-anchor="start" font-family="Arial, sans-serif" font-size="16" fill="#0A2342">Grinding cracks</text>
  <rect x="435" y="190" width="8" height="8" fill="#F2A33C"/>
  <text x="451" y="199" text-anchor="start" font-family="Arial, sans-serif" font-size="16" fill="#0A2342">Quench cracks</text>
  <rect x="435" y="214" width="8" height="8" fill="#F2A33C"/>
  <text x="451" y="223" text-anchor="start" font-family="Arial, sans-serif" font-size="16" fill="#0A2342">Machining tears</text>
  <rect x="435" y="238" width="8" height="8" fill="#F2A33C"/>
  <text x="451" y="247" text-anchor="start" font-family="Arial, sans-serif" font-size="16" fill="#0A2342">Plating cracks</text>
  <rect x="435" y="262" width="8" height="8" fill="#F2A33C"/>
  <text x="451" y="271" text-anchor="start" font-family="Arial, sans-serif" font-size="16" fill="#0A2342">Hydrogen damage</text>

  <!-- column 4 items -->
  <rect x="615" y="166" width="8" height="8" fill="#F2A33C"/>
  <text x="631" y="175" text-anchor="start" font-family="Arial, sans-serif" font-size="16" fill="#0A2342">Fatigue cracks</text>
  <rect x="615" y="190" width="8" height="8" fill="#F2A33C"/>
  <text x="631" y="199" text-anchor="start" font-family="Arial, sans-serif" font-size="16" fill="#0A2342">Stress corrosion</text>
  <rect x="615" y="214" width="8" height="8" fill="#F2A33C"/>
  <text x="631" y="223" text-anchor="start" font-family="Arial, sans-serif" font-size="16" fill="#0A2342">Hydrogen cracking</text>
  <rect x="615" y="238" width="8" height="8" fill="#F2A33C"/>
  <text x="631" y="247" text-anchor="start" font-family="Arial, sans-serif" font-size="16" fill="#0A2342">Corrosion pits</text>
  <rect x="615" y="262" width="8" height="8" fill="#F2A33C"/>
  <text x="631" y="271" text-anchor="start" font-family="Arial, sans-serif" font-size="16" fill="#0A2342">Overload cracks</text>

  <!-- depth tendency note -->
  <text x="145" y="330" text-anchor="middle" font-family="Arial, sans-serif" font-size="16" font-style="italic" fill="#5A6B7E">mostly interior</text>
  <text x="325" y="330" text-anchor="middle" font-family="Arial, sans-serif" font-size="16" font-style="italic" fill="#5A6B7E">surface + interior</text>
  <text x="505" y="330" text-anchor="middle" font-family="Arial, sans-serif" font-size="16" font-style="italic" fill="#5A6B7E">mostly surface</text>
  <text x="685" y="330" text-anchor="middle" font-family="Arial, sans-serif" font-size="16" font-style="italic" fill="#5A6B7E">surface-breaking</text>

  <!-- bottom rule band -->
  <rect x="65" y="356" width="700" height="64" rx="6" fill="#E8F1FB" stroke="#1B82E8" stroke-width="2"/>
  <text x="415" y="382" text-anchor="middle" font-family="Arial, sans-serif" font-size="17" font-weight="bold" fill="#0A2342">Stage → expected location and orientation → field direction and current type</text>
  <text x="415" y="406" text-anchor="middle" font-family="Arial, sans-serif" font-size="16" fill="#5A6B7E">Flux must cross the flaw at 45–90° — two perpendicular magnetizations cover everything</text>
</svg>
