<svg viewBox="0 0 800 450" xmlns="http://www.w3.org/2000/svg">
  <rect x="0" y="0" width="800" height="450" fill="#FFFFFF"/>
  <text x="400" y="34" text-anchor="middle" font-family="Arial, sans-serif" font-size="24" font-weight="bold" fill="#0A2342">Reading the Indication</text>

  <!-- Panel 1: surface crack -->
  <rect x="40" y="52" width="350" height="178" rx="6" fill="#FFFFFF" stroke="#0A2342" stroke-width="1.5"/>
  <rect x="40" y="52" width="350" height="28" rx="6" fill="#1B82E8"/>
  <text x="215" y="71" text-anchor="middle" font-family="Arial, sans-serif" font-size="16" font-weight="bold" fill="#FFFFFF">SURFACE CRACK — RELEVANT</text>
  <rect x="65" y="140" width="300" height="46" fill="#D9E0E8" stroke="#5A6B7E" stroke-width="2"/>
  <polyline points="215,140 211,158 219,168 214,178" fill="none" stroke="#0A2342" stroke-width="2"/>
  <line x1="78" y1="160" x2="203" y2="160" stroke="#1B82E8" stroke-width="2"/>
  <line x1="227" y1="160" x2="352" y2="160" stroke="#1B82E8" stroke-width="2"/>
  <path d="M 203,160 C 207,128 223,128 227,160" fill="none" stroke="#1B82E8" stroke-width="2"/>
  <ellipse cx="215" cy="136" rx="15" ry="7" fill="#D14343"/>
  <text x="215" y="212" text-anchor="middle" font-family="Arial, sans-serif" font-size="16" fill="#0A2342">sharp · dense · tightly held</text>

  <!-- Panel 2: subsurface flaw -->
  <rect x="410" y="52" width="350" height="178" rx="6" fill="#FFFFFF" stroke="#0A2342" stroke-width="1.5"/>
  <rect x="410" y="52" width="350" height="28" rx="6" fill="#1B82E8"/>
  <text x="585" y="71" text-anchor="middle" font-family="Arial, sans-serif" font-size="16" font-weight="bold" fill="#FFFFFF">SUBSURFACE FLAW — RELEVANT</text>
  <rect x="435" y="140" width="300" height="46" fill="#D9E0E8" stroke="#5A6B7E" stroke-width="2"/>
  <ellipse cx="585" cy="172" rx="16" ry="8" fill="#5A6B7E"/>
  <line x1="448" y1="158" x2="530" y2="158" stroke="#1B82E8" stroke-width="2"/>
  <line x1="640" y1="158" x2="722" y2="158" stroke="#1B82E8" stroke-width="2"/>
  <path d="M 530,158 C 550,142 620,142 640,158" fill="none" stroke="#1B82E8" stroke-width="2"/>
  <circle cx="552" cy="134" r="4" fill="#D14343" opacity="0.55"/>
  <circle cx="566" cy="129" r="3.4" fill="#D14343" opacity="0.5"/>
  <circle cx="579" cy="135" r="4.4" fill="#D14343" opacity="0.55"/>
  <circle cx="592" cy="128" r="3.2" fill="#D14343" opacity="0.45"/>
  <circle cx="604" cy="134" r="4" fill="#D14343" opacity="0.55"/>
  <circle cx="617" cy="130" r="3.2" fill="#D14343" opacity="0.45"/>
  <text x="585" y="212" text-anchor="middle" font-family="Arial, sans-serif" font-size="16" fill="#0A2342">broad · fuzzy · weakly held</text>

  <!-- Panel 3: section change -->
  <rect x="40" y="246" width="350" height="178" rx="6" fill="#FFFFFF" stroke="#0A2342" stroke-width="1.5"/>
  <rect x="40" y="246" width="350" height="28" rx="6" fill="#F2A33C"/>
  <text x="215" y="265" text-anchor="middle" font-family="Arial, sans-serif" font-size="16" font-weight="bold" fill="#0A2342">SECTION CHANGE — NONRELEVANT</text>
  <rect x="65" y="320" width="135" height="58" fill="#D9E0E8" stroke="#5A6B7E" stroke-width="2"/>
  <rect x="200" y="336" width="150" height="26" fill="#D9E0E8" stroke="#5A6B7E" stroke-width="2"/>
  <circle cx="203" cy="326" r="3.4" fill="#D14343"/>
  <circle cx="208" cy="332" r="3" fill="#D14343"/>
  <circle cx="203" cy="318" r="3" fill="#D14343"/>
  <circle cx="209" cy="324" r="2.6" fill="#D14343"/>
  <line x1="78" y1="350" x2="192" y2="350" stroke="#1B82E8" stroke-width="2"/>
  <path d="M 192,350 C 200,332 208,340 216,348" fill="none" stroke="#1B82E8" stroke-width="2"/>
  <line x1="216" y1="348" x2="336" y2="348" stroke="#1B82E8" stroke-width="2"/>
  <text x="215" y="406" text-anchor="middle" font-family="Arial, sans-serif" font-size="16" fill="#0A2342">leakage at geometry — verify on the drawing</text>

  <!-- Panel 4: false patterns -->
  <rect x="410" y="246" width="350" height="178" rx="6" fill="#FFFFFF" stroke="#0A2342" stroke-width="1.5"/>
  <rect x="410" y="246" width="350" height="28" rx="6" fill="#D14343"/>
  <text x="585" y="265" text-anchor="middle" font-family="Arial, sans-serif" font-size="16" font-weight="bold" fill="#FFFFFF">OVER-MAG / DRAINAGE — FALSE</text>
  <rect x="435" y="330" width="300" height="46" fill="#D9E0E8" stroke="#5A6B7E" stroke-width="2"/>
  <circle cx="452" cy="324" r="2.6" fill="#D14343" opacity="0.5"/>
  <circle cx="470" cy="320" r="2.2" fill="#D14343" opacity="0.5"/>
  <circle cx="488" cy="325" r="2.8" fill="#D14343" opacity="0.5"/>
  <circle cx="506" cy="319" r="2.2" fill="#D14343" opacity="0.5"/>
  <circle cx="524" cy="324" r="2.6" fill="#D14343" opacity="0.5"/>
  <circle cx="542" cy="320" r="2.2" fill="#D14343" opacity="0.5"/>
  <circle cx="560" cy="325" r="2.8" fill="#D14343" opacity="0.5"/>
  <circle cx="578" cy="319" r="2.2" fill="#D14343" opacity="0.5"/>
  <circle cx="596" cy="324" r="2.6" fill="#D14343" opacity="0.5"/>
  <circle cx="614" cy="320" r="2.2" fill="#D14343" opacity="0.5"/>
  <line x1="660" y1="330" x2="688" y2="376" stroke="#D14343" stroke-width="4" opacity="0.6"/>
  <text x="700" y="318" text-anchor="middle" font-family="Arial, sans-serif" font-size="16" fill="#5A6B7E">streak</text>
  <line x1="694" y1="322" x2="678" y2="344" stroke="#5A6B7E" stroke-width="1.5"/>
  <text x="585" y="406" text-anchor="middle" font-family="Arial, sans-serif" font-size="16" fill="#0A2342">no leakage field — fix technique, re-run</text>
</svg>
