<svg viewBox="0 0 800 450" xmlns="http://www.w3.org/2000/svg">
  <rect x="0" y="0" width="800" height="450" fill="#FFFFFF"/>
  <text x="400" y="36" text-anchor="middle" font-family="Arial, sans-serif" font-size="24" font-weight="bold" fill="#0A2342">Stress Flow Around Discontinuities</text>

  <!-- applied tension arrows -->
  <line x1="160" y1="92" x2="160" y2="68" stroke="#5A6B7E" stroke-width="3"/>
  <polygon points="153,72 160,58 167,72" fill="#5A6B7E"/>
  <line x1="400" y1="92" x2="400" y2="68" stroke="#5A6B7E" stroke-width="3"/>
  <polygon points="393,72 400,58 407,72" fill="#5A6B7E"/>
  <line x1="640" y1="92" x2="640" y2="68" stroke="#5A6B7E" stroke-width="3"/>
  <polygon points="633,72 640,58 647,72" fill="#5A6B7E"/>
  <text x="745" y="80" text-anchor="end" font-family="Arial, sans-serif" font-size="16" fill="#5A6B7E">tension</text>

  <!-- PANEL 1: sound section -->
  <rect x="85" y="100" width="150" height="270" fill="#E8F1FB" stroke="#0A2342" stroke-width="2.5"/>
  <line x1="110" y1="105" x2="110" y2="365" stroke="#1B82E8" stroke-width="2"/>
  <line x1="135" y1="105" x2="135" y2="365" stroke="#1B82E8" stroke-width="2"/>
  <line x1="160" y1="105" x2="160" y2="365" stroke="#1B82E8" stroke-width="2"/>
  <line x1="185" y1="105" x2="185" y2="365" stroke="#1B82E8" stroke-width="2"/>
  <line x1="210" y1="105" x2="210" y2="365" stroke="#1B82E8" stroke-width="2"/>
  <text x="160" y="398" text-anchor="middle" font-family="Arial, sans-serif" font-size="16" font-weight="bold" fill="#0A2342">sound section</text>
  <text x="160" y="420" text-anchor="middle" font-family="Arial, sans-serif" font-size="16" fill="#5A6B7E">uniform stress</text>

  <!-- PANEL 2: round hole -->
  <rect x="325" y="100" width="150" height="270" fill="#E8F1FB" stroke="#0A2342" stroke-width="2.5"/>
  <line x1="345" y1="105" x2="345" y2="365" stroke="#1B82E8" stroke-width="2"/>
  <path d="M 372 105 L 372 180 C 372 215 362 220 360 235 C 362 250 372 255 372 290 L 372 365" fill="none" stroke="#1B82E8" stroke-width="2"/>
  <path d="M 392 105 L 392 175 C 392 205 376 212 374 235 C 376 258 392 265 392 295 L 392 365" fill="none" stroke="#1B82E8" stroke-width="2"/>
  <path d="M 408 105 L 408 175 C 408 205 424 212 426 235 C 424 258 408 265 408 295 L 408 365" fill="none" stroke="#1B82E8" stroke-width="2"/>
  <path d="M 428 105 L 428 180 C 428 215 438 220 440 235 C 438 250 428 255 428 290 L 428 365" fill="none" stroke="#1B82E8" stroke-width="2"/>
  <line x1="455" y1="105" x2="455" y2="365" stroke="#1B82E8" stroke-width="2"/>
  <circle cx="400" cy="235" r="22" fill="#FFFFFF" stroke="#D14343" stroke-width="3"/>
  <circle cx="374" cy="235" r="4" fill="#D14343"/>
  <circle cx="426" cy="235" r="4" fill="#D14343"/>
  <text x="400" y="398" text-anchor="middle" font-family="Arial, sans-serif" font-size="16" font-weight="bold" fill="#0A2342">round hole</text>
  <text x="400" y="420" text-anchor="middle" font-family="Arial, sans-serif" font-size="16" fill="#D14343">local stress = 3x average</text>

  <!-- PANEL 3: sharp crack -->
  <rect x="565" y="100" width="150" height="270" fill="#E8F1FB" stroke="#0A2342" stroke-width="2.5"/>
  <path d="M 585 105 L 585 190 C 585 220 596 228 600 235 C 596 242 585 250 585 280 L 585 365" fill="none" stroke="#1B82E8" stroke-width="2"/>
  <path d="M 605 105 L 605 185 C 605 215 601 228 603 235 C 601 242 605 255 605 285 L 605 365" fill="none" stroke="#1B82E8" stroke-width="2"/>
  <path d="M 625 105 L 625 180 C 625 210 606 226 604 235 C 606 244 625 260 625 290 L 625 365" fill="none" stroke="#1B82E8" stroke-width="2"/>
  <path d="M 655 105 L 655 180 C 655 210 674 226 676 235 C 674 244 655 260 655 290 L 655 365" fill="none" stroke="#1B82E8" stroke-width="2"/>
  <path d="M 675 105 L 675 185 C 675 215 679 228 677 235 C 679 242 675 255 675 285 L 675 365" fill="none" stroke="#1B82E8" stroke-width="2"/>
  <path d="M 695 105 L 695 190 C 695 220 684 228 680 235 C 684 242 695 250 695 280 L 695 365" fill="none" stroke="#1B82E8" stroke-width="2"/>
  <line x1="604" y1="235" x2="676" y2="235" stroke="#D14343" stroke-width="3.5"/>
  <circle cx="604" cy="235" r="5" fill="#D14343"/>
  <circle cx="676" cy="235" r="5" fill="#D14343"/>
  <text x="640" y="398" text-anchor="middle" font-family="Arial, sans-serif" font-size="16" font-weight="bold" fill="#0A2342">sharp crack</text>
  <text x="640" y="420" text-anchor="middle" font-family="Arial, sans-serif" font-size="16" fill="#D14343">far higher - crowds at tips</text>

  <!-- bottom reaction arrows -->
  <line x1="160" y1="370" x2="160" y2="378" stroke="#FFFFFF" stroke-width="0"/>
</svg>
