<svg viewBox="0 0 800 500" xmlns="http://www.w3.org/2000/svg">
  <rect x="0" y="0" width="800" height="500" fill="#FFFFFF"/>
  <text x="400" y="30" text-anchor="middle" font-family="Arial, sans-serif" font-size="22" font-weight="bold" fill="#0B1F3A">Level II Review: Report PT-26-0288 — Would It Survive an Audit?</text>

  <!-- form frame -->
  <rect x="40" y="46" width="720" height="424" fill="#FFFFFF" stroke="#0B1F3A" stroke-width="2"/>
  <rect x="40" y="46" width="720" height="36" fill="#0B1F3A"/>
  <text x="400" y="69" text-anchor="middle" font-family="Arial, sans-serif" font-size="15" font-weight="bold" fill="#FFFFFF">LIQUID PENETRANT EXAMINATION REPORT — No. PT-26-0288 — Date of examination: 2026-06-09</text>

  <!-- row 1: identification -->
  <rect x="40" y="82" width="720" height="44" fill="#9BC4FF" opacity="0.15"/>
  <text x="60" y="102" font-family="Arial, sans-serif" font-size="15" fill="#0B1F3A">Part No. 7312-5&#160;&#160;&#160;&#160;S/N 0147&#160;&#160;&#160;&#160;Drawing D7312 Rev F</text>
  <text x="60" y="121" font-family="Arial, sans-serif" font-size="15" fill="#0B1F3A">Material: Ti-6Al-4V&#160;&#160;&#160;&#160;Qty: 1&#160;&#160;&#160;&#160;Area: 100% machined surfaces</text>
  <line x1="40" y1="126" x2="760" y2="126" stroke="#9BC4FF" stroke-width="1.5"/>

  <!-- row 2: procedure / classification -->
  <text x="60" y="146" font-family="Arial, sans-serif" font-size="15" fill="#0B1F3A">Procedure: PT-OP-12 Rev C&#160;&#160;&#160;&#160;Practice: ASTM E1417</text>
  <text x="60" y="164" font-family="Arial, sans-serif" font-size="15" fill="#0B1F3A">Classification: Type I (fluorescent) &#183; Method D &#183; Form a &#183; Sensitivity Level 3</text>
  <line x1="40" y1="170" x2="760" y2="170" stroke="#9BC4FF" stroke-width="1.5"/>

  <!-- row 3: material batches — penetrant batch EMPTY -->
  <text x="60" y="196" font-family="Arial, sans-serif" font-size="15" fill="#0B1F3A">Penetrant batch:</text>
  <rect x="186" y="178" width="132" height="26" fill="#FFFFFF" stroke="#1E66F5" stroke-width="1.5" stroke-dasharray="5,4"/>
  <text x="360" y="196" font-family="Arial, sans-serif" font-size="15" fill="#0B1F3A">Emulsifier batch: 22H07</text>
  <text x="580" y="196" font-family="Arial, sans-serif" font-size="15" fill="#0B1F3A">Developer batch: 31D19</text>
  <line x1="40" y1="214" x2="760" y2="214" stroke="#9BC4FF" stroke-width="1.5"/>

  <!-- row 4: dwell — obliterated correction, no initials/date -->
  <text x="60" y="240" font-family="Arial, sans-serif" font-size="15" fill="#0B1F3A">Penetrant dwell:</text>
  <!-- scribbled-out original entry -->
  <rect x="190" y="224" width="64" height="22" fill="#FFFFFF"/>
  <path d="M192,242 L252,228 M192,236 L252,240 M192,229 L252,234 M196,226 L248,244 M204,244 L244,226" stroke="#0B1F3A" stroke-width="2.5" fill="none"/>
  <text x="266" y="240" font-family="Arial, sans-serif" font-size="15" font-weight="bold" fill="#0B1F3A">20 min</text>
  <text x="420" y="240" font-family="Arial, sans-serif" font-size="15" fill="#0B1F3A">Part temp: 68 &#176;F</text>
  <text x="580" y="240" font-family="Arial, sans-serif" font-size="15" fill="#0B1F3A">Development: 12 min</text>
  <line x1="40" y1="258" x2="760" y2="258" stroke="#9BC4FF" stroke-width="1.5"/>

  <!-- row 5: lighting — radiometer cal overdue -->
  <text x="60" y="284" font-family="Arial, sans-serif" font-size="15" fill="#0B1F3A">UV-A at surface: 1,450 &#181;W/cm&#178;</text>
  <text x="400" y="284" font-family="Arial, sans-serif" font-size="15" fill="#0B1F3A">Radiometer R-204 — cal due: 2026-04-30</text>
  <text x="60" y="306" font-family="Arial, sans-serif" font-size="15" fill="#0B1F3A">Ambient white light: 1.2 fc</text>
  <text x="400" y="306" font-family="Arial, sans-serif" font-size="15" fill="#0B1F3A">Photometer P-112 — cal due: 2026-11-30</text>
  <line x1="40" y1="316" x2="760" y2="316" stroke="#9BC4FF" stroke-width="1.5"/>

  <!-- row 6: results with indication map -->
  <rect x="40" y="316" width="720" height="80" fill="#9BC4FF" opacity="0.15"/>
  <!-- part sketch -->
  <rect x="64" y="330" width="170" height="52" rx="6" fill="#9BC4FF" opacity="0.45"/>
  <rect x="64" y="330" width="170" height="52" rx="6" fill="none" stroke="#0B1F3A" stroke-width="1.5"/>
  <!-- datum A flag -->
  <line x1="64" y1="330" x2="64" y2="394" stroke="#0B1F3A" stroke-width="2"/>
  <text x="58" y="392" text-anchor="end" font-family="Arial, sans-serif" font-size="14" font-weight="bold" fill="#0B1F3A">A</text>
  <!-- indication -->
  <line x1="148" y1="344" x2="162" y2="368" stroke="#0B1F3A" stroke-width="3"/>
  <!-- dimension from datum -->
  <line x1="64" y1="390" x2="155" y2="390" stroke="#1E66F5" stroke-width="1.5"/>
  <polygon points="151,386 161,390 151,394" fill="#1E66F5"/>
  <text x="104" y="380" font-family="Arial, sans-serif" font-size="14" fill="#1E66F5">1.3 in.</text>
  <!-- results text -->
  <text x="260" y="342" font-family="Arial, sans-serif" font-size="15" fill="#0B1F3A">Results: one (1) linear indication, 0.20 in. long,</text>
  <text x="260" y="362" font-family="Arial, sans-serif" font-size="15" fill="#0B1F3A">1.3 in. from datum A on flange face — REJECT</text>
  <text x="260" y="382" font-family="Arial, sans-serif" font-size="15" fill="#0B1F3A">Disposition: NCR 26-0412 issued &#183; part segregated</text>
  <line x1="40" y1="396" x2="760" y2="396" stroke="#9BC4FF" stroke-width="1.5"/>

  <!-- row 7: sign-off -->
  <text x="60" y="424" font-family="Arial, sans-serif" font-size="15" fill="#0B1F3A">Inspector: J. Rivera&#160;&#160;&#160;&#160;Level II PT&#160;&#160;&#160;&#160;Stamp 47</text>
  <text x="60" y="448" font-family="Arial, sans-serif" font-size="15" fill="#0B1F3A">Certification expires: 2027-03-31&#160;&#160;&#160;&#160;Sign-off date: 2026-06-09</text>
  <!-- signature squiggle -->
  <path d="M560,440 C575,420 590,448 605,432 C615,422 625,444 645,430 C660,420 668,438 690,428" stroke="#1E66F5" stroke-width="2" fill="none"/>

  <!-- footer -->
  <text x="400" y="490" text-anchor="middle" font-family="Arial, sans-serif" font-size="14" fill="#0B1F3A">Three entries on this report would stop an auditor cold. Find them in the exercise.</text>
</svg>
